<svg width="144" height="144" viewBox="0 0 144 144" version="1.1" xmlns="http://www.w3.org/2000/svg" xmlns:xlink="http://www.w3.org/1999/xlink" xmlns:figma="http://www.figma.com/figma/ns">
<title>Defaults</title>
<desc>Created using Figma</desc>
<g id="Canvas" transform="translate(-3681 693)" figma:type="canvas">
<mask id="mask0_alpha" mask-type="alpha">
<path d="M 3681 -693L 3825 -693L 3825 -549L 3681 -549L 3681 -693Z" fill="#FFFFFF"/>
</mask>
<g id="Defaults" style="mix-blend-mode:normal;" mask="url(#mask0_alpha)" figma:type="frame">
<g id="Group 3" style="mix-blend-mode:normal;" figma:type="frame">
<g id="Group" style="mix-blend-mode:normal;" figma:type="frame">
<g id="Fill 27" style="mix-blend-mode:normal;" figma:type="vector">
<use xlink:href="#path0_fill" transform="translate(3705 -626.489)" fill="#FFF5D6" style="mix-blend-mode:normal;"/>
</g>
<g id="Fill 28" style="mix-blend-mode:normal;" figma:type="vector">
<use xlink:href="#path0_fill" transform="translate(3784.88 -626.489)" fill="#FFF5D6" style="mix-blend-mode:normal;"/>
</g>
<g id="Fill 29" style="mix-blend-mode:normal;" figma:type="vector">
<use xlink:href="#path1_fill" transform="translate(3725.52 -619.893)" fill="#FFF5D6" style="mix-blend-mode:normal;"/>
</g>
<g id="Stroke 30" style="mix-blend-mode:normal;" opacity="0.2" figma:type="vector">
<use xlink:href="#path2_stroke" transform="translate(3719.66 -657.568)" fill="#FFF5D6" style="mix-blend-mode:normal;"/>
</g>
<g id="Stroke 31" style="mix-blend-mode:normal;" opacity="0.2" figma:type="vector">
<use xlink:href="#path3_stroke" transform="translate(3725.52 -610.366)" fill="#FFF5D6" style="mix-blend-mode:normal;"/>
</g>
</g>
</g>
</g>
</g>
<defs>
<path id="path0_fill" fill-rule="evenodd" d="M 16.1221 8.06107C 16.1221 12.5131 12.5132 16.1221 8.06126 16.1221C 3.60891 16.1221 0 12.5131 0 8.06107C 0 3.60899 3.60891 0 8.06126 0C 12.5132 0 16.1221 3.60899 16.1221 8.06107Z"/>
<path id="path1_fill" fill-rule="evenodd" d="M 0 2.9313L 54.229 2.9313L 54.229 0L 0 0L 0 2.9313Z"/>
<path id="path2_stroke" d="M 14.5476 31.0799L 14.5476 33.0799L 16.5476 33.0799L 16.5476 31.0799L 14.5476 31.0799ZM 14.5476 19.7289L 16.5476 19.7289L 16.5476 17.7289L 14.5476 17.7289L 14.5476 19.7289ZM 0 19.7289L -2 19.7289L -2 21.7289L 0 21.7289L 0 19.7289ZM 0 0L 0 -2L -2 -2L -2 0L 0 0ZM 29.6447 0L 31.6447 0L 31.6447 -2L 29.6447 -2L 29.6447 0ZM 29.6447 13.371L 27.6447 13.371L 27.6447 15.371L 29.6447 15.371L 29.6447 13.371ZM 42.2711 13.371L 42.2711 15.371L 44.2711 15.371L 44.2711 13.371L 42.2711 13.371ZM 42.2711 5.43101L 42.2711 3.43101L 40.2711 3.43101L 40.2711 5.43101L 42.2711 5.43101ZM 49.133 5.43101L 51.133 5.43101L 51.133 3.43101L 49.133 3.43101L 49.133 5.43101ZM 49.133 21.0802L 49.1604 23.0801L 51.133 23.0531L 51.133 21.0802L 49.133 21.0802ZM 29.3702 21.3506L 29.3428 19.3508L 27.3702 19.3778L 27.3702 21.3506L 29.3702 21.3506ZM 29.3702 31.0799L 27.3702 31.0799L 27.3702 33.0799L 29.3702 33.0799L 29.3702 31.0799ZM 57.9166 31.0799L 57.9166 33.0799L 59.9166 33.0799L 59.9166 31.0799L 57.9166 31.0799ZM 57.9166 16.4859L 57.9166 14.4859L 55.9166 14.4859L 55.9166 16.4859L 57.9166 16.4859ZM 73.2824 16.4859L 75.2824 16.4859L 75.2824 14.4859L 73.2824 14.4859L 73.2824 16.4859ZM 5.99644 33.0799L 14.5476 33.0799L 14.5476 29.0799L 5.99644 29.0799L 5.99644 33.0799ZM 16.5476 31.0799L 16.5476 19.7289L 12.5476 19.7289L 12.5476 31.0799L 16.5476 31.0799ZM 14.5476 17.7289L 0 17.7289L 0 21.7289L 14.5476 21.7289L 14.5476 17.7289ZM 2 19.7289L 2 0L -2 0L -2 19.7289L 2 19.7289ZM 0 2L 29.6447 2L 29.6447 -2L 0 -2L 0 2ZM 27.6447 0L 27.6447 13.371L 31.6447 13.371L 31.6447 0L 27.6447 0ZM 29.6447 15.371L 42.2711 15.371L 42.2711 11.371L 29.6447 11.371L 29.6447 15.371ZM 44.2711 13.371L 44.2711 5.43101L 40.2711 5.43101L 40.2711 13.371L 44.2711 13.371ZM 42.2711 7.43101L 49.133 7.43101L 49.133 3.43101L 42.2711 3.43101L 42.2711 7.43101ZM 47.133 5.43101L 47.133 21.0802L 51.133 21.0802L 51.133 5.43101L 47.133 5.43101ZM 49.1057 19.0804L 29.3428 19.3508L 29.3975 23.3504L 49.1604 23.0801L 49.1057 19.0804ZM 27.3702 21.3506L 27.3702 31.0799L 31.3702 31.0799L 31.3702 21.3506L 27.3702 21.3506ZM 29.3702 33.0799L 57.9166 33.0799L 57.9166 29.0799L 29.3702 29.0799L 29.3702 33.0799ZM 59.9166 31.0799L 59.9166 16.4859L 55.9166 16.4859L 55.9166 31.0799L 59.9166 31.0799ZM 57.9166 18.4859L 73.2824 18.4859L 73.2824 14.4859L 57.9166 14.4859L 57.9166 18.4859ZM 71.2824 16.4859L 71.2824 27.0916L 75.2824 27.0916L 75.2824 16.4859L 71.2824 16.4859Z"/>
<path id="path3_stroke" d="M 21.8426 0L 23.8426 0L 23.8426 -2L 21.8426 -2L 21.8426 0ZM 21.8426 8.79389L 19.8426 8.79389L 19.8426 10.7939L 21.8426 10.7939L 21.8426 8.79389ZM 29.2002 8.79389L 31.2002 8.79389L 31.2002 6.79389L 29.2002 6.79389L 29.2002 8.79389ZM 29.2002 18.2443L 29.2002 20.2443L 31.2002 20.2443L 31.2002 18.2443L 29.2002 18.2443ZM 10.3972 18.2443L 10.3972 16.2443L 8.39725 16.2443L 8.39725 18.2443L 10.3972 18.2443ZM 10.3972 26.3817L 8.39725 26.3817L 8.39725 28.3817L 10.3972 28.3817L 10.3972 26.3817ZM 50.1832 26.3817L 50.1832 28.3817L 52.1832 28.3817L 52.1832 26.3817L 50.1832 26.3817ZM 50.1832 13.1906L 52.1832 13.1906L 52.1832 11.1906L 50.1832 11.1906L 50.1832 13.1906ZM 41.463 13.1906L 39.463 13.1906L 39.463 15.1906L 41.463 15.1906L 41.463 13.1906ZM 41.463 0L 41.463 -2L 39.463 -2L 39.463 0L 41.463 0ZM 0 2L 21.8426 2L 21.8426 -2L 0 -2L 0 2ZM 19.8426 0L 19.8426 8.79389L 23.8426 8.79389L 23.8426 0L 19.8426 0ZM 21.8426 10.7939L 29.2002 10.7939L 29.2002 6.79389L 21.8426 6.79389L 21.8426 10.7939ZM 27.2002 8.79389L 27.2002 18.2443L 31.2002 18.2443L 31.2002 8.79389L 27.2002 8.79389ZM 29.2002 16.2443L 10.3972 16.2443L 10.3972 20.2443L 29.2002 20.2443L 29.2002 16.2443ZM 8.39725 18.2443L 8.39725 26.3817L 12.3972 26.3817L 12.3972 18.2443L 8.39725 18.2443ZM 10.3972 28.3817L 50.1832 28.3817L 50.1832 24.3817L 10.3972 24.3817L 10.3972 28.3817ZM 52.1832 26.3817L 52.1832 13.1906L 48.1832 13.1906L 48.1832 26.3817L 52.1832 26.3817ZM 50.1832 11.1906L 41.463 11.1906L 41.463 15.1906L 50.1832 15.1906L 50.1832 11.1906ZM 43.463 13.1906L 43.463 0L 39.463 0L 39.463 13.1906L 43.463 13.1906ZM 41.463 2L 54.229 2L 54.229 -2L 41.463 -2L 41.463 2Z"/>
</defs>
</svg>
