<svg width="144" height="144" viewBox="0 0 144 144" version="1.1" xmlns="http://www.w3.org/2000/svg" xmlns:xlink="http://www.w3.org/1999/xlink" xmlns:figma="http://www.figma.com/figma/ns">
<title>ego</title>
<desc>Created using Figma</desc>
<g id="Canvas" transform="translate(-4237 211)" figma:type="canvas">
<mask id="mask0_alpha" mask-type="alpha">
<path d="M 4237 -211L 4381 -211L 4381 -67L 4237 -67L 4237 -211Z" fill="#FFFFFF"/>
</mask>
<g id="ego" style="mix-blend-mode:normal;" mask="url(#mask0_alpha)" figma:type="frame">
<g id="Group 15" style="mix-blend-mode:normal;" figma:type="frame">
<g id="Group" style="mix-blend-mode:normal;" figma:type="frame">
<g id="Subtract" style="mix-blend-mode:normal;" figma:type="vector-operation">
<use xlink:href="#path0_fill" transform="translate(4260 -193.5)" fill="#FFF5D6" fill-opacity="0.2" style="mix-blend-mode:normal;"/>
</g>
<g id="Union" style="mix-blend-mode:normal;" figma:type="vector-operation">
<use xlink:href="#path1_fill" transform="translate(4322 -133.5)" fill="#FFF5D6" style="mix-blend-mode:normal;"/>
</g>
</g>
</g>
</g>
</g>
<defs>
<path id="path0_fill" fill-rule="evenodd" d="M 48 0C 21.4902 0 0 21.4901 0 48C 0 74.5099 21.4902 96 48 96C 55.2046 96 62.0391 94.4126 68.1719 91.5684C 64.3901 88.2688 62 83.4137 62 78.0003C 62 68.059 70.0591 60 80 60C 84.9966 60 89.5176 62.0359 92.7788 65.3233C 94.8589 59.9497 96 54.1081 96 48C 96 21.4901 74.5093 0 48 0ZM 18.0532 26.8792L 21.5137 29.5172C 23.3032 27.1693 26.6143 25.7112 30.1543 25.7112C 33.6938 25.7112 37.0049 27.1693 38.7944 29.5172L 42.2549 26.8792C 39.6201 23.4234 35.0967 21.3601 30.1543 21.3601C 25.2114 21.3601 20.688 23.4234 18.0532 26.8792ZM 74.4863 29.5172C 72.6968 27.1693 69.3857 25.7112 65.8457 25.7112C 62.3062 25.7112 58.9951 27.1693 57.2056 29.5172L 53.7451 26.8792C 56.3799 23.4234 60.9033 21.3601 65.8457 21.3601C 70.7886 21.3601 75.312 23.4234 77.9468 26.8792L 74.4863 29.5172ZM 47.9302 55.743C 39.5488 55.743 31.9019 52.2753 27.4746 46.4671L 30.9351 43.8291C 34.4912 48.4939 41.0029 51.3914 47.9302 51.3914C 54.8569 51.3914 61.3691 48.4939 64.9253 43.8291L 68.3857 46.4671C 63.958 52.2753 56.311 55.743 47.9302 55.743Z"/>
<path id="path1_fill" fill-rule="evenodd" d="M 18 0C 8.05908 0 0 8.05898 0 18.0003C 0 23.8796 2.81836 29.1004 7.17822 32.3852L 5.01709 48.738C 4.92236 49.4558 5.22314 50.1689 5.80273 50.6022C 6.38281 51.0356 7.15186 51.1216 7.81348 50.8271L 12.4038 48.7832L 17.2144 50.8391C 17.7188 51.0547 18.29 51.0536 18.7935 50.8359L 23.5952 48.761L 28.1792 50.8238C 28.8408 51.1216 29.6118 51.0377 30.1938 50.6046C 30.7759 50.1715 31.0776 49.4572 30.9829 48.738L 28.8218 32.3852C 33.1816 29.1004 36 23.8796 36 18.0003C 36 8.05898 27.9409 0 18 0ZM 24.7349 34.6978C 22.6543 35.5376 20.3813 36 18 36C 15.4888 36 13.0977 35.4858 10.9263 34.5569L 9.45117 45.7194L 11.5742 44.7741C 12.0825 44.5478 12.6621 44.5434 13.1738 44.7621L 17.9961 46.8231L 22.8184 44.7392C 23.3345 44.5163 23.9204 44.5207 24.4326 44.7513L 26.5469 45.7028L 24.7349 34.6978ZM 18 8C 12.4771 8 8 12.4769 8 18C 8 23.5231 12.4771 28 18 28C 23.5225 28 28 23.523 28 18C 28 12.477 23.5225 8 18 8ZM 4 18C 4 10.2678 10.2676 4 18 4C 25.7314 4 32 10.2677 32 18C 32 25.7323 25.7314 32 18 32C 10.2676 32 4 25.7322 4 18Z"/>
</defs>
</svg>
