<svg width="144" height="144" viewBox="0 0 144 144" version="1.1" xmlns="http://www.w3.org/2000/svg" xmlns:xlink="http://www.w3.org/1999/xlink" xmlns:figma="http://www.figma.com/figma/ns">
<title>Halo_effect</title>
<desc>Created using Figma</desc>
<g id="Canvas" transform="translate(-4515 -22)" figma:type="canvas">
<mask id="mask0_alpha" mask-type="alpha">
<path d="M 4515 22L 4659 22L 4659 166L 4515 166L 4515 22Z" fill="#FFFFFF"/>
</mask>
<g id="Halo_effect" style="mix-blend-mode:normal;" mask="url(#mask0_alpha)" figma:type="frame">
<g id="Group" style="mix-blend-mode:normal;" figma:type="frame">
<g id="Fill 210" style="mix-blend-mode:normal;" figma:type="vector">
<use xlink:href="#path0_fill" transform="translate(4538 88)" fill="#EA5D44" style="mix-blend-mode:normal;"/>
</g>
<g id="Group 219" style="mix-blend-mode:normal;" figma:type="frame">
<g id="Fill 217" style="mix-blend-mode:normal;" figma:type="vector">
<use xlink:href="#path1_fill" transform="translate(4596.21 91.0386)" fill="#EBE8E8" style="mix-blend-mode:normal;"/>
</g>
</g>
</g>
</g>
</g>
<defs>
<path id="path0_fill" fill-rule="evenodd" d="M 42 21C 42 32.5983 32.5979 42 21.0002 42C 9.40211 42 0 32.5983 0 21C 0 9.40174 9.40211 0 21.0002 0C 32.5979 0 42 9.40174 42 21Z"/>
<path id="path1_fill" fill-rule="evenodd" d="M 21.658 2.4212C 23.4239 2.4212 26.7006 0 30.9663 0C 38.3087 0 41.1974 5.21157 41.1974 5.21157C 41.1974 5.21157 35.548 8.09253 35.548 15.0834C 35.548 22.9701 42.5855 25.6877 42.5855 25.6877C 42.5855 25.6877 37.6656 39.4998 31.0209 39.4998C 27.9688 39.4998 25.5961 37.4482 22.3803 37.4482C 19.1036 37.4482 15.8515 39.5764 13.7334 39.5764C 7.6656 39.5764 0 26.4742 0 15.9427C 0 5.58121 6.48865 0.145542 12.5744 0.145542C 16.5308 0.145542 19.6012 2.4212 21.658 2.4212Z"/>
</defs>
</svg>
