<svg width="144" height="144" viewBox="0 0 144 144" version="1.1" xmlns="http://www.w3.org/2000/svg" xmlns:xlink="http://www.w3.org/1999/xlink" xmlns:figma="http://www.figma.com/figma/ns">
<title>Pluralistic_ignorance</title>
<desc>Created using Figma</desc>
<g id="Canvas" transform="translate(-3959 693)" figma:type="canvas">
<mask id="mask0_alpha" mask-type="alpha">
<path d="M 3959 -693L 4103 -693L 4103 -549L 3959 -549L 3959 -693Z" fill="#FFFFFF"/>
</mask>
<g id="Pluralistic_ignorance" style="mix-blend-mode:normal;" mask="url(#mask0_alpha)" figma:type="frame">
<g id="Group 31" style="mix-blend-mode:normal;" figma:type="frame">
<g id="Oval" style="mix-blend-mode:normal;" figma:type="vector">
<use xlink:href="#path0_fill" transform="translate(3969 -600)" fill="#FFF5D6" style="mix-blend-mode:normal;"/>
</g>
<g id="Oval Copy" style="mix-blend-mode:normal;" opacity="0.2" figma:type="vector">
<use xlink:href="#path1_stroke" transform="translate(3995.5 -656.5)" fill="#FFF5D6" style="mix-blend-mode:normal;"/>
</g>
</g>
</g>
</g>
<defs>
<path id="path0_fill" fill-rule="evenodd" d="M 51 31C 79.1665 31 102 24.0604 102 15.5C 102 6.93959 79.1665 0 51 0C 22.8335 0 0 6.93959 0 15.5C 0 24.0604 22.8335 31 51 31Z"/>
<path id="path1_stroke" d="M 76.5965 1.67263C 77.5203 1.06705 77.7782 -0.172731 77.1726 -1.0965C 76.567 -2.02027 75.3273 -2.27821 74.4035 -1.67263L 76.5965 1.67263ZM 94.9524 0.433559C 95.1919 -0.644744 94.5119 -1.71299 93.4336 -1.95244C 92.3553 -2.19189 91.287 -1.51186 91.0476 -0.433559L 94.9524 0.433559ZM 77.1729 57.9969C 76.895 59.0659 77.5364 60.1578 78.6054 60.4357C 79.6745 60.7136 80.7664 60.0722 81.0442 59.0031L 77.1729 57.9969ZM -1.13363 48.9017C -2.04363 49.5278 -2.27378 50.773 -1.64769 51.683C -1.0216 52.593 0.223642 52.8232 1.13363 52.1971L -1.13363 48.9017ZM 81.0442 59.0031C 84.1412 47.0881 87.6203 32.4373 90.3215 20.7806C 91.6723 14.9511 92.8303 9.86346 93.6498 6.23606C 94.0598 4.42179 94.3855 2.971 94.6084 1.9748C 94.72 1.47642 94.806 1.09108 94.864 0.830761C 94.8931 0.700472 94.9152 0.601164 94.93 0.534629C 94.9374 0.501298 94.943 0.476029 94.9467 0.45919C 94.9486 0.450738 94.9501 0.44433 94.951 0.440083C 94.9515 0.437944 94.9518 0.436313 94.9521 0.43524C 94.9522 0.434696 94.9523 0.434276 94.9523 0.434004C 94.9524 0.433715 94.9524 0.433559 93 0C 91.0476 -0.433559 91.0475 -0.433451 91.0475 -0.43321C 91.0474 -0.432953 91.0473 -0.43258 91.0472 -0.432068C 91.047 -0.431027 91.0467 -0.429491 91.0462 -0.427415C 91.0453 -0.423231 91.0439 -0.417015 91.042 -0.408692C 91.0383 -0.391981 91.0328 -0.367101 91.0254 -0.33403C 91.0107 -0.26776 90.9888 -0.169254 90.9598 -0.0395047C 90.9019 0.220256 90.8163 0.603887 90.705 1.1011C 90.4823 2.09608 90.1575 3.54294 89.7482 5.35452C 88.9293 8.97883 87.7738 14.0558 86.4247 19.8776C 83.726 31.5237 80.2594 46.1228 77.1729 57.9969L 81.0442 59.0031ZM 75.5 0C 74.4035 -1.67263 74.4033 -1.67251 74.403 -1.67229C 74.4026 -1.67207 74.4021 -1.67174 74.4015 -1.6713C 74.4002 -1.67044 74.3982 -1.66914 74.3955 -1.66741C 74.3903 -1.66397 74.3824 -1.65881 74.372 -1.65197C 74.3512 -1.63831 74.32 -1.61784 74.2787 -1.59079C 74.1963 -1.53672 74.0733 -1.45606 73.9117 -1.34999C 73.5887 -1.13797 73.1104 -0.823918 72.4905 -0.416472C 71.2509 0.398208 69.4431 1.58741 67.1729 3.08394C 62.633 6.07656 56.2394 10.3009 48.8311 15.2234C 34.0158 25.0675 15.1274 37.7139 -1.13363 48.9017L 1.13363 52.1971C 17.3737 41.0236 36.2353 28.3952 51.0448 18.555C 58.4488 13.6354 64.8362 9.41507 69.3743 6.42363C 71.643 4.92813 73.4485 3.74044 74.6874 2.92624C 75.3066 2.51924 75.7839 2.20585 76.1066 1.99404C 76.2679 1.88819 76.3903 1.80784 76.4726 1.75387C 76.5137 1.72692 76.5447 1.70661 76.5654 1.693C 76.5758 1.6862 76.5836 1.68111 76.5888 1.6777C 76.5914 1.676 76.5933 1.67473 76.5946 1.67388C 76.5952 1.67346 76.5957 1.67315 76.596 1.67293C 76.5964 1.67273 76.5965 1.67263 75.5 0Z"/>
</defs>
</svg>
