<svg width="144" height="144" viewBox="0 0 144 144" version="1.1" xmlns="http://www.w3.org/2000/svg" xmlns:xlink="http://www.w3.org/1999/xlink" xmlns:figma="http://www.figma.com/figma/ns">
<title>Reciprocity</title>
<desc>Created using Figma</desc>
<g id="Canvas" transform="translate(-3403 460)" figma:type="canvas">
<mask id="mask0_alpha" mask-type="alpha">
<path d="M 3403 -460L 3547 -460L 3547 -316L 3403 -316L 3403 -460Z" fill="#FFFFFF"/>
</mask>
<g id="Reciprocity" style="mix-blend-mode:normal;" mask="url(#mask0_alpha)" figma:type="frame">
<g id="Group" style="mix-blend-mode:normal;" figma:type="frame">
<g id="Rectangle 3" style="mix-blend-mode:normal;" opacity="0.2" figma:type="rounded-rectangle">
<use xlink:href="#path0_fill" transform="translate(3427 -398)" fill="#FFF5D6" style="mix-blend-mode:normal;"/>
</g>
<g id="Rectangle 4" style="mix-blend-mode:normal;" opacity="0.2" figma:type="rounded-rectangle">
<use xlink:href="#path1_fill" transform="translate(3472.5 -436)" fill="#FFF5D6" style="mix-blend-mode:normal;"/>
</g>
<g id="Vector 2" style="mix-blend-mode:normal;" figma:type="vector">
<use xlink:href="#path2_fill" transform="translate(3454 -409)" fill="#FFF5D6" style="mix-blend-mode:normal;"/>
</g>
</g>
</g>
</g>
<defs>
<path id="path0_fill" d="M 0 0L 96 0L 96 20L 0 20L 0 0Z"/>
<path id="path1_fill" d="M 0 0L 20 0L 20 96L 0 96L 0 0Z"/>
<path id="path2_fill" d="M 28.5 8.07232C 22.0343 1.70564 12.4776 0.113972 8.50746 0.113972L 0 13.9364C 7.82687 13.2662 16.0224 18.6834 19.1418 21.4758C 7.91194 15.4186 1.70149 15.0426 0 15.6118C 1.36119 17.6223 3.97015 20.0796 5.10448 21.057C 1.70149 23.7377 0.283582 26.6418 0 27.7588L 8.08209 41.1623C 12.1657 33.7903 20.8433 29.7134 24.6716 28.5965C 14.4627 34.293 10.209 39.9057 9.35821 42C 17.5254 42 25.5224 36.6944 28.5 34.0417C 35.9866 40.4083 44.3806 42 47.6418 42C 44.5791 35.9684 36.1567 30.5512 32.3284 28.5965C 42.197 31.9474 47.5 38.6491 48.9179 41.5811L 57 27.7588C 56.3194 24.743 53.3134 22.0343 51.8955 21.057C 54.9582 19.0465 56.291 16.0307 56.5746 14.7741C 50.109 14.439 40.5522 18.8231 36.5821 21.057C 43.0478 15.6956 52.3209 13.5175 56.1493 13.0986L 48.4925 0.113972C 40.6657 -0.891293 31.903 5.00067 28.5 8.07232Z"/>
</defs>
</svg>
