<svg width="144" height="144" viewBox="0 0 144 144" version="1.1" xmlns="http://www.w3.org/2000/svg" xmlns:xlink="http://www.w3.org/1999/xlink" xmlns:figma="http://www.figma.com/figma/ns">
<title>Social_norms</title>
<desc>Created using Figma</desc>
<g id="Canvas" transform="translate(-4237 -470)" figma:type="canvas">
<mask id="mask0_alpha" mask-type="alpha">
<path d="M 4237 470L 4381 470L 4381 614L 4237 614L 4237 470Z" fill="#FFFFFF"/>
</mask>
<g id="Social_norms" style="mix-blend-mode:normal;" mask="url(#mask0_alpha)" figma:type="frame">
<g id="Group 28" style="mix-blend-mode:normal;" figma:type="frame">
<g id="Fill 360" style="mix-blend-mode:normal;" figma:type="vector">
<use xlink:href="#path0_fill" transform="translate(4253.06 551.348)" fill="#FFF5D6" style="mix-blend-mode:normal;"/>
</g>
<g id="Fill 362" style="mix-blend-mode:normal;" figma:type="vector">
<use xlink:href="#path1_fill" transform="translate(4264.25 549.739)" fill="#FFF5D6" style="mix-blend-mode:normal;"/>
</g>
<g id="Fill 364" style="mix-blend-mode:normal;" figma:type="vector">
<use xlink:href="#path2_fill" transform="translate(4253.06 530.435)" fill="#FFF5D6" style="mix-blend-mode:normal;"/>
</g>
<g id="Fill 366" style="mix-blend-mode:normal;" figma:type="vector">
<use xlink:href="#path3_fill" transform="translate(4264.25 528.826)" fill="#FFF5D6" style="mix-blend-mode:normal;"/>
</g>
<g id="Union" style="mix-blend-mode:normal;" opacity="0.2" figma:type="vector-operation">
<use xlink:href="#path4_fill" transform="translate(4293.82 550.543)" fill="#FFF5D6" style="mix-blend-mode:normal;"/>
</g>
<g id="Union" style="mix-blend-mode:normal;" opacity="0.2" figma:type="vector-operation">
<use xlink:href="#path5_fill" transform="translate(4294.61 524)" fill="#FFF5D6" style="mix-blend-mode:normal;"/>
</g>
<g id="Union" style="mix-blend-mode:normal;" opacity="0.2" figma:type="vector-operation">
<use xlink:href="#path6_fill" transform="translate(4334.57 549.739)" fill="#FFF5D6" style="mix-blend-mode:normal;"/>
</g>
<g id="Union" style="mix-blend-mode:normal;" opacity="0.2" figma:type="vector-operation">
<use xlink:href="#path7_fill" transform="translate(4334.57 530.435)" fill="#FFF5D6" style="mix-blend-mode:normal;"/>
</g>
</g>
</g>
</g>
<defs>
<path id="path0_fill" fill-rule="evenodd" d="M 8.79101 0.926077L 7.99929 7.069C 7.99929 7.069 4.96748 7.62378 2.71025 6.72969C 0.45252 5.83561 -0.282755 4.32534 0.0937019 2.73318C 0.470158 1.14103 2.75359 -0.0918588 4.59102 0.00537987C 6.42795 0.10313 8.79101 0.926077 8.79101 0.926077"/>
<path id="path1_fill" fill-rule="evenodd" d="M 0.409955 2.98117L 0 8.91659C 0 8.91659 3.15742 10.777 9.62554 10.4081C 16.0937 10.0388 18.1883 8.18643 19.2159 7.103C 20.2436 6.01908 20.2304 3.84972 19.1981 2.41757C 18.1658 0.985922 10.8004 -1.45769 5.63599 1.15098C 4.03233 1.96065 2.72251 2.84027 0.409955 2.98117"/>
<path id="path2_fill" fill-rule="evenodd" d="M 8.79101 6.32274L 8.01189 0.174881C 8.01189 0.174881 4.97961 -0.386809 2.7189 0.503088C 0.45768 1.39247 -0.281099 2.90192 0.092073 4.49533C 0.465245 6.08926 2.74764 7.32784 4.58627 7.23414C 6.4249 7.14096 8.79101 6.32274 8.79101 6.32274"/>
<path id="path3_fill" fill-rule="evenodd" d="M 0.396893 7.45414L 0 1.52153C 0 1.52153 3.16291 -0.330625 9.63344 0.0520755C 16.1035 0.435279 18.1949 2.29095 19.2205 3.37619C 20.2461 4.46093 20.2283 6.6294 19.192 8.05812C 18.1562 9.48683 10.7823 11.9128 5.6212 9.29473C 4.01886 8.48155 2.70998 7.59998 0.396893 7.45414"/>
<path id="path4_fill" fill-rule="evenodd" d="M 7.55804 7.19696L 8.79095 1.25702C 8.79095 1.25702 6.54388 0.270691 4.75629 0.0339966C 2.96869 -0.203186 0.645447 0.825256 0.158142 2.35114C -0.328674 3.87701 0.276794 5.40936 2.41595 6.45685C 4.55414 7.50488 7.55804 7.19696 7.55804 7.19696ZM 10.3896 8.19739L 11.2524 2.23541C 13.1948 2.26697 14.4662 1.70404 15.811 1.10858C 16.0488 1.00317 16.289 0.896851 16.5356 0.792542C 21.8188 -1.4408 28.8749 1.59833 29.7802 3.12427C 30.685 4.6507 30.5297 6.84222 29.435 7.85645C 28.3398 8.87115 26.1357 10.579 19.7436 10.4496C 13.352 10.3206 10.3896 8.19739 10.3896 8.19739Z"/>
<path id="path5_fill" fill-rule="evenodd" d="M 8.79102 5.8468L 11.2354 11.2609C 13.0772 10.6895 14.4414 10.8689 15.8843 11.0587C 16.1397 11.0922 16.3975 11.1261 16.6607 11.1562C 22.3003 11.8015 28.1943 6.95105 28.6406 5.25141C 29.0869 3.5517 28.3428 1.51636 27.0234 0.859499C 25.7046 0.202699 23.1401 -0.802916 17.0869 1.10211C 11.0342 3.00665 8.79102 5.8468 8.79102 5.8468ZM 6.63136 7.23914L 9.59034 12.5891C 9.59034 12.5891 7.6045 14.1697 5.8672 14.9014C 4.12891 15.6337 1.48536 15.3031 0.55323 13.9769C -0.378899 12.6502 -0.209465 11.0095 1.64942 9.40076C 3.50831 7.79157 6.63136 7.23914 6.63136 7.23914Z"/>
<path id="path6_fill" fill-rule="evenodd" d="M 10.3896 8.91657L 10.7993 2.98114C 12.7636 2.86145 14.0048 2.20868 15.3168 1.5185C 15.5493 1.39624 15.7841 1.27283 16.0253 1.15094C 21.1904 -1.4577 28.5551 0.985905 29.5873 2.41755C 30.6201 3.84974 30.6332 6.01905 29.6054 7.10303C 28.5776 8.18641 26.4829 10.0388 20.0151 10.4081C 13.5468 10.777 10.3896 8.91657 10.3896 8.91657ZM 7.99946 8.67768L 8.79096 2.53479C 8.79096 2.53479 6.42817 1.7118 4.59126 1.61408C 2.75385 1.51685 0.470161 2.7497 0.0936966 4.34186C -0.282768 5.93402 0.452583 7.44428 2.7104 8.33838C 4.96772 9.23249 7.99946 8.67768 7.99946 8.67768Z"/>
<path id="path7_fill" fill-rule="evenodd" d="M 8.79104 0.605871L 8.71487 6.89115C 8.71487 6.89115 6.16116 7.37302 4.25393 7.20267C 2.3467 7.03238 0.173363 5.46067 0.0161362 3.80692C -0.140602 2.15317 0.836449 0.743994 3.29202 0.174902C 5.74758 -0.393641 8.79104 0.605871 8.79104 0.605871ZM 10.8413 0.666662L 10.3897 6.63798C 12.3452 7.03422 13.4966 7.85911 14.7144 8.73148C 14.9297 8.88608 15.148 9.04221 15.3726 9.19767C 20.1802 12.5242 27.9336 11.1274 29.1782 9.84598C 30.4234 8.56461 30.752 6.405 29.878 5.18033C 29.003 3.95621 27.1685 1.81534 20.7256 0.536474C 14.2827 -0.742334 10.8413 0.666662 10.8413 0.666662Z"/>
</defs>
</svg>
