<svg width="57" height="56" viewBox="0 0 57 56" version="1.1" xmlns="http://www.w3.org/2000/svg" xmlns:xlink="http://www.w3.org/1999/xlink" xmlns:figma="http://www.figma.com/figma/ns">
<title>Icon_Refresh</title>
<desc>Created using Figma</desc>
<g id="Canvas" transform="translate(-4261 -2507)" figma:type="canvas">
<g id="Icon_Refresh" style="mix-blend-mode:normal;" figma:type="instance">
<g id="Ellipse" style="mix-blend-mode:normal;" figma:type="ellipse">
<mask id="mask0_outline_ins">
<use xlink:href="#path0_fill" fill="white" transform="translate(4261.73 2507)"/>
</mask>
<g mask="url(#mask0_outline_ins)">
<use xlink:href="#path1_stroke_2x" transform="translate(4261.73 2507)" fill="#FFFFFF" fill-opacity="0.3" style="mix-blend-mode:normal;"/>
</g>
</g>
<g id="Vector" style="mix-blend-mode:normal;" figma:type="vector">
<use xlink:href="#path2_stroke" transform="translate(4279.06 2523)" fill="#FFF6D9" style="mix-blend-mode:normal;"/>
</g>
</g>
</g>
<defs>
<path id="path0_fill" d="M 56 28C 56 43.464 43.464 56 28 56C 12.536 56 0 43.464 0 28C 0 12.536 12.536 0 28 0C 43.464 0 56 12.536 56 28Z"/>
<path id="path1_stroke_2x" d="M 54 28C 54 42.3594 42.3594 54 28 54L 28 58C 44.5685 58 58 44.5685 58 28L 54 28ZM 28 54C 13.6406 54 2 42.3594 2 28L -2 28C -2 44.5685 11.4315 58 28 58L 28 54ZM 2 28C 2 13.6406 13.6406 2 28 2L 28 -2C 11.4315 -2 -2 11.4315 -2 28L 2 28ZM 28 2C 42.3594 2 54 13.6406 54 28L 58 28C 58 11.4315 44.5685 -2 28 -2L 28 2Z"/>
<path id="path2_stroke" d="M 21.3333 8L 21.3333 9L 22.3333 9L 22.3333 8L 21.3333 8ZM 1.33333 17.3333L 1.33333 16.3333L 0.333333 16.3333L 0.333333 17.3333L 1.33333 17.3333ZM 10.6667 23.6667C 17.11 23.6667 22.3333 18.4433 22.3333 12L 20.3333 12C 20.3333 17.3388 16.0054 21.6667 10.6667 21.6667L 10.6667 23.6667ZM 10.6667 0.333333C 4.22334 0.333333 -1 5.55668 -1 12L 1 12C 1 6.66125 5.32791 2.33333 10.6667 2.33333L 10.6667 0.333333ZM 0.561406 17.8341C 2.57712 21.3186 6.34709 23.6667 10.6667 23.6667L 10.6667 21.6667C 7.08989 21.6667 3.96554 19.7246 2.29262 16.8326L 0.561406 17.8341ZM 20.8744 6.34679C 18.8856 2.76272 15.0605 0.333333 10.6667 0.333333L 10.6667 2.33333C 14.3049 2.33333 17.4751 4.34281 19.1256 7.31719L 20.8744 6.34679ZM 21.3333 7L 13.3333 7L 13.3333 9L 21.3333 9L 21.3333 7ZM 22.3333 8L 22.3333 0L 20.3333 0L 20.3333 8L 22.3333 8ZM 1.33333 18.3333L 1.42701 18.3333L 1.42701 16.3333L 1.33333 16.3333L 1.33333 18.3333ZM 1.42701 18.3333L 9.33333 18.3333L 9.33333 16.3333L 1.42701 16.3333L 1.42701 18.3333ZM 0.333333 17.3333L 0.333333 25.3333L 2.33333 25.3333L 2.33333 17.3333L 0.333333 17.3333Z"/>
</defs>
</svg>
