<svg width="144" height="144" viewBox="0 0 144 144" version="1.1" xmlns="http://www.w3.org/2000/svg" xmlns:xlink="http://www.w3.org/1999/xlink" xmlns:figma="http://www.figma.com/figma/ns">
<title>Affect</title>
<desc>Created using Figma</desc>
<g id="Canvas" transform="translate(-4515 -470)" figma:type="canvas">
<mask id="mask0_alpha" mask-type="alpha">
<path d="M 4515 470L 4659 470L 4659 614L 4515 614L 4515 470Z" fill="#FFFFFF"/>
</mask>
<g id="Affect" style="mix-blend-mode:normal;" mask="url(#mask0_alpha)" figma:type="frame">
<g id="Group 30" style="mix-blend-mode:normal;" figma:type="frame">
<g id="Union" style="mix-blend-mode:normal;" opacity="0.2" figma:type="vector-operation">
<use xlink:href="#path0_fill" transform="translate(4540 478)" fill="#FFF5D6" style="mix-blend-mode:normal;"/>
</g>
<g id="Union" style="mix-blend-mode:normal;" figma:type="vector-operation">
<use xlink:href="#path1_fill" transform="translate(4548 529.537)" fill="#FFF5D6" style="mix-blend-mode:normal;"/>
</g>
</g>
</g>
</g>
<defs>
<path id="path0_fill" fill-rule="evenodd" d="M 61.6421 35.3138L 61.6421 0L 34.3579 0L 34.3579 35.3136C 14.4937 41.1913 0 59.5768 0 81.3474C 0 107.857 21.4902 129.347 47.9995 129.347C 74.5093 129.347 96 107.857 96 81.3474C 96 59.5771 81.5063 41.1918 61.6421 35.3138Z"/>
<path id="path1_fill" fill-rule="evenodd" d="M 49.6001 5.05261C 49.6001 7.84314 47.3379 10.1052 44.5479 10.1052C 41.7568 10.1052 39.4946 7.84314 39.4946 5.05261C 39.4946 2.26208 41.7568 0 44.5479 0C 47.3379 0 49.6001 2.26208 49.6001 5.05261ZM 61.7261 13.6421C 61.7261 15.0374 60.5952 16.1684 59.1997 16.1684C 57.8047 16.1684 56.6738 15.0374 56.6738 13.6421C 56.6738 12.2468 57.8047 11.1158 59.1997 11.1158C 60.5952 11.1158 61.7261 12.2468 61.7261 13.6421ZM 40 69.4631C 58.3623 69.4631 73.8345 57.0904 78.5352 40.2272C 76.7695 32.9133 70.1821 27.48 62.3262 27.48C 59.9238 27.48 57.6401 27.988 55.5767 28.9026C 53.1777 22.6378 47.1084 18.1895 40 18.1895C 35.1768 18.1895 30.8315 20.2375 27.7871 23.5115C 24.6914 19.8912 20.0562 17.591 14.875 17.591C 8.54297 17.591 3.02539 21.0262 0.138672 26.108C 0.046875 27.2142 0 28.3332 0 29.4631C 0 51.5544 17.9082 69.4631 40 69.4631Z"/>
</defs>
</svg>
