<svg width="144" height="144" viewBox="0 0 144 144" version="1.1" xmlns="http://www.w3.org/2000/svg" xmlns:xlink="http://www.w3.org/1999/xlink" xmlns:figma="http://www.figma.com/figma/ns">
<title>asking</title>
<desc>Created using Figma</desc>
<g id="Canvas" transform="translate(-3681 -470)" figma:type="canvas">
<mask id="mask0_alpha" mask-type="alpha">
<path d="M 3681 470L 3825 470L 3825 614L 3681 614L 3681 470Z" fill="#FFFFFF"/>
</mask>
<g id="asking" style="mix-blend-mode:normal;" mask="url(#mask0_alpha)" figma:type="frame">
<g id="Vector 3 (Stroke)" style="mix-blend-mode:normal;" opacity="0.2" figma:type="vector">
<use xlink:href="#path0_fill" transform="translate(3710.42 510.39)" fill="#FFF5D6" style="mix-blend-mode:normal;"/>
</g>
<g id="?" style="mix-blend-mode:normal;" figma:type="vector">
<use xlink:href="#path1_fill" transform="translate(3748 525)" fill="#FFF5D6" style="mix-blend-mode:normal;"/>
</g>
</g>
</g>
<defs>
<path id="path0_fill" fill-rule="evenodd" d="M 55.7558 0.392295C 59.5106 0.863154 64.7051 1.83487 71.3446 3.64477C 79.9792 5.99967 84.4328 11.9124 86.7023 17.8131C 88.9376 23.6663 89.0814 29.5987 89.0815 32.1095C 89.0815 34.7849 88.5332 38.4009 85.2299 42.431C 81.9583 46.4222 76.0394 50.753 65.4567 55.0365C 48.7911 61.7821 29.9275 56.2516 21.8532 52.3605C 19.1506 55.5287 15.5219 57.4584 12.1749 58.4905C 8.58079 59.5859 5.0662 59.7761 2.99843 59.6061L 0 59.3562L 2.55148 57.7615C 8.27962 54.1815 10.9698 49.068 11.9426 46.3592C 10.9618 45.2881 8.75133 42.7202 6.68476 39.5985C 4.24408 35.9062 1.80948 31.1562 2.08369 27.043C 2.61133 19.1284 7.87945 10.3243 19.6828 5.19247C 29.0328 1.12724 42.751 0.118758 48.5025 0.109602C 49.6836 -0.0683107 52.0981 -0.0659355 55.7558 0.392295ZM 55.5072 2.37678C 51.8054 1.91302 49.5981 1.95389 48.7459 2.09593L 48.6642 2.10954L 48.5815 2.10954C 42.9522 2.10954 29.4871 3.11055 20.4802 7.02661C 9.2835 11.8947 4.55162 20.0907 4.07926 27.1761C 3.85348 30.5629 5.91888 34.8129 8.3532 38.4956C 10.7452 42.1198 13.3045 44.9187 13.7886 45.4024L 14.2164 45.8303L 14.036 46.4078C 13.2777 48.8343 11.0409 53.655 6.20082 57.6038C 7.7987 57.4824 9.65687 57.1759 11.588 56.5786C 14.9702 55.5455 18.3322 53.749 20.7871 50.5021L 21.2938 49.8395L 22.0366 50.2191C 29.4198 53.9927 48.294 59.8256 64.7063 53.1826C 75.1235 48.9661 80.7046 44.7968 83.6831 41.1631C 86.6297 37.5682 87.0815 34.4342 87.0815 32.1095C 87.0815 29.6204 86.9753 24.0528 84.8356 18.531C 82.7301 13.0566 78.6837 7.7194 70.8184 5.5743C 64.2578 3.78421 59.2023 2.83926 55.5072 2.37678Z"/>
<path id="path1_fill" d="M 0 8.14286L 4.15848 8.14286C 4.33929 5.44898 6.12723 3.7551 8.89955 3.7551C 11.6518 3.7551 13.4397 5.44898 13.4397 7.7551C 13.4397 9.85714 12.5759 11.0408 10.1451 12.5306C 7.39286 14.2041 6.16741 16.0408 6.26786 18.9184L 6.28795 20.551L 10.4464 20.551L 10.4464 19.3061C 10.4464 17.2041 11.1897 16.1224 13.7812 14.5714C 16.433 12.9592 18 10.7347 18 7.57143C 18 3.20408 14.4241 0 9.12054 0C 3.29464 0 0.180804 3.5102 0 8.14286ZM 8.39732 30C 9.90402 30 11.0491 28.8571 11.0491 27.3673C 11.0491 25.8776 9.90402 24.7347 8.39732 24.7347C 6.9308 24.7347 5.76562 25.8776 5.76562 27.3673C 5.76562 28.8571 6.9308 30 8.39732 30Z"/>
</defs>
</svg>
