<svg width="144" height="144" viewBox="0 0 144 144" version="1.1" xmlns="http://www.w3.org/2000/svg" xmlns:xlink="http://www.w3.org/1999/xlink" xmlns:figma="http://www.figma.com/figma/ns">
<title>availability</title>
<desc>Created using Figma</desc>
<g id="Canvas" transform="translate(-3403 -22)" figma:type="canvas">
<mask id="mask0_alpha" mask-type="alpha">
<path d="M 3403 22L 3547 22L 3547 166L 3403 166L 3403 22Z" fill="#FFFFFF"/>
</mask>
<g id="availability" style="mix-blend-mode:normal;" mask="url(#mask0_alpha)" figma:type="frame">
<g id="Fill 112" style="mix-blend-mode:normal;" figma:type="vector">
<use xlink:href="#path0_fill" transform="translate(3505.01 80.8115)" fill="#FFF5D6" style="mix-blend-mode:normal;"/>
</g>
<g id="Fill 114" style="mix-blend-mode:normal;" figma:type="vector">
<use xlink:href="#path1_fill" transform="translate(3428.5 62.1084)" fill="#FFF5D6" style="mix-blend-mode:normal;"/>
</g>
<g id="Fill 117" style="mix-blend-mode:normal;" figma:type="vector">
<use xlink:href="#path2_fill" transform="translate(3462.15 108.837)" fill="#FFF5D6" style="mix-blend-mode:normal;"/>
</g>
<g id="Fill 125" style="mix-blend-mode:normal;" opacity="0.2" figma:type="vector">
<use xlink:href="#path3_fill" transform="translate(3486.06 58.5558)" fill="#FFF5D6" style="mix-blend-mode:normal;"/>
</g>
<g id="Fill 127" style="mix-blend-mode:normal;" opacity="0.2" figma:type="vector">
<use xlink:href="#path4_fill" transform="translate(3461.33 79.1629)" fill="#FFF5D6" style="mix-blend-mode:normal;"/>
</g>
<g id="Fill 129" style="mix-blend-mode:normal;" opacity="0.2" figma:type="vector">
<use xlink:href="#path5_fill" transform="translate(3441.54 106.364)" fill="#FFF5D6" style="mix-blend-mode:normal;"/>
</g>
<g id="Fill 137" style="mix-blend-mode:normal;" opacity="0.2" figma:type="vector">
<use xlink:href="#path6_fill" transform="translate(3500.07 99.77)" fill="#FFF5D6" style="mix-blend-mode:normal;"/>
</g>
<g id="Fill 139" style="mix-blend-mode:normal;" opacity="0.2" figma:type="vector">
<use xlink:href="#path7_fill" transform="translate(3434.13 86.5814)" fill="#FFF5D6" style="mix-blend-mode:normal;"/>
</g>
<g id="Fill 141" style="mix-blend-mode:normal;" opacity="0.2" figma:type="vector">
<use xlink:href="#path8_fill" transform="translate(3461.33 56.0829)" fill="#FFF5D6" style="mix-blend-mode:normal;"/>
</g>
</g>
</g>
<defs>
<path id="path0_fill" fill-rule="evenodd" d="M 15.1936 2.3429L 9.89201 2.3429L 9.89051 2.34737L 8.26918 2.33545C 8.78655 1.98675 8.98579 1.30872 8.7092 0.731422C 8.40341 0.0930299 7.63263 -0.179077 6.98795 0.123728L 3.52196 1.7519C 3.52196 1.7519 0 3.21704 0 6.93265C 0 10.8855 2.49445 11.54 3.91202 11.54L 8.62101 11.54C 9.49202 11.54 10.1984 10.8405 10.1984 9.97798C 10.1984 9.82538 10.1752 9.67875 10.134 9.53927C 10.7107 9.3068 11.1173 8.74739 11.1173 8.0929C 11.1173 7.86371 11.0661 7.64674 10.9767 7.45063C 11.4535 7.18181 11.7755 6.67515 11.7755 6.09308C 11.7755 5.61533 11.5585 5.18854 11.2172 4.90183L 15.1936 4.90183C 15.9072 4.90183 16.4857 4.32901 16.4857 3.62237C 16.4857 2.91572 15.9072 2.3429 15.1936 2.3429"/>
<path id="path1_fill" fill-rule="evenodd" d="M 24.6687 3.78956L 16.0609 3.78956L 16.0583 3.79685L 13.4262 3.7776C 14.2659 3.21351 14.5897 2.11683 14.1406 1.1829C 13.6439 0.150393 12.3926 -0.289737 11.3459 0.200268L 5.7185 2.83376C 5.7185 2.83376 0 5.20328 0 11.2134C 0 17.6068 4.04975 18.6653 6.35152 18.6653L 13.9972 18.6653C 15.4117 18.6653 16.5582 17.5342 16.5582 16.1389C 16.5582 15.8924 16.5207 15.6547 16.4539 15.4295C 17.39 15.0536 18.0505 14.1485 18.0505 13.0897C 18.0505 12.719 17.9674 12.3682 17.8219 12.0508C 18.596 11.6162 19.119 10.7966 19.119 9.85542C 19.119 9.08249 18.7666 8.39211 18.2125 7.92864L 18.2125 7.92864L 24.6687 7.92864C 25.8274 7.92864 26.7665 7.00201 26.7665 5.85925C 26.7665 4.71619 25.8274 3.78956 24.6687 3.78956"/>
<path id="path2_fill" fill-rule="evenodd" d="M 29.6275 4.6859L 19.2894 4.6859L 19.2865 4.69496L 16.1251 4.67111C 17.1336 3.97376 17.5224 2.6174 16.9829 1.46269C 16.3867 0.186027 14.8839 -0.358269 13.6266 0.247611L 6.86813 3.50403C 6.86813 3.50403 0 6.43411 0 13.8656C 0 21.7713 4.8639 23.08 7.62845 23.08L 16.8108 23.08C 18.5095 23.08 19.8866 21.6813 19.8866 19.9561C 19.8866 19.6512 19.8417 19.3574 19.7614 19.0788C 20.8856 18.6139 21.6789 17.4948 21.6789 16.1859C 21.6789 15.7276 21.5793 15.2935 21.4045 14.9013C 22.3343 14.364 22.9623 13.3506 22.9623 12.1862C 22.9623 11.231 22.5388 10.377 21.8736 9.80403L 21.8736 9.80403L 29.6275 9.80403C 31.0191 9.80403 32.1471 8.65839 32.1471 7.24497C 32.1471 5.83155 31.0191 4.6859 29.6275 4.6859"/>
<path id="path3_fill" fill-rule="evenodd" d="M 23.5501 3.68171L 15.3328 3.68171L 15.3302 3.68882L 12.8173 3.67015C 13.6189 3.12208 13.928 2.05677 13.4993 1.14945C 13.0254 0.146085 11.8309 -0.281344 10.8315 0.1944L 5.45943 2.75304C 5.45943 2.75304 0 5.05559 0 10.8943C 0 17.1063 3.86627 18.1343 6.0635 18.1343L 13.3623 18.1343C 14.7125 18.1343 15.8073 17.0354 15.8073 15.6799C 15.8073 15.4402 15.7715 15.2095 15.7078 14.9905C 16.6015 14.6253 17.2321 13.7458 17.2321 12.7176C 17.2321 12.3574 17.1527 12.0163 17.0137 11.708C 17.7527 11.2859 18.2522 10.4897 18.2522 9.57501C 18.2522 8.82449 17.9156 8.15341 17.3868 7.70316L 23.5501 7.70316C 24.6561 7.70316 25.5528 6.80295 25.5528 5.69258C 25.5528 4.58192 24.6561 3.68171 23.5501 3.68171"/>
<path id="path4_fill" fill-rule="evenodd" d="M 28.1081 4.35126L 18.3002 4.35126L 18.2973 4.35944L 15.298 4.33724C 16.2548 3.68964 16.6236 2.43039 16.112 1.35837C 15.546 0.172433 14.1203 -0.332613 12.9279 0.229977L 6.51596 3.25353C 6.51596 3.25353 0 5.97447 0 12.8751C 0 20.2162 4.61451 21.4314 7.23735 21.4314L 15.9486 21.4314C 17.5603 21.4314 18.8668 20.1324 18.8668 18.5305C 18.8668 18.2472 18.8239 17.9746 18.748 17.7161C 19.8144 17.2841 20.5669 16.2451 20.5669 15.03C 20.5669 14.6041 20.4726 14.201 20.3066 13.8367C 21.1887 13.3378 21.7846 12.3966 21.7846 11.3159C 21.7846 10.4288 21.3829 9.63569 20.7518 9.10377L 28.1081 9.10377C 29.4281 9.10377 30.4985 8.03964 30.4985 6.72751C 30.4985 5.4151 29.4281 4.35126 28.1081 4.35126"/>
<path id="path5_fill" fill-rule="evenodd" d="M 18.2324 2.84511L 11.8706 2.84511L 11.8686 2.85064L 9.92308 2.83608C 10.5439 2.41283 10.783 1.58931 10.4512 0.88805C 10.084 0.112853 9.15963 -0.217545 8.38572 0.150405L 4.22656 2.12726C 4.22656 2.12726 0 3.90646 0 8.41849C 0 13.2184 2.99337 14.0128 4.69456 14.0128L 10.3452 14.0128C 11.3904 14.0128 12.2378 13.1637 12.2378 12.1163C 12.2378 11.9312 12.2105 11.7527 12.1611 11.5836C 12.8525 11.3015 13.3409 10.6218 13.3409 9.82712C 13.3409 9.54883 13.2796 9.28538 13.1721 9.04727C 13.7441 8.72094 14.1308 8.10556 14.1308 7.39906C 14.1308 6.81861 13.8702 6.30046 13.4609 5.95259L 18.2324 5.95259C 19.0885 5.95259 19.7828 5.25687 19.7828 4.3987C 19.7828 3.54084 19.0885 2.84511 18.2324 2.84511"/>
<path id="path6_fill" fill-rule="evenodd" d="M 17.4726 2.67767L 11.376 2.67767L 11.3739 2.68289L 9.5098 2.66925C 10.1042 2.27066 10.3337 1.49582 10.0157 0.835664C 9.66379 0.106411 8.77733 -0.204799 8.03629 0.141538L 4.0503 2.00212C 4.0503 2.00212 0 3.67662 0 7.92324C 0 12.441 2.86825 13.1885 4.4987 13.1885L 9.91395 13.1885C 10.9158 13.1885 11.7279 12.3893 11.7279 11.4037C 11.7279 11.2293 11.7016 11.0615 11.6541 10.9024C 12.317 10.6367 12.7849 9.9972 12.7849 9.24936C 12.7849 8.98693 12.7261 8.73929 12.6232 8.51489C 13.1713 8.20803 13.5418 7.62887 13.5418 6.96377C 13.5418 6.4177 13.2922 5.92969 12.8999 5.60223L 17.4726 5.60223C 18.2933 5.60223 18.9585 4.94758 18.9585 4.13995C 18.9585 3.33231 18.2933 2.67767 17.4726 2.67767"/>
<path id="path7_fill" fill-rule="evenodd" d="M 18.9919 3.01225L 12.3652 3.01225L 12.3631 3.01827L 10.3366 3.00293C 10.9833 2.55449 11.2325 1.68257 10.8867 0.940282C 10.5043 0.119495 9.54084 -0.230294 8.73502 0.159196L 4.40265 2.25252C 4.40265 2.25252 0 4.13621 0 8.91386C 0 13.9962 3.11788 14.8371 4.89016 14.8371L 10.7763 14.8371C 11.865 14.8371 12.7479 13.9381 12.7479 12.8292C 12.7479 12.6331 12.719 12.4442 12.6676 12.2653C 13.3881 11.9663 13.8968 11.2469 13.8968 10.4053C 13.8968 10.1109 13.8328 9.83179 13.7208 9.57945C 14.3167 9.23417 14.7195 8.58271 14.7195 7.83411C 14.7195 7.21995 14.4481 6.67105 14.0217 6.30262L 18.9919 6.30262C 19.884 6.30262 20.6071 5.56604 20.6071 4.65773C 20.6071 3.74882 19.884 3.01225 18.9919 3.01225"/>
<path id="path8_fill" fill-rule="evenodd" d="M 20.5113 3.17986L 13.3543 3.17986L 13.3522 3.18602L 11.1637 3.16988C 11.8617 2.69662 12.1307 1.77622 11.7573 0.992638C 11.3445 0.126264 10.3043 -0.243068 9.43371 0.167953L 4.7549 2.37778C 4.7549 2.37778 0 4.36595 0 9.40889C 0 14.7733 3.36733 15.6614 5.28102 15.6614L 11.6382 15.6614C 12.814 15.6614 13.7678 14.7122 13.7678 13.5417C 13.7678 13.3347 13.7365 13.1354 13.6811 12.9466C 14.4593 12.631 15.0085 11.8715 15.0085 10.9834C 15.0085 10.6725 14.9392 10.3777 14.8185 10.1114C 15.462 9.74681 15.897 9.05923 15.897 8.26948C 15.897 7.62094 15.6039 7.0414 15.1432 6.6527L 20.5113 6.6527C 21.4747 6.6527 22.2557 5.87557 22.2557 4.91613C 22.2557 3.95698 21.4747 3.17986 20.5113 3.17986"/>
</defs>
</svg>
