<svg width="147" height="148" viewBox="0 0 147 148" version="1.1" xmlns="http://www.w3.org/2000/svg" xmlns:xlink="http://www.w3.org/1999/xlink" xmlns:figma="http://www.figma.com/figma/ns">
<title>Group 7</title>
<desc>Created using Figma</desc>
<g id="Canvas" transform="translate(-3400 460)" figma:type="canvas">
<g id="Group 7" style="mix-blend-mode:normal;" figma:type="frame">
<g id="Fill 13" style="mix-blend-mode:normal;" figma:type="vector">
<use xlink:href="#path0_fill" transform="translate(3494 -386)" fill="#EBE8E8" style="mix-blend-mode:normal;"/>
</g>
<g id="Fill 37" style="mix-blend-mode:normal;" figma:type="vector">
<use xlink:href="#path1_fill" transform="translate(3486 -460)" fill="#EBE8E8" style="mix-blend-mode:normal;"/>
</g>
<g id="Fill 38" style="mix-blend-mode:normal;" figma:type="vector">
<use xlink:href="#path2_fill" transform="translate(3486 -365)" fill="#EBE8E8" style="mix-blend-mode:normal;"/>
</g>
<g id="Fill 39" style="mix-blend-mode:normal;" figma:type="vector">
<use xlink:href="#path3_fill" transform="translate(3400 -386)" fill="#EBE8E8" style="mix-blend-mode:normal;"/>
</g>
<g id="Fill 40" style="mix-blend-mode:normal;" figma:type="vector">
<use xlink:href="#path4_fill" transform="translate(3462 -403)" fill="#EA5D44" style="mix-blend-mode:normal;"/>
</g>
<g id="Stroke 41 (Stroke)" style="mix-blend-mode:normal;" figma:type="vector">
<use xlink:href="#path5_fill" transform="translate(3460.36 -404.498)" fill="#C4C4C4" style="mix-blend-mode:normal;"/>
</g>
<g id="Fill 436" style="mix-blend-mode:normal;" figma:type="vector">
<use xlink:href="#path6_fill" transform="translate(3500 -369)" fill="#FEFEFE" style="mix-blend-mode:normal;"/>
</g>
<g id="Fill 437" style="mix-blend-mode:normal;" figma:type="vector">
<use xlink:href="#path7_fill" transform="translate(3471 -369)" fill="#FEFEFE" style="mix-blend-mode:normal;"/>
</g>
<g id="Fill 438" style="mix-blend-mode:normal;" figma:type="vector">
<use xlink:href="#path8_fill" transform="translate(3461 -386)" fill="#FEFEFE" style="mix-blend-mode:normal;"/>
</g>
<g id="Fill 435" style="mix-blend-mode:normal;" figma:type="vector">
<use xlink:href="#path9_fill" transform="translate(3504 -387)" fill="#FEFEFE" style="mix-blend-mode:normal;"/>
</g>
</g>
</g>
<defs>
<path id="path0_fill" fill-rule="evenodd" d="M 0 20L 53 20L 53 0L 0 0L 0 20Z"/>
<path id="path1_fill" fill-rule="evenodd" d="M 20 0L 0 4.31782L 0 76L 20 76L 20 0Z"/>
<path id="path2_fill" fill-rule="evenodd" d="M 0 53L 20 53L 20 0L 0 0L 0 53Z"/>
<path id="path3_fill" fill-rule="evenodd" d="M 0 20L 72 20L 72 0L 0 0L 0 20Z"/>
<path id="path4_fill" fill-rule="evenodd" d="M 61.0459 24.9738C 65.7207 20.7766 67 17.0708 67 17.0708L 57.1701 0.175708C 57.1701 0.175708 50.3785 -1.29721 40.6333 4.28603C 37.5935 6.02743 35.2778 7.87612 33.5304 9.59615C 31.8181 7.91514 29.5498 6.10964 26.5596 4.39658C 16.8148 -1.18666 9.82995 0.175708 9.82995 0.175708L 0 17.0708C 0 17.0708 1.19925 20.8003 5.95414 25.0262C 1.27977 29.2239 0 32.9292 0 32.9292L 9.82995 49.8243C 9.82995 49.8243 16.6215 51.2972 26.3667 45.714C 29.4065 43.9726 31.7222 42.1239 33.47 40.4043C 35.1819 42.0853 37.4507 43.8908 40.4404 45.6034C 50.1856 51.1867 57.1701 49.8243 57.1701 49.8243L 67 32.9292C 67 32.9292 65.8008 29.2002 61.0459 24.9738Z"/>
<path id="path5_fill" d="M 59.0006 0.182225C 59.0353 0.188531 59.0679 0.194801 59.0853 0.198261L 59.0006 0.182225L 58.7144 0.136281L 57.6953 0.0336666L 54.0299 0.144408C 55.5783 -0.0278886 56.8644 -0.0192953 57.6953 0.0336666C 58.1293 0.0621634 58.4909 0.10434 58.7144 0.136281C 58.835 0.153683 58.9396 0.171233 59.0006 0.182225Z"/>
<path id="path6_fill" fill-rule="evenodd" d="M 18.6184 17C 18.6184 17 18.6142 16.9746 18.6053 16.9258C 18.5968 16.8877 18.5842 16.8318 18.5673 16.759C 18.5265 16.6124 18.4627 16.3559 18.3384 16.0472C 18.2305 15.7333 18.0519 15.3579 17.8455 14.9299C 17.7311 14.719 17.6096 14.4944 17.4811 14.258C 17.3493 14.0227 17.1871 13.7868 17.0309 13.5336C 16.878 13.2775 16.6993 13.0224 16.5042 12.764C 16.3106 12.5051 16.1239 12.2274 15.9068 11.9592C 15.4589 11.4339 15.0152 10.8532 14.4787 10.3161C 14.218 10.0408 13.9525 9.76174 13.6838 9.47843C 13.3987 9.21062 13.1103 8.93953 12.819 8.66609C 12.2502 8.10369 11.6128 7.59768 10.9909 7.07194C 10.3789 6.53257 9.70642 6.06931 9.06908 5.58022C 8.43549 5.08407 7.77377 4.64948 7.13736 4.2224C 6.50002 3.79626 5.89364 3.3673 5.28397 3.01586C 4.6818 2.6508 4.11246 2.30547 3.58721 1.98693C 3.06711 1.65757 2.56202 1.40715 2.12634 1.16237C 1.68785 0.922284 1.30563 0.713208 0.99048 0.541249C 0.360174 0.19686 0 0 0 0C 0 0 0.370023 0.177127 1.01768 0.487218C 1.34174 0.642263 1.73522 0.830666 2.18637 1.04679C 2.63518 1.26855 3.15528 1.49266 3.6932 1.79383C 4.23674 2.08512 4.82578 2.40038 5.44905 2.73349C 6.08029 3.05439 6.712 3.45187 7.37607 3.84559C 8.03968 4.24166 8.73001 4.64384 9.39643 5.10991C 10.0666 5.56894 10.7724 6.00213 11.4224 6.51519C 12.0818 7.01509 12.7581 7.49526 13.3705 8.03839C 13.6833 8.30196 13.9933 8.56366 14.2996 8.82254C 14.5918 9.0988 14.8802 9.37178 15.1644 9.64005C 15.7454 10.1639 16.2407 10.7413 16.7359 11.2652C 16.9774 11.533 17.1908 11.8144 17.4089 12.0761C 17.6279 12.3369 17.8314 12.5967 18.0101 12.8608C 18.1916 13.1225 18.3769 13.3644 18.533 13.6111C 18.6864 13.8601 18.8313 14.0969 18.9678 14.3191C 19.2215 14.7786 19.44 15.1827 19.5868 15.5416C 19.7482 15.8926 19.8405 16.1811 19.9118 16.4024C 19.9433 16.5156 19.9672 16.6025 19.9831 16.6612C 19.9944 16.7096 20 16.7345 20 16.7345L 18.6184 17Z"/>
<path id="path7_fill" fill-rule="evenodd" d="M 0 16.7345C 0 16.7345 0.00562773 16.7096 0.0168832 16.6608C 0.0328284 16.6025 0.0567462 16.5156 0.0881677 16.4019C 0.159452 16.1811 0.251841 15.8926 0.413638 15.5412C 0.560428 15.1827 0.778971 14.7786 1.03269 14.3191C 1.16869 14.0964 1.31407 13.8601 1.46696 13.6106C 1.62313 13.3644 1.80838 13.122 1.98987 12.8608C 2.16855 12.5967 2.37209 12.3369 2.5911 12.0761C 2.80964 11.8144 3.02256 11.533 3.26408 11.2652C 3.75932 10.7413 4.25456 10.1639 4.83609 9.64005C 5.11982 9.37131 5.40824 9.0988 5.70042 8.82207C 6.00666 8.56366 6.31712 8.30196 6.62993 8.03792C 7.24195 7.49526 7.91821 7.01462 8.57806 6.51519C 9.22806 6.00166 9.93388 5.56847 10.604 5.10991C 11.27 4.64384 11.9608 4.24119 12.6239 3.84559C 13.2885 3.45187 13.9197 3.05392 14.551 2.73349C 15.1742 2.39991 15.7633 2.08512 16.3073 1.79383C 16.8447 1.49219 17.3648 1.26855 17.8136 1.04679C 18.2648 0.830666 18.6583 0.642263 18.9823 0.486748C 19.63 0.177127 20 0 20 0C 20 0 19.6398 0.19686 19.0095 0.541249C 18.6948 0.713208 18.3122 0.922284 17.8737 1.1619C 17.438 1.40715 16.9329 1.65757 16.4128 1.98693C 15.8875 2.30547 15.3182 2.65033 14.7165 3.01539C 14.1068 3.3673 13.5 3.79626 12.8626 4.22193C 12.2262 4.64948 11.5645 5.08407 10.9314 5.58022C 10.2936 6.06884 9.62107 6.53257 9.00952 7.07194C 8.38766 7.59768 7.74985 8.10369 7.18098 8.66609C 6.89021 8.93953 6.60132 9.21062 6.31618 9.47843C 6.04793 9.76127 5.78249 10.0408 5.52127 10.3161C 4.98523 10.8532 4.54111 11.4334 4.0937 11.9592C 3.8761 12.227 3.68944 12.5051 3.49576 12.764C 3.30066 13.0224 3.12198 13.2775 2.96909 13.5331C 2.81293 13.7863 2.65066 14.0227 2.51888 14.258C 2.39085 14.4944 2.26891 14.719 2.15495 14.9294C 1.9486 15.3579 1.76945 15.7329 1.66159 16.0472C 1.53731 16.3559 1.47353 16.6124 1.43319 16.7585C 1.41631 16.8318 1.40318 16.8877 1.39474 16.9253C 1.3863 16.9746 1.38161 17 1.38161 17L 0 16.7345Z"/>
<path id="path8_fill" fill-rule="evenodd" d="M 0 0.299773C 0 0.299773 0.0239273 0.292506 0.0708616 0.278425C 0.128379 0.263891 0.213505 0.242089 0.325319 0.213475C 0.547567 0.166692 0.837916 0.104466 1.21523 0.0704012C 1.59117 0.0204391 2.04118 0.00908403 2.55562 0C 2.811 0.00681302 3.08248 0.0145344 3.36915 0.0222559C 3.65489 0.0345193 3.95123 0.0726722 4.26182 0.0990159C 4.57333 0.121272 4.89359 0.166692 5.22259 0.224375C 5.55113 0.281151 5.8944 0.3243 6.23996 0.39788C 6.92695 0.56003 7.65996 0.697199 8.38928 0.931567C 8.75647 1.04012 9.12918 1.15049 9.5065 1.26223C 9.87645 1.3944 10.2505 1.52839 10.6274 1.66329C 11.388 1.91491 12.1275 2.25011 12.8743 2.5626C 13.6284 2.86011 14.3417 3.243 15.0595 3.58365C 15.7814 3.91749 16.4615 4.30265 17.1223 4.66828C 17.7821 5.03528 18.4286 5.3732 19.0102 5.74837C 19.5983 6.10992 20.1546 6.45193 20.6681 6.7676C 21.1872 7.07328 21.6321 7.40167 22.0403 7.67101C 22.4447 7.94534 22.7977 8.18471 23.088 8.38138C 23.6682 8.77517 24 9 24 9C 24 9 23.6563 8.79288 23.0553 8.43043C 22.7549 8.2492 22.3904 8.02937 21.9717 7.77729C 21.5507 7.5302 21.0905 7.2268 20.5558 6.94974C 20.0281 6.66268 19.4566 6.35201 18.8519 6.02316C 18.2547 5.68115 17.5935 5.37956 16.9198 5.05026C 16.2453 4.72279 15.5523 4.37759 14.8211 4.08554C 14.0936 3.78668 13.3708 3.44603 12.6134 3.19349C 11.8629 2.92551 11.1207 2.63482 10.3651 2.42907C 9.99057 2.31688 9.61877 2.2056 9.25204 2.09569C 8.88025 2.00712 8.51306 1.91945 8.15139 1.83316C 7.43311 1.64239 6.72311 1.55019 6.05775 1.42846C 5.72415 1.37578 5.39653 1.35352 5.08225 1.31582C 4.76705 1.27676 4.46336 1.24996 4.17117 1.24542C 3.8799 1.23634 3.59968 1.21453 3.33556 1.21726C 3.07236 1.22407 2.82204 1.23043 2.58737 1.23634C 2.12309 1.26995 1.71678 1.30129 1.39745 1.36215C 1.07489 1.40666 0.825952 1.47752 0.681928 1.51385C 0.611526 1.5352 0.55769 1.5511 0.521339 1.56245C 0.475785 1.5788 0.451858 1.58743 0.451858 1.58743L 0 0.299773Z"/>
<path id="path9_fill" fill-rule="evenodd" d="M 26.4917 1.76373C 26.4917 1.76373 26.4653 1.75414 26.4135 1.73597C 26.3731 1.72386 26.312 1.70569 26.2333 1.68197C 26.0713 1.6416 25.7908 1.56338 25.4279 1.51342C 25.0686 1.4458 24.612 1.41098 24.0897 1.37364C 23.8252 1.36708 23.5441 1.36001 23.2475 1.35295C 22.9504 1.34941 22.6356 1.37414 22.3074 1.38373C 21.9792 1.38878 21.6371 1.41855 21.283 1.46195C 20.9289 1.50384 20.5609 1.52856 20.185 1.58761C 19.437 1.72285 18.6378 1.82479 17.8297 2.03674C 17.4233 2.13262 17.0102 2.23002 16.592 2.32842C 16.1789 2.45055 15.7611 2.57418 15.3398 2.69883C 14.4892 2.92743 13.6548 3.2504 12.81 3.54814C 11.9579 3.82923 11.1447 4.20721 10.3268 4.53926C 9.50368 4.86375 8.72409 5.24727 7.9652 5.61163C 7.20735 5.97699 6.46348 6.31207 5.79207 6.69207C 5.11135 7.05743 4.46842 7.40311 3.87467 7.72154C 3.27367 8.02987 2.75601 8.36647 2.28184 8.641C 1.81128 8.92107 1.40078 9.16532 1.06327 9.36667C 0.38669 9.76938 0 10 0 10C 0 10 0.373231 9.7497 1.02652 9.31217C 1.35316 9.09366 1.74968 8.82771 2.2047 8.52291C 2.66387 8.22366 3.16444 7.8588 3.74888 7.51968C 4.32658 7.16895 4.95192 6.78896 5.614 6.38676C 6.2678 5.96992 6.99511 5.59497 7.73795 5.18672C 8.48131 4.78099 9.24589 4.35305 10.0581 3.98214C 10.8656 3.60315 11.6685 3.17774 12.5165 2.84719C 13.3571 2.5 14.1885 2.12757 15.0442 1.848C 15.4687 1.69812 15.8895 1.54925 16.3052 1.4024C 16.7302 1.27826 17.1495 1.15563 17.5621 1.03553C 18.3825 0.774627 19.2072 0.622729 19.98 0.442067C 20.3688 0.360315 20.755 0.312878 21.1251 0.249798C 21.4947 0.185204 21.855 0.13474 22.2055 0.110012C 22.5554 0.0812475 22.8888 0.0383528 23.2097 0.0247275C 23.5322 0.0161486 23.8381 0.00807428 24.1254 0C 24.7042 0.0100929 25.2099 0.0232136 25.6334 0.0787243C 26.0573 0.116572 26.384 0.185204 26.6345 0.237182C 26.7598 0.268975 26.8561 0.293197 26.9208 0.309346C 26.9731 0.32499 27 0.333064 27 0.333064L 26.4917 1.76373Z"/>
</defs>
</svg>
