<svg width="119" height="64" viewBox="0 0 119 64" version="1.1" xmlns="http://www.w3.org/2000/svg" xmlns:xlink="http://www.w3.org/1999/xlink" xmlns:figma="http://www.figma.com/figma/ns">
<title>Group 20</title>
<desc>Created using Figma</desc>
<g id="Canvas" transform="translate(-4247 -52)" figma:type="canvas">
<g id="Group 20" style="mix-blend-mode:normal;" figma:type="frame">
<g id="Group 146" style="mix-blend-mode:normal;" figma:type="frame">
<g id="Fill 144" style="mix-blend-mode:normal;" figma:type="vector">
<use xlink:href="#path0_fill" transform="translate(4339.23 52.0336)" fill="#EBE8E8" style="mix-blend-mode:normal;"/>
</g>
</g>
<g id="Fill 147" style="mix-blend-mode:normal;" figma:type="vector">
<use xlink:href="#path1_fill" transform="translate(4307 52)" fill="#EBE8E8" style="mix-blend-mode:normal;"/>
</g>
<g id="Fill 149" style="mix-blend-mode:normal;" figma:type="vector">
<use xlink:href="#path2_fill" transform="translate(4323 52)" fill="#EBE8E8" style="mix-blend-mode:normal;"/>
</g>
<g id="Fill 151" style="mix-blend-mode:normal;" figma:type="vector">
<use xlink:href="#path3_fill" transform="translate(4275 52)" fill="#EBE8E8" style="mix-blend-mode:normal;"/>
</g>
<g id="Fill 153" style="mix-blend-mode:normal;" figma:type="vector">
<use xlink:href="#path4_fill" transform="translate(4291 52)" fill="#EBE8E8" style="mix-blend-mode:normal;"/>
</g>
<g id="Group 157" style="mix-blend-mode:normal;" figma:type="frame">
<g id="Fill 155" style="mix-blend-mode:normal;" figma:type="vector">
<use xlink:href="#path5_fill" transform="translate(4272.01 57.1817)" fill="#EBE8E8" style="mix-blend-mode:normal;"/>
</g>
</g>
<g id="Fill 158" style="mix-blend-mode:normal;" figma:type="vector">
<use xlink:href="#path6_fill" transform="translate(4291 57)" fill="#EBE8E8" style="mix-blend-mode:normal;"/>
</g>
<g id="Fill 160" style="mix-blend-mode:normal;" figma:type="vector">
<use xlink:href="#path7_fill" transform="translate(4309 57)" fill="#EBE8E8" style="mix-blend-mode:normal;"/>
</g>
<g id="Fill 162" style="mix-blend-mode:normal;" figma:type="vector">
<use xlink:href="#path8_fill" transform="translate(4327 57)" fill="#EBE8E8" style="mix-blend-mode:normal;"/>
</g>
<g id="Group 166" style="mix-blend-mode:normal;" figma:type="frame">
<g id="Fill 164" style="mix-blend-mode:normal;" figma:type="vector">
<use xlink:href="#path9_fill" transform="translate(4269.06 63.1157)" fill="#EBE8E8" style="mix-blend-mode:normal;"/>
</g>
</g>
<g id="Fill 167" style="mix-blend-mode:normal;" figma:type="vector">
<use xlink:href="#path10_fill" transform="translate(4290 63)" fill="#EBE8E8" style="mix-blend-mode:normal;"/>
</g>
<g id="Fill 169" style="mix-blend-mode:normal;" figma:type="vector">
<use xlink:href="#path11_fill" transform="translate(4310 63)" fill="#EBE8E8" style="mix-blend-mode:normal;"/>
</g>
<g id="Group 173" style="mix-blend-mode:normal;" figma:type="frame">
<g id="Fill 171" style="mix-blend-mode:normal;" figma:type="vector">
<use xlink:href="#path12_fill" transform="translate(4331.02 63.1157)" fill="#EBE8E8" style="mix-blend-mode:normal;"/>
</g>
</g>
<g id="Group 176" style="mix-blend-mode:normal;" figma:type="frame">
<g id="Fill 174" style="mix-blend-mode:normal;" figma:type="vector">
<use xlink:href="#path13_fill" transform="translate(4264.01 71.027)" fill="#EBE8E8" style="mix-blend-mode:normal;"/>
</g>
</g>
<g id="Group 179" style="mix-blend-mode:normal;" figma:type="frame">
<g id="Fill 177" style="mix-blend-mode:normal;" figma:type="vector">
<use xlink:href="#path14_fill" transform="translate(4337.15 71.027)" fill="#EBE8E8" style="mix-blend-mode:normal;"/>
</g>
</g>
<g id="Fill 180" style="mix-blend-mode:normal;" figma:type="vector">
<use xlink:href="#path15_fill" transform="translate(4287 83)" fill="#EBE8E8" style="mix-blend-mode:normal;"/>
</g>
<g id="Group 184" style="mix-blend-mode:normal;" figma:type="frame">
<g id="Fill 182" style="mix-blend-mode:normal;" figma:type="vector">
<use xlink:href="#path16_fill" transform="translate(4345.08 83.1533)" fill="#EBE8E8" style="mix-blend-mode:normal;"/>
</g>
</g>
<g id="Group 187" style="mix-blend-mode:normal;" figma:type="frame">
<g id="Fill 185" style="mix-blend-mode:normal;" figma:type="vector">
<use xlink:href="#path17_fill" transform="translate(4257.22 83.1533)" fill="#EBE8E8" style="mix-blend-mode:normal;"/>
</g>
</g>
<g id="Group 190" style="mix-blend-mode:normal;" figma:type="frame">
<g id="Fill 188" style="mix-blend-mode:normal;" figma:type="vector">
<use xlink:href="#path18_fill" transform="translate(4284.08 100.007)" fill="#EBE8E8" style="mix-blend-mode:normal;"/>
</g>
</g>
<g id="Group 193" style="mix-blend-mode:normal;" figma:type="frame">
<g id="Fill 191" style="mix-blend-mode:normal;" figma:type="vector">
<use xlink:href="#path19_fill" transform="translate(4247 100.007)" fill="#EBE8E8" style="mix-blend-mode:normal;"/>
</g>
</g>
<g id="Group 196" style="mix-blend-mode:normal;" figma:type="frame">
<g id="Fill 194" style="mix-blend-mode:normal;" figma:type="vector">
<use xlink:href="#path20_fill" transform="translate(4321.03 100.007)" fill="#EBE8E8" style="mix-blend-mode:normal;"/>
</g>
</g>
<g id="Fill 197" style="mix-blend-mode:normal;" figma:type="vector">
<use xlink:href="#path21_fill" transform="translate(4313 71)" fill="#EA5D44" style="mix-blend-mode:normal;"/>
</g>
<g id="Fill 199" style="mix-blend-mode:normal;" figma:type="vector">
<use xlink:href="#path22_fill" transform="translate(4289 71)" fill="#EBE8E8" style="mix-blend-mode:normal;"/>
</g>
<g id="Fill 201" style="mix-blend-mode:normal;" figma:type="vector">
<use xlink:href="#path23_fill" transform="translate(4316 83)" fill="#EBE8E8" style="mix-blend-mode:normal;"/>
</g>
<g id="Fill 203" style="mix-blend-mode:normal;" figma:type="vector">
<use xlink:href="#path24_fill" transform="translate(4313 68)" fill="#EA5D44" style="mix-blend-mode:normal;"/>
</g>
<g id="Fill 205" style="mix-blend-mode:normal;" figma:type="vector">
<use xlink:href="#path21_fill" transform="translate(4313 65)" fill="#EA5D44" style="mix-blend-mode:normal;"/>
</g>
<g id="Stroke 207" style="mix-blend-mode:normal;" figma:type="vector">
<use xlink:href="#path25_stroke" transform="translate(4312 68)" fill="#FEFEFE" style="mix-blend-mode:normal;"/>
</g>
</g>
</g>
<defs>
<path id="path0_fill" fill-rule="evenodd" d="M 3.96138 0C 4.69477 0 5.44338 0.0362 6.17077 0.1016C 6.90092 0.1674 7.61261 0.263 8.268 0.3818C 8.92777 0.5016 9.53261 0.645 10.0431 0.8056C 10.5579 0.9676 10.9777 1.1474 11.2608 1.338C 11.5472 1.5308 11.667 1.7162 11.6363 1.8864C 11.6056 2.0582 11.4215 2.2142 11.1016 2.3464C 10.7795 2.4794 10.3207 2.5876 9.744 2.6628C 9.16523 2.7382 8.46992 2.7802 7.67931 2.7802C 6.88892 2.7802 6.08169 2.7382 5.30077 2.6628C 4.52308 2.5876 3.77469 2.4794 3.09692 2.3464C 2.42377 2.2142 1.82238 2.0582 1.33177 1.8864C 0.845768 1.7162 0.469614 1.5308 0.240691 1.338C 0.0140755 1.1474 -0.0470783 0.9676 0.0343832 0.8056C 0.115152 0.645 0.336229 0.5016 0.676152 0.3818C 1.01377 0.263 1.46954 0.1674 2.02384 0.1016C 2.57608 0.0362 3.228 0 3.96138 0Z"/>
<path id="path1_fill" fill-rule="evenodd" d="M 4.88553 0C 5.61218 0 6.32191 0.0390619 6.98499 0.109632C 7.65057 0.180634 8.27133 0.283793 8.81615 0.411985C 9.3644 0.541256 9.83717 0.695993 10.2013 0.86929C 10.5684 1.0441 10.8257 1.23811 10.938 1.44378C 11.0515 1.65182 11.0064 1.85188 10.8255 2.03554C 10.643 2.22092 10.3223 2.38925 9.88864 2.5319C 9.45177 2.67542 8.90123 2.79217 8.26332 2.87332C 7.62313 2.95468 6.89716 3 6.114 3C 5.3304 3 4.56714 2.95468 3.86016 2.87332C 3.15592 2.79217 2.50954 2.67542 1.95534 2.5319C 1.40503 2.38925 0.946672 2.22092 0.612506 2.03554C 0.281085 1.85188 0.0722598 1.65182 0.0155363 1.44378C -0.0407298 1.23811 0.0576215 1.0441 0.281542 0.86929C 0.503633 0.695993 0.849464 0.541256 1.29204 0.411985C 1.73165 0.283793 2.26778 0.180634 2.87527 0.109632C 3.48071 0.0390619 4.15864 0 4.88553 0Z"/>
<path id="path2_fill" fill-rule="evenodd" d="M 4.29392 0C 5.00748 0 5.72014 0.0390619 6.39957 0.109632C 7.08147 0.180634 7.73238 0.283793 8.31841 0.411985C 8.9087 0.541256 9.43478 0.695993 9.86183 0.86929C 10.2925 1.0441 10.623 1.23811 10.8159 1.44378C 11.0108 1.65182 11.0469 1.85188 10.9434 2.03554C 10.8388 2.22092 10.592 2.38925 10.2236 2.5319C 9.8524 2.67542 9.35888 2.79217 8.76545 2.87332C 8.16955 2.95468 7.47462 3 6.70561 3C 5.93659 3 5.16914 2.95468 4.44234 2.87332C 3.71822 2.79217 3.03677 2.67542 2.43503 2.5319C 1.83755 2.38925 1.32001 2.22092 0.917426 2.03554C 0.518211 1.85188 0.232832 1.65182 0.0933985 1.44378C -0.0444634 1.23811 -0.0258273 1.0441 0.12371 0.86929C 0.2719 0.695993 0.549196 0.541256 0.931796 0.411985C 1.31193 0.283793 1.79691 0.180634 2.36475 0.109632C 2.93034 0.0390619 3.58036 0 4.29392 0Z"/>
<path id="path3_fill" fill-rule="evenodd" d="M 6.11447 0C 6.84136 0 7.51929 0.0390619 8.12473 0.109632C 8.73222 0.180634 9.26835 0.283793 9.70796 0.411985C 10.1505 0.541256 10.4964 0.695993 10.7185 0.86929C 10.9424 1.0441 11.0407 1.23811 10.9845 1.44378C 10.9277 1.65182 10.7189 1.85188 10.3875 2.03554C 10.0533 2.22092 9.59497 2.38925 9.04466 2.5319C 8.49046 2.67542 7.84408 2.79217 7.13984 2.87332C 6.43286 2.95468 5.6696 3 4.886 3C 4.10284 3 3.37687 2.95468 2.73668 2.87332C 2.09876 2.79217 1.54823 2.67542 1.11136 2.5319C 0.677703 2.38925 0.357032 2.22092 0.17451 2.03554C -0.00641075 1.85188 -0.0514694 1.65182 0.0619777 1.44378C 0.174281 1.23811 0.431596 1.0441 0.798698 0.86929C 1.16283 0.695993 1.6356 0.541256 2.18385 0.411985C 2.72867 0.283793 3.34943 0.180634 4.01501 0.109632C 4.67809 0.0390619 5.38782 0 6.11447 0Z"/>
<path id="path4_fill" fill-rule="evenodd" d="M 5.49931 0C 6.23074 0 6.92903 0.0390619 7.56747 0.109632C 8.20799 0.180634 8.79028 0.283793 9.2858 0.411985C 9.78455 0.541256 10.1965 0.695993 10.4913 0.86929C 10.7889 1.0441 10.9678 1.23811 10.9961 1.44378C 11.0246 1.65182 10.8967 1.85188 10.6389 2.03554C 10.3788 2.22092 9.98708 2.38925 9.49156 2.5319C 8.99282 2.67542 8.3905 2.79217 7.71523 2.87332C 7.03697 2.95468 6.28759 3 5.49931 3C 4.71127 3 3.96211 2.95468 3.28408 2.87332C 2.60904 2.79217 2.00673 2.67542 1.50821 2.5319C 1.01292 2.38925 0.620972 2.22092 0.360898 2.03554C 0.103125 1.85188 -0.02461 1.65182 0.00392909 1.44378C 0.0320079 1.23811 0.211068 1.0441 0.508656 0.86929C 0.803483 0.695993 1.21546 0.541256 1.71397 0.411985C 2.20926 0.283793 2.79155 0.180634 3.43184 0.109632C 4.07006 0.0390619 4.76811 0 5.49931 0Z"/>
<path id="path5_fill" fill-rule="evenodd" d="M 6.66545 0C 7.44305 0 8.16633 0.0477895 8.81062 0.134737C 9.45753 0.221684 10.0272 0.348421 10.4926 0.506105C 10.9615 0.665053 11.326 0.855579 11.5575 1.06926C 11.7912 1.28505 11.8896 1.52484 11.8217 1.77916C 11.753 2.03684 11.5207 2.28505 11.1569 2.51326C 10.7895 2.74379 10.2888 2.95347 9.68924 3.13095C 9.08509 3.31011 8.38233 3.456 7.61804 3.55726C 6.85025 3.65916 6.02378 3.71558 5.17767 3.71558C 4.332 3.71558 3.55091 3.65916 2.86473 3.55726C 2.18182 3.456 1.59578 3.31011 1.13476 3.13095C 0.677455 2.95347 0.344509 2.74379 0.161673 2.51326C -0.0194181 2.28505 -0.0530181 2.03684 0.0844365 1.77916C 0.220146 1.52484 0.510764 1.28505 0.917236 1.06926C 1.32 0.855579 1.83731 0.665053 2.4336 0.506105C 3.02531 0.348421 3.69644 0.221684 4.41295 0.134737C 5.12684 0.0477895 5.88829 0 6.66545 0Z"/>
<path id="path6_fill" fill-rule="evenodd" d="M 5.99925 0C 6.79343 0 7.55173 0.0514477 8.24542 0.145051C 8.942 0.238654 9.57574 0.375092 10.1157 0.544847C 10.6598 0.715961 11.1102 0.921072 11.4342 1.15111C 11.7613 1.38342 11.9598 1.64157 11.9946 1.91535C 12.0296 2.19276 11.8937 2.45997 11.6156 2.70565C 11.3343 2.95382 10.9085 3.17956 10.3686 3.37062C 9.82464 3.56349 9.16617 3.72055 8.42703 3.82957C 7.68454 3.93926 6.8634 4 5.99925 4C 5.13555 4 4.31463 3.93926 3.57237 3.82957C 2.83323 3.72055 2.1752 3.56349 1.63104 3.37062C 1.09133 3.17956 0.665498 2.95382 0.384505 2.70565C 0.106185 2.45997 -0.0297436 2.19276 0.00546415 1.91535C 0.0402262 1.64157 0.238771 1.38342 0.565891 1.15111C 0.889669 0.921072 1.34002 0.715961 1.88418 0.544847C 2.4241 0.375092 3.05762 0.238654 3.75398 0.145051C 4.44721 0.0514477 5.20552 0 5.99925 0Z"/>
<path id="path7_fill" fill-rule="evenodd" d="M 5.24606 0C 6.03354 0 6.8051 0.0514477 7.52847 0.145051C 8.25449 0.238654 8.93453 0.375092 9.53409 0.544847C 10.1383 0.715961 10.6625 0.921072 11.0706 1.15111C 11.4827 1.38342 11.7769 1.64157 11.9144 1.91535C 12.0537 2.19276 12.0197 2.45997 11.8362 2.70565C 11.6509 2.95382 11.3136 3.17956 10.8502 3.37062C 10.383 3.56349 9.78922 3.72055 9.09724 3.82957C 8.40195 3.93926 7.61049 4 6.75359 4C 5.89625 4 5.05881 3.93926 4.28083 3.82957C 3.5064 3.72055 2.7943 3.56349 2.18214 3.37062C 1.57462 3.17956 1.06724 2.95382 0.694946 2.70565C 0.326409 2.45997 0.0909605 2.19276 0.0213209 1.91535C -0.0474345 1.64157 0.0522718 1.38342 0.289047 1.15111C 0.52361 0.921072 0.893032 0.715961 1.36813 0.544847C 1.83969 0.375092 2.41692 0.238654 3.07242 0.145051C 3.72526 0.0514477 4.45814 0 5.24606 0Z"/>
<path id="path8_fill" fill-rule="evenodd" d="M 4.5271 0C 5.2969 0 6.06995 0.0514477 6.81081 0.145051C 7.55491 0.238654 8.26942 0.375092 8.91784 0.544847C 9.57079 0.715961 10.1585 0.921072 10.6417 1.15111C 11.1296 1.38342 11.5121 1.64157 11.7474 1.91535C 11.9856 2.19276 12.0508 2.45997 11.9621 2.70565C 11.8726 2.95382 11.6262 3.17956 11.2439 3.37062C 10.8585 3.56349 10.3363 3.72055 9.70038 3.82957C 9.06147 3.93926 8.31046 4 7.47283 4C 6.6352 4 5.79434 3.93926 4.99408 3.82957C 4.19727 3.72055 3.44367 3.56349 2.77473 3.37062C 2.11076 3.17956 1.5319 2.95382 1.0768 2.70565C 0.626233 2.45997 0.297921 2.19276 0.127717 1.91535C -0.0403265 1.64157 -0.0379506 1.38342 0.107846 1.15111C 0.252346 0.921072 0.537675 0.715961 0.938993 0.544847C 1.33729 0.375092 1.85092 0.238654 2.45679 0.145051C 3.06006 0.0514477 3.75729 0 4.5271 0Z"/>
<path id="path9_fill" fill-rule="evenodd" d="M 7.91739 0C 8.81895 0 9.65451 0.06125 10.3967 0.1725C 11.1423 0.284375 11.7965 0.447083 12.3289 0.649792C 12.8658 0.853958 13.2805 1.09958 13.5396 1.37542C 13.8018 1.65417 13.9056 1.96437 13.8149 2.29417C 13.7232 2.62854 13.4405 2.95104 13.005 3.24813C 12.5641 3.54875 11.9676 3.8225 11.2563 4.05479C 10.5387 4.28917 9.70628 4.48042 8.80406 4.61333C 7.89717 4.74708 6.92339 4.82125 5.93051 4.82125C 4.93806 4.82125 4.02584 4.74708 3.22895 4.61333C 2.43628 4.48042 1.76162 4.28917 1.23695 4.05479C 0.71695 3.8225 0.346061 3.54875 0.15295 3.24813C -0.0379385 2.95104 -0.0548274 2.62854 0.128728 2.29417C 0.310062 1.96437 0.669617 1.65417 1.16184 1.37542C 1.64828 1.09958 2.26562 0.853958 2.97095 0.649792C 3.67051 0.447083 4.45895 0.284375 5.29651 0.1725C 6.13028 0.06125 7.01628 0 7.91739 0Z"/>
<path id="path10_fill" fill-rule="evenodd" d="M 6.99921 0C 7.92023 0 8.79971 0.0635209 9.60495 0.178896C 10.4138 0.294918 11.151 0.463659 11.7803 0.673883C 12.415 0.885619 12.9424 1.14035 13.3233 1.42641C 13.7088 1.7155 13.9456 2.0372 13.9917 2.37922C 14.0387 2.726 13.8856 3.06045 13.5655 3.36855C 13.2416 3.68032 12.7474 3.96422 12.1183 4.20512C 11.4833 4.44819 10.7135 4.64653 9.84741 4.78437C 8.97701 4.92308 8.01353 5 6.99921 5C 5.98533 5 5.02208 4.92308 4.15191 4.78437C 3.28606 4.64653 2.51623 4.44819 1.88171 4.20512C 1.25263 3.96422 0.758411 3.68032 0.434453 3.36855C 0.114354 3.06045 -0.0386579 2.726 0.00833532 2.37922C 0.0546475 2.0372 0.29143 1.7155 0.676684 1.42641C 1.05762 1.14035 1.58499 0.885619 2.21952 0.673883C 2.84882 0.463659 3.58572 0.294918 4.39437 0.178896C 5.19939 0.0635209 6.07864 0 6.99921 0Z"/>
<path id="path11_fill" fill-rule="evenodd" d="M 5.9952 0C 6.90626 0 7.80204 0.0635209 8.64502 0.178896C 9.49182 0.294918 10.289 0.463659 10.9963 0.673883C 11.7094 0.885619 12.3335 1.14035 12.8253 1.42641C 13.323 1.7155 13.6865 2.0372 13.8699 2.37922C 14.0554 2.726 14.0384 3.06045 13.8454 3.36855C 13.6501 3.68032 13.2751 3.96422 12.7494 4.20512C 12.2189 4.44819 11.5368 4.64653 10.7354 4.78437C 9.92972 4.92308 9.00742 5 8.00402 5C 7.00017 5 6.01564 4.92308 5.09874 4.78437C 4.18656 4.64653 3.34493 4.44819 2.61945 4.20512C 1.90026 3.96422 1.29723 3.68032 0.851477 3.36855C 0.411113 3.06045 0.125325 2.726 0.0325343 2.37922C -0.0591333 2.0372 0.0457902 1.7155 0.310907 1.42641C 0.572879 1.14035 0.992123 0.885619 1.53494 0.673883C 2.07326 0.463659 2.73471 0.294918 3.48849 0.178896C 4.23891 0.0635209 5.08369 0 5.9952 0Z"/>
<path id="path12_fill" fill-rule="evenodd" d="M 5.34616 0C 6.28239 0 7.22878 0.06125 8.14239 0.1725C 9.06016 0.284375 9.94862 0.447083 10.7614 0.649792C 11.5813 0.853958 12.3274 1.09958 12.9505 1.37542C 13.5807 1.65417 14.0868 1.96437 14.4161 2.29417C 14.7498 2.62854 14.8705 2.95104 14.7996 3.24813C 14.7279 3.54875 14.4599 3.8225 14.0194 4.05479C 13.5749 4.28917 12.9562 4.48042 12.1899 4.61333C 11.4195 4.74708 10.5039 4.82125 9.47278 4.82125C 8.4417 4.82125 7.39885 4.74708 6.39962 4.61333C 5.4057 4.48042 4.45955 4.28917 3.61401 4.05479C 2.77585 3.8225 2.03947 3.54875 1.45285 3.24813C 0.873393 2.95104 0.441854 2.62854 0.203469 2.29417C -0.0316844 1.96437 -0.0568383 1.65417 0.0961617 1.37542C 0.247316 1.09958 0.572931 0.853958 1.04301 0.649792C 1.50916 0.447083 2.11885 0.284375 2.84532 0.1725C 3.56832 0.06125 4.40993 0 5.34616 0Z"/>
<path id="path13_fill" fill-rule="evenodd" d="M 9.81139 0C 10.8927 0 11.8907 0.086625 12.7733 0.244125C 13.6607 0.4025 14.4361 0.633062 15.063 0.9205C 15.6964 1.21078 16.1809 1.56034 16.4775 1.95322C 16.7777 2.35156 16.8855 2.79541 16.7575 3.26856C 16.6275 3.74916 16.2668 4.214 15.7212 4.64297C 15.168 5.07784 14.4262 5.47466 13.5461 5.81197C 12.6568 6.15256 11.6297 6.43103 10.5203 6.62484C 9.40431 6.81997 8.21087 6.92825 7.00019 6.92825C 5.7902 6.92825 4.68497 6.81997 3.72723 6.62484C 2.77546 6.43103 1.97416 6.15256 1.36101 5.81197C 0.754528 5.47466 0.334582 5.07784 0.134258 4.64297C -0.0635394 4.214 -0.0472286 3.74916 0.212825 3.26856C 0.468744 2.79541 0.936934 2.35156 1.56065 1.95322C 2.1761 1.56034 2.94454 1.21078 3.81361 0.9205C 4.67395 0.633062 5.63628 0.4025 6.65215 0.244125C 7.6625 0.086625 8.73051 0 9.81139 0Z"/>
<path id="path14_fill" fill-rule="evenodd" d="M 5.70921 0C 6.74841 0 7.80882 0.086625 8.8414 0.244125C 9.87951 0.4025 10.8942 0.633062 11.833 0.9205C 12.7812 1.21078 13.6559 1.56034 14.4004 1.95322C 15.1548 2.35156 15.7778 2.79541 16.2084 3.26856C 16.6455 3.74916 16.8427 4.214 16.8201 4.64297C 16.7972 5.07784 16.5486 5.47466 16.0973 5.81197C 15.641 6.15256 14.9797 6.43103 14.1403 6.62484C 13.2958 6.81997 12.2758 6.92825 11.1123 6.92825C 9.94883 6.92825 8.75971 6.81997 7.611 6.62484C 6.46935 6.43103 5.37384 6.15256 4.38608 5.81197C 3.40891 5.47466 2.54125 5.07784 1.84005 4.64297C 1.14835 4.214 0.620466 3.74916 0.308063 3.26856C 0.00073871 2.79541 -0.0688067 2.35156 0.0645439 1.95322C 0.196128 1.56034 0.525752 1.21078 1.02118 0.9205C 1.51153 0.633062 2.16658 0.4025 2.95786 0.244125C 3.74471 0.086625 4.67 0 5.70921 0Z"/>
<path id="path15_fill" fill-rule="evenodd" d="M 9.99885 0C 11.2886 0 12.5219 0.122254 13.6536 0.344573C 14.7923 0.568414 15.8347 0.894714 16.7305 1.30215C 17.6366 1.7146 18.3969 2.21209 18.9553 2.77268C 19.5228 3.3424 19.8838 3.97933 19.9765 4.66021C 20.0709 5.35393 19.8783 6.02719 19.442 6.65021C 18.9986 7.28366 18.3048 7.86339 17.41 8.35719C 16.5036 8.8573 15.3952 9.26691 14.1416 9.55232C 12.8788 9.84011 11.4766 10 9.99862 10C 8.52136 10 7.11981 9.84011 5.85724 9.55232C 4.6041 9.26691 3.49593 8.8573 2.58979 8.35719C 1.69515 7.86339 1.00139 7.28366 0.557987 6.65021C 0.121713 6.02719 -0.0708821 5.35393 0.0234598 4.66021C 0.116421 3.97933 0.477221 3.3424 1.04465 2.77268C 1.60311 2.21209 2.36314 1.7146 3.26928 1.30215C 4.16484 0.894714 5.20697 0.568414 6.34552 0.344573C 7.4767 0.122254 8.70959 0 9.99885 0Z"/>
<path id="path16_fill" fill-rule="evenodd" d="M 6.45343 0C 7.69243 0 8.97321 0.131532 10.2345 0.370723C 11.504 0.611553 12.7614 0.962617 13.9416 1.40098C 15.1357 1.84472 16.2565 2.37998 17.2328 2.98311C 18.2249 3.59606 19.0718 4.28134 19.6956 5.01389C 20.3311 5.76026 20.6746 6.48462 20.7451 7.15491C 20.8165 7.83645 20.6057 8.46017 20.1339 8.99145C 19.6562 9.52951 18.9135 9.97021 17.9336 10.2773C 16.9464 10.5869 15.725 10.7589 14.3054 10.7589C 12.8856 10.7589 11.413 10.5869 9.97436 10.2773C 8.54591 9.97021 7.16013 9.52951 5.89682 8.99145C 4.64986 8.46017 3.52846 7.83645 2.60534 7.15491C 1.69726 6.48462 0.983703 5.76026 0.529661 5.01389C 0.0842396 4.28134 -0.069392 3.59606 0.0280922 2.98311C 0.12425 2.37998 0.463787 1.84472 1.01023 1.40098C 1.55048 0.962617 2.29521 0.611553 3.21346 0.370723C 4.12574 0.131532 5.21443 0 6.45343 0Z"/>
<path id="path17_fill" fill-rule="evenodd" d="M 11.8315 0C 13.077 0 14.2197 0.131532 15.2246 0.370723C 16.2359 0.611553 17.1135 0.962617 17.8175 1.40098C 18.5295 1.84472 19.0672 2.37998 19.385 2.98311C 19.7079 3.59606 19.805 4.28134 19.6257 5.01389C 19.4432 5.76026 18.9915 6.48462 18.3246 7.15491C 17.6466 7.83645 16.7479 8.46017 15.6892 8.99145C 14.6168 9.52951 13.3852 9.97021 12.0619 10.2773C 10.729 10.5869 9.31191 10.7589 7.88458 10.7589C 6.45791 10.7589 5.16747 10.5869 4.06169 10.2773C 2.96413 9.97021 2.05569 9.52951 1.37769 8.99145C 0.708579 8.46017 0.267468 7.83645 0.0892459 7.15491C -0.0860875 6.48462 -0.00653189 5.76026 0.358579 5.01389C 0.716801 4.28134 1.3168 3.59606 2.08969 2.98311C 2.85013 2.37998 3.78058 1.84472 4.81858 1.40098C 5.84413 0.962617 6.97947 0.611553 8.16725 0.370723C 9.34747 0.131532 10.5864 0 11.8315 0Z"/>
<path id="path18_fill" fill-rule="evenodd" d="M 12.422 0C 13.9966 0 15.5034 0.188274 16.8889 0.531069C 18.2852 0.876493 19.5682 1.38126 20.6766 2.01337C 21.8014 2.65468 22.7527 3.43079 23.4611 4.30882C 24.1839 5.20438 24.6566 6.20975 24.8009 7.28964C 24.9486 8.3954 24.7379 9.47332 24.22 10.4756C 23.6911 11.4992 22.8436 12.4399 21.7373 13.2441C 20.6125 14.0616 19.2268 14.7332 17.6514 15.2024C 16.0609 15.6763 14.2902 15.9402 12.4218 15.9402C 10.5541 15.9402 8.78408 15.6763 7.19431 15.2024C 5.61908 14.7332 4.23385 14.0616 3.10931 13.2441C 2.00317 12.4399 1.15567 11.4992 0.626809 10.4756C 0.109082 9.47332 -0.1016 8.3954 0.046127 7.28964C 0.190218 6.20975 0.663172 5.20438 1.38567 4.30882C 2.09408 3.43079 3.04544 2.65468 4.16999 2.01337C 5.27817 1.38126 6.5609 0.876493 7.95681 0.531069C 9.34181 0.188274 10.8482 0 12.422 0Z"/>
<path id="path19_fill" fill-rule="evenodd" d="M 15.5964 0C 17.1291 0 18.5225 0.188274 19.7371 0.531069C 20.9614 0.876493 22.0132 1.38126 22.8453 2.01337C 23.6895 2.65468 24.3127 3.43079 24.6596 4.30882C 25.0136 5.20438 25.0816 6.20975 24.8008 7.28964C 24.5134 8.3954 23.8882 9.47332 22.9933 10.4756C 22.0796 11.4992 20.8882 12.4399 19.4977 13.2441C 18.0844 14.0616 16.4743 14.7332 14.7579 15.2024C 13.0251 15.6763 11.1988 15.9402 9.38 15.9402C 7.56186 15.9402 5.94173 15.6763 4.5789 15.2024C 3.22867 14.7332 2.14217 14.0616 1.36606 13.2441C 0.603011 12.4399 0.144825 11.4992 0.0291172 10.4756C -0.0841572 9.47332 0.13133 8.3954 0.706108 7.28964C 1.26761 6.20975 2.12005 5.20438 3.1727 4.30882C 4.20478 3.43079 5.43332 2.65468 6.77823 2.01337C 8.10345 1.38126 9.54903 0.876493 11.0426 0.531069C 12.5245 0.188274 14.0643 0 15.5964 0Z"/>
<path id="path20_fill" fill-rule="evenodd" d="M 9.66787 0C 11.2473 0 12.8346 0.188274 14.3622 0.531069C 15.9019 0.876493 17.3922 1.38126 18.7583 2.01337C 20.1447 2.65468 21.4112 3.43079 22.4752 4.30882C 23.5603 5.20438 24.4391 6.20975 25.0179 7.28964C 25.6104 8.3954 25.8326 9.47332 25.7158 10.4756C 25.5965 11.4992 25.1242 12.4399 24.3376 13.2441C 23.5377 14.0616 22.4175 14.7332 21.0255 15.2024C 19.6206 15.6763 17.9505 15.9402 16.0762 15.9402C 14.2012 15.9402 12.3185 15.6763 10.5323 15.2024C 8.76289 14.7332 7.10299 14.0616 5.64608 13.2441C 4.21266 12.4399 2.9845 11.4992 2.04257 10.4756C 1.12003 9.47332 0.475504 8.3954 0.17924 7.28964C -0.110181 6.20975 -0.0401631 5.20438 0.324749 4.30882C 0.682363 3.43079 1.32484 2.65468 2.19515 2.01337C 3.05292 1.38126 4.13717 0.876493 5.39931 0.531069C 6.65142 0.188274 8.0878 0 9.66787 0Z"/>
<path id="path21_fill" fill-rule="evenodd" d="M 6.66165 0C 7.69042 0 8.70694 0.0875221 9.66858 0.246653C 10.6355 0.406668 11.5514 0.639619 12.3703 0.930033C 13.1974 1.22332 13.9288 1.5765 14.5146 1.97345C 15.1082 2.37592 15.5539 2.82436 15.7974 3.30241C 16.045 3.78798 16.0605 4.25764 15.8722 4.69105C 15.6815 5.13043 15.2819 5.53135 14.7046 5.87216C 14.121 6.21628 13.3584 6.49763 12.4525 6.69345C 11.5409 6.8906 10.489 7 9.33732 7C 8.18501 7 7.04911 6.8906 5.98689 6.69345C 4.93101 6.49763 3.95341 6.21628 3.107 5.87216C 2.26934 5.53135 1.56331 5.13043 1.03679 4.69105C 0.517487 4.25764 0.174201 3.78798 0.0504429 3.30241C -0.0713471 2.82436 0.0312014 2.37592 0.316982 1.97345C 0.599263 1.5765 1.0604 1.22332 1.66323 0.930033C 2.25994 0.639619 2.99789 0.406668 3.84255 0.246653C 4.68262 0.0875221 5.63245 0 6.66165 0Z"/>
<path id="path22_fill" fill-rule="evenodd" d="M 7.99901 0C 9.04292 0 10.0405 0.0875221 10.9544 0.246653C 11.8732 0.406668 12.7122 0.639619 13.4304 0.930033C 14.1558 1.22332 14.7608 1.5765 15.201 1.97345C 15.647 2.37592 15.9251 2.82436 15.987 3.30241C 16.0498 3.78798 15.8834 4.25764 15.5246 4.69105C 15.1607 5.13043 14.5998 5.53135 13.8819 5.87216C 13.1565 6.21628 12.2738 6.49763 11.2787 6.69345C 10.2773 6.8906 9.16778 7 7.99879 7C 6.83068 7 5.72135 6.8906 4.72046 6.69345C 3.72557 6.49763 2.84289 6.21628 2.11768 5.87216C 1.4 5.53135 0.839126 5.13043 0.47541 4.69105C 0.116351 4.25764 -0.0497606 3.78798 0.0130026 3.30241C 0.0746568 2.82436 0.352766 2.37592 0.798984 1.97345C 1.23921 1.5765 1.844 1.22332 2.56922 0.930033C 3.28733 0.639619 4.1261 0.406668 5.0447 0.246653C 5.95843 0.0875221 6.95554 0 7.99901 0Z"/>
<path id="path23_fill" fill-rule="evenodd" d="M 7.99735 0C 9.26047 0 10.5173 0.122254 11.7146 0.344573C 12.9195 0.568414 14.0713 0.894714 15.1117 1.30215C 16.1647 1.7146 17.1086 2.21209 17.8801 2.77268C 18.6641 3.3424 19.2728 3.97933 19.6362 4.66021C 20.0066 5.35393 20.0873 6.02719 19.9095 6.65021C 19.7287 7.28366 19.2812 7.86339 18.6024 8.35719C 17.9146 8.8573 16.993 9.26691 15.8795 9.55232C 14.7578 9.84011 13.4486 10 12.0013 10C 10.5534 10 9.11574 9.84011 7.76357 9.55232C 6.42109 9.26691 5.17171 8.8573 4.08375 8.35719C 3.00977 7.86339 2.0981 7.28366 1.41029 6.65021C 0.73375 6.02719 0.275436 5.35393 0.0903516 4.66021C -0.0915764 3.97933 0.00693977 3.3424 0.3345 2.77268C 0.656876 2.21209 1.20243 1.7146 1.92474 1.30215C 2.63892 0.894714 3.52917 0.568414 4.55514 0.344573C 5.57457 0.122254 6.73377 0 7.99735 0Z"/>
<path id="path24_fill" fill-rule="evenodd" d="M 16 1.28795L 16 8L 0.00240519 6.63302L 0 0L 16 1.28795Z"/>
<path id="path25_stroke" d="M 1.4184 1.87263L 0.364962 3.27004L 0.365045 3.27011L 1.4184 1.87263ZM 3.52992 2.96085L 2.92615 4.6034L 2.9268 4.60364L 3.52992 2.96085ZM 6.46781 3.71756L 6.75714 1.99164L 6.75693 1.99161L 6.46781 3.71756ZM 13.0629 3.71756L 12.7276 1.99998L 12.7273 2.00004L 13.0629 3.71756ZM 15.3602 2.96085L 16.1831 4.50531L 16.1834 4.50514L 15.3602 2.96085ZM -1.74348 -0.121197C -1.82213 1.0117 -1.1885 1.84497 -0.794474 2.27155C -0.379904 2.70848 0.109292 3.07726 0.364962 3.27004L 2.47183 0.47521C 2.16965 0.247412 1.94271 0.0766117 1.77658 -0.103249C 1.68783 -0.196007 1.68885 -0.233972 1.69792 -0.197589C 1.71162 -0.169566 1.76025 -0.0536034 1.74811 0.121197L -1.74348 -0.121197ZM 0.365045 3.27011C 1.02604 3.76023 1.97316 4.24965 2.92615 4.6034L 4.13369 1.3183C 3.37819 1.04404 2.88492 0.794671 2.47175 0.475147L 0.365045 3.27011ZM 2.9268 4.60364C 3.87121 4.94814 5.02569 5.24864 6.17869 5.44351L 6.75693 1.99161C 5.7558 1.82564 4.91586 1.60768 4.13304 1.31806L 2.9268 4.60364ZM 6.17848 5.44347C 7.33065 5.63523 8.63389 5.74835 9.88523 5.75L 9.88523 2.25C 8.78573 2.25165 7.77203 2.16317 6.75714 1.99164L 6.17848 5.44347ZM 9.88523 5.75C 11.1421 5.74808 12.3832 5.63126 13.3985 5.43508L 12.7273 2.00004C 11.8833 2.16714 10.9783 2.25192 9.88523 2.25L 9.88523 5.75ZM 13.3982 5.43514C 14.4323 5.22957 15.4556 4.88593 16.1831 4.50531L 14.5373 1.4164C 14.0746 1.66989 13.542 1.84471 12.7276 1.99998L 13.3982 5.43514ZM 16.1834 4.50514C 16.7094 4.22474 17.2871 3.73897 17.739 3.20298C 18.1528 2.71211 18.75 1.84099 18.75 0.775238L 15.25 0.775238C 15.25 0.646049 15.2858 0.604859 15.2536 0.671042C 15.2244 0.730829 15.164 0.827253 15.063 0.946998C 14.951 1.08308 14.872 1.15912 14.7409 1.26737C 14.68 1.31894 14.6528 1.33983 14.6 1.37603C 14.5538 1.40895 14.5129 1.4284 14.537 1.41657L 16.1834 4.50514Z"/>
</defs>
</svg>
