<svg width="145" height="144" viewBox="0 0 145 144" version="1.1" xmlns="http://www.w3.org/2000/svg" xmlns:xlink="http://www.w3.org/1999/xlink" xmlns:figma="http://www.figma.com/figma/ns">
<title>hyperbolic_discounting</title>
<desc>Created using Figma</desc>
<g id="Canvas" transform="translate(-3683 -685)" figma:type="canvas">
<mask id="mask0_alpha" mask-type="alpha">
<path d="M 3683.98 685L 3827.98 685L 3827.98 829L 3683.98 829L 3683.98 685Z" fill="#FFFFFF"/>
</mask>
<g id="hyperbolic_discounting" style="mix-blend-mode:normal;" mask="url(#mask0_alpha)" figma:type="frame">
<g id="Group" style="mix-blend-mode:normal;" figma:type="frame">
<g id="Subtract" style="mix-blend-mode:normal;" opacity="0.2" figma:type="vector-operation">
<use xlink:href="#path0_fill" transform="translate(3709 715)" fill="#FFF5D6" style="mix-blend-mode:normal;"/>
</g>
<g id="Vector" style="mix-blend-mode:normal;" figma:type="vector">
<use xlink:href="#path1_fill" transform="translate(3729.11 755.816)" fill="#FFF5D6" style="mix-blend-mode:normal;"/>
</g>
</g>
</g>
</g>
<defs>
<path id="path0_fill" fill-rule="evenodd" d="M 76.2477 0.322754L 0.266265 82.8658C -0.323822 83.5067 0.131011 84.543 1.00211 84.543L 63.049 84.543C 63.4687 84.543 63.8437 84.2811 63.9879 83.8871L 94.2299 1.34399C 94.4689 0.691467 93.986 0 93.2909 0L 76.9836 0C 76.7038 0 76.4372 0.117065 76.2477 0.322754ZM 73.0893 21.2497L 70.8112 21.2497L 78.6913 9.6568L 80.5211 9.6568L 73.0893 21.2497ZM 41.383 68.7337L 37.3495 68.6619L 59.5329 37.7955L 62.4086 37.7955L 41.383 68.7337Z"/>
<path id="path1_fill" d="M 19.4567 25.419L 19.4567 2C 19.4567 0.895431 18.5613 0 17.4567 0L 9.81905 0C 8.71448 0 7.81905 0.895431 7.81905 2L 7.81905 25.419L 2.36539 25.419C 1.48149 25.419 1.03222 26.4817 1.64807 27.1158L 12.9215 38.7221C 13.3139 39.1261 13.9623 39.1265 14.3552 38.7231L 25.6587 27.1167C 26.2759 26.483 25.8269 25.419 24.9423 25.419L 19.4567 25.419Z"/>
</defs>
</svg>
