<svg width="144" height="144" viewBox="0 0 144 144" version="1.1" xmlns="http://www.w3.org/2000/svg" xmlns:xlink="http://www.w3.org/1999/xlink" xmlns:figma="http://www.figma.com/figma/ns">
<title>Loss_aversion</title>
<desc>Created using Figma</desc>
<g id="Canvas" transform="translate(-3403 -237)" figma:type="canvas">
<mask id="mask0_alpha" mask-type="alpha">
<path d="M 3403 237L 3547 237L 3547 381L 3403 381L 3403 237Z" fill="#FFFFFF"/>
</mask>
<g id="Loss_aversion" style="mix-blend-mode:normal;" mask="url(#mask0_alpha)" figma:type="frame">
<g id="Group" style="mix-blend-mode:normal;" figma:type="frame">
<g id="Fill 223" style="mix-blend-mode:normal;" figma:type="vector">
<use xlink:href="#path0_fill" transform="translate(3477.84 319.214)" fill="#FFF5D6" style="mix-blend-mode:normal;"/>
</g>
<g id="Group 238" style="mix-blend-mode:normal;" figma:type="frame">
<g id="Fill 234" style="mix-blend-mode:normal;" figma:type="vector">
<use xlink:href="#path1_fill" transform="translate(3467.64 325.793)" fill="#FFF5D6" style="mix-blend-mode:normal;"/>
</g>
<g id="Fill 236" style="mix-blend-mode:normal;" figma:type="vector">
<use xlink:href="#path2_fill" transform="translate(3467 324.828)" fill="#FFF5D6" style="mix-blend-mode:normal;"/>
</g>
</g>
<g id="Group 243" style="mix-blend-mode:normal;" figma:type="frame">
<g id="Fill 239" style="mix-blend-mode:normal;" figma:type="vector">
<use xlink:href="#path3_fill" transform="translate(3475.13 341.267)" fill="#FFF5D6" style="mix-blend-mode:normal;"/>
</g>
<g id="Fill 241" style="mix-blend-mode:normal;" figma:type="vector">
<use xlink:href="#path4_fill" transform="translate(3474.34 341.936)" fill="#FFF5D6" style="mix-blend-mode:normal;"/>
</g>
</g>
<g id="Group 297" style="mix-blend-mode:normal;" figma:type="frame">
<g id="Fill 293" style="mix-blend-mode:normal;" figma:type="vector">
<use xlink:href="#path5_fill" transform="translate(3465.32 352.07)" fill="#FFF5D6" style="mix-blend-mode:normal;"/>
</g>
<g id="Fill 295" style="mix-blend-mode:normal;" figma:type="vector">
<use xlink:href="#path6_fill" transform="translate(3465.32 352.53)" fill="#FFF5D6" style="mix-blend-mode:normal;"/>
</g>
</g>
<g id="Fill 298" style="mix-blend-mode:normal;" figma:type="vector">
<use xlink:href="#path7_fill" transform="translate(3486.94 337.406)" fill="#FFF5D6" style="mix-blend-mode:normal;"/>
</g>
<g id="Fill 300" style="mix-blend-mode:normal;" figma:type="vector">
<use xlink:href="#path8_fill" transform="translate(3488.76 337.406)" fill="#FFF5D6" style="mix-blend-mode:normal;"/>
</g>
<g id="Fill 302" style="mix-blend-mode:normal;" figma:type="vector">
<use xlink:href="#path9_fill" transform="translate(3481.48 337.406)" fill="#FFF5D6" style="mix-blend-mode:normal;"/>
</g>
<g id="Fill 304" style="mix-blend-mode:normal;" figma:type="vector">
<use xlink:href="#path10_fill" transform="translate(3479.66 337.406)" fill="#FFF5D6" style="mix-blend-mode:normal;"/>
</g>
<g id="Fill 306" style="mix-blend-mode:normal;" figma:type="vector">
<use xlink:href="#path11_fill" transform="translate(3483.3 337.406)" fill="#FFF5D6" style="mix-blend-mode:normal;"/>
</g>
<g id="Stroke 308" style="mix-blend-mode:normal;" figma:type="vector">
<use xlink:href="#path12_fill" transform="translate(3465.11 317.395)" fill="#FFF5D6" style="mix-blend-mode:normal;"/>
<use xlink:href="#path13_stroke" transform="translate(3465.11 317.395)" fill="#FEFEFE" style="mix-blend-mode:normal;"/>
</g>
<g id="Fill 420" style="mix-blend-mode:normal;" figma:type="vector">
<use xlink:href="#path14_fill" transform="translate(3466.93 319.214)" fill="#FFF5D6" style="mix-blend-mode:normal;"/>
</g>
<g id="Fill 421" style="mix-blend-mode:normal;" figma:type="vector">
<use xlink:href="#path15_fill" transform="translate(3465.11 319.214)" fill="#FFF5D6" style="mix-blend-mode:normal;"/>
</g>
<g id="Fill 422" style="mix-blend-mode:normal;" figma:type="vector">
<use xlink:href="#path16_fill" transform="translate(3466.93 319.214)" fill="#FFF5D6" style="mix-blend-mode:normal;"/>
</g>
<g id="Fill 423" style="mix-blend-mode:normal;" figma:type="vector">
<use xlink:href="#path17_fill" transform="translate(3465.11 319.214)" fill="#FFF5D6" style="mix-blend-mode:normal;"/>
</g>
<g id="Union" style="mix-blend-mode:normal;" opacity="0.2" figma:type="vector-operation">
<use xlink:href="#path18_fill" transform="translate(3436 261)" fill="#FFF5D6" style="mix-blend-mode:normal;"/>
</g>
</g>
</g>
</g>
<defs>
<path id="path0_fill" fill-rule="evenodd" d="M 0.53575 0C 0.35656 0.0236494 0.17919 0.0518468 0 0.0745866C 0.17919 0.0518468 0.35656 0.0236494 0.53575 0"/>
<path id="path1_fill" fill-rule="evenodd" d="M 10.4521 0L 11.2417 0.918968C 11.4613 1.17421 11.62 1.47312 11.7151 1.80603C 11.8106 2.1402 11.8415 2.50838 11.8061 2.90258C 11.7706 3.29804 11.6678 3.71869 11.4945 4.15572C 11.3212 4.59358 11.0775 5.04782 10.7609 5.50835C 10.2902 6.19348 9.70353 6.82698 9.04635 7.38449C 8.38917 7.94284 7.66241 8.42394 6.91245 8.80513C 6.1634 9.1859 5.39252 9.46592 4.64529 9.62293C 3.90033 9.7791 3.17993 9.8131 2.52912 9.70311C 2.34356 9.67205 2.16892 9.63006 2.0052 9.57759C 1.84147 9.52553 1.68866 9.46382 1.54676 9.39245C 1.40487 9.32108 1.27434 9.24048 1.15427 9.15148C 1.03421 9.06248 0.92551 8.9655 0.827729 8.86013L 0 7.97013C 0.0977812 8.07508 0.206023 8.17206 0.325634 8.26064C 0.4457 8.34922 0.576227 8.4294 0.718123 8.50035C 0.86002 8.5713 1.01283 8.63301 1.1761 8.68423C 1.33983 8.73586 1.51447 8.77743 1.70003 8.80849C 2.3513 8.91638 3.0726 8.88028 3.81847 8.72201C 4.56752 8.5629 5.34022 8.28037 6.09108 7.89792C 6.84332 7.51463 7.57236 7.03101 8.23272 6.47098C 8.89217 5.91137 9.48159 5.2762 9.95549 4.59022C 10.2738 4.12843 10.5194 3.67377 10.6945 3.23507C 10.8692 2.79763 10.9738 2.37697 11.0106 1.98151C 11.0475 1.58731 11.0174 1.21913 10.9228 0.885383C 10.8287 0.552892 10.6709 0.254826 10.4521 0"/>
<path id="path2_fill" fill-rule="evenodd" d="M 9.15517 0.0365868C 9.81098 0.11803 10.3454 0.330455 10.7492 0.645734C 11.1558 0.962692 11.4305 1.38418 11.5642 1.8804C 11.6988 2.37956 11.6916 2.9547 11.5324 3.57602C 11.3732 4.20028 11.0612 4.8703 10.5882 5.55543C 10.1148 6.24183 9.52537 6.87658 8.86546 7.43661C 8.20555 7.99664 7.47651 8.47984 6.72428 8.86313C 5.97296 9.246 5.20071 9.52811 4.45166 9.68722C 3.70534 9.84591 2.98449 9.88201 2.33322 9.7737C 1.68423 9.66623 1.16667 9.42568 0.785552 9.08479C 0.406252 8.74558 0.162026 8.30688 0.0578777 7.79891C -0.0458158 7.29345 -0.0107965 6.71957 0.167938 6.10707C 0.345764 5.49666 0.666395 4.84763 1.13529 4.18769C 1.60328 3.529 2.17586 2.92111 2.81076 2.38459C 3.44565 1.84849 4.14422 1.3825 4.86462 1.00845C 5.58638 0.633979 6.33179 0.351026 7.05901 0.181422C 7.78896 0.011398 8.50162 -0.0444369 9.15517 0.0365868"/>
<path id="path3_fill" fill-rule="evenodd" d="M 4.14582 0.490467C 4.80801 0.775939 5.46049 1.16342 6.07497 1.62018C 6.68823 2.0761 7.26512 2.6017 7.7753 3.16509C 8.28629 3.7289 8.73179 4.33132 9.08188 4.94005C 9.43359 5.55088 9.68989 6.16884 9.82047 6.76162C 9.95185 7.35691 9.94377 7.87076 9.81562 8.29015C 9.68666 8.71206 9.43682 9.03868 9.08511 9.25614C 8.73138 9.47486 8.27497 9.58359 7.73689 9.56764C 7.19599 9.55169 6.57262 9.41021 5.88901 9.12936C 5.20338 8.84808 4.52341 8.45304 3.88184 7.98075C 3.23906 7.50804 2.6363 6.95809 2.10591 6.36741C 1.57592 5.77758 1.11951 5.14828 0.767799 4.5152C 0.417303 3.88423 0.171915 3.25115 0.0627641 2.65166C -0.0463869 2.05427 -0.0100032 1.54713 0.147255 1.14159C 0.303705 0.738156 0.580221 0.435471 0.95376 0.243197C 1.32487 0.052183 1.7918 -0.0292605 2.3327 0.0093622C 2.87078 0.0475651 3.48202 0.204155 4.14582 0.490467"/>
<path id="path4_fill" fill-rule="evenodd" d="M 10.2534 8.26987L 9.43885 9.19976C 9.27755 9.38363 9.07663 9.53057 8.84054 9.63636C 8.60364 9.74299 8.33117 9.80848 8.02797 9.83031C 7.72356 9.85256 7.38802 9.83031 7.02621 9.76063C 6.66358 9.69094 6.27428 9.57423 5.86314 9.40672C 5.17832 9.12755 4.49956 8.73545 3.85961 8.26484C 3.21845 7.79423 2.61772 7.24595 2.08935 6.65696C 1.56138 6.06838 1.10739 5.43992 0.758107 4.80769C 0.410036 4.17713 0.167074 3.54405 0.0603482 2.94372C 0.0219432 2.72836 0.00213426 2.52433 0.00011294 2.33289C -0.00150411 2.14146 0.0142622 1.96262 0.0461989 1.79596C 0.07854 1.62971 0.127052 1.47648 0.190925 1.33626C 0.254799 1.19604 0.334034 1.06884 0.427015 0.955492L 1.21371 0C 1.12073 0.11251 1.0423 0.238873 0.979239 0.37867C 0.915769 0.518468 0.867662 0.671279 0.836534 0.837105C 0.805001 1.00293 0.790043 1.18177 0.792469 1.37278C 0.795299 1.5638 0.815512 1.76741 0.85513 1.98277C 0.964281 2.58226 1.20967 3.21534 1.56016 3.84632C 1.91147 4.47939 2.36829 5.10869 2.89828 5.69853C 3.42867 6.2892 4.03143 6.83915 4.6738 7.31186C 5.31577 7.78415 5.99574 8.17919 6.68137 8.46047C 7.09251 8.62965 7.48222 8.74804 7.84484 8.81941C 8.20706 8.88994 8.5422 8.91387 8.8462 8.8933C 9.1494 8.87272 9.42106 8.80849 9.65756 8.70312C 9.89284 8.59817 10.0929 8.45291 10.2534 8.26987"/>
<path id="path5_fill" fill-rule="evenodd" d="M 9.02357 0.0571123C 9.72971 -0.00155644 10.3225 -0.0138359 10.7908 0.0148162C 11.2615 0.0430136 11.6062 0.113052 11.8128 0.21811C 12.0202 0.323623 12.0876 0.465064 12.0005 0.636523C 11.913 0.80889 11.6694 1.01173 11.2558 1.23822C 10.8401 1.46607 10.2925 1.69574 9.65782 1.91677C 9.02069 2.13826 8.2973 2.34974 7.53407 2.53984C 6.7696 2.72995 5.96652 2.89822 5.17247 3.03284C 4.37925 3.16701 3.5963 3.26706 2.87126 3.32209C 2.14952 3.37667 1.5547 3.38122 1.0975 3.34256C 0.642762 3.3039 0.323994 3.22295 0.151465 3.10698C -0.0198322 2.99146 -0.0477655 2.84183 0.0775235 2.664C 0.201991 2.488 0.477216 2.28425 0.911825 2.06049C 1.34479 1.83764 1.89524 1.61524 2.51963 1.40331C 3.14156 1.19274 3.83866 0.992173 4.56821 0.812074C 5.29694 0.632429 6.05977 0.472796 6.81479 0.344089C 7.57063 0.214472 8.32072 0.115326 9.02357 0.0571123"/>
<path id="path6_fill" fill-rule="evenodd" d="M 12.0314 0C 12.1144 0.51301 12.1974 1.02557 12.2804 1.53858C 12.289 1.59133 12.28 1.64727 12.2533 1.7073C 12.2262 1.76734 12.1814 1.83055 12.1177 1.89741C 12.054 1.96426 11.9715 2.0343 11.87 2.10707C 11.7681 2.18029 11.6465 2.2567 11.5056 2.33583C 11.0912 2.56823 10.5448 2.80154 9.91139 3.0253C 9.27549 3.24952 8.55334 3.46282 7.79092 3.65383C 7.02728 3.84485 6.22543 4.01312 5.4322 4.14638C 4.63939 4.27963 3.85726 4.37787 3.13223 4.42971C 2.68118 4.46201 2.27985 4.47428 1.92986 4.46837C 1.58152 4.46246 1.28493 4.43881 1.04257 4.39879C 0.801439 4.35922 0.614122 4.30328 0.483082 4.23324C 0.352863 4.16366 0.278511 4.07998 0.26208 3.98401C 0.174583 3.47237 0.0874969 2.96027 0 2.44817C 0.0160206 2.54095 0.0899616 2.62145 0.219769 2.6883C 0.350398 2.75516 0.537305 2.80791 0.778435 2.8452C 1.02039 2.88204 1.31697 2.90342 1.66532 2.9066C 2.01489 2.91024 2.41664 2.89569 2.86809 2.86158C 3.59312 2.80655 4.37608 2.70649 5.1693 2.57233C 5.96335 2.43771 6.76602 2.26943 7.5309 2.07933C 8.29413 1.88922 9.01752 1.67774 9.65465 1.45626C 10.2893 1.23523 10.8369 1.00555 11.2526 0.777701C 11.3939 0.699931 11.5155 0.625345 11.6178 0.553942C 11.7197 0.482084 11.8026 0.413864 11.8667 0.348374C 11.9308 0.283338 11.976 0.221941 12.0031 0.163727C 12.0306 0.105513 12.0397 0.0509372 12.0314 0"/>
<path id="path7_fill" fill-rule="evenodd" d="M 0.603969 0C 0.402949 0.00909592 0.20102 0.0154631 0 0.0227398C 0.20102 0.0154631 0.402949 0.00909592 0.603969 0"/>
<path id="path8_fill" fill-rule="evenodd" d="M 0.745866 0C 0.497547 0.0227398 0.249228 0.0454796 0 0.0664002C 0.249228 0.0454796 0.497547 0.0227398 0.745866 0"/>
<path id="path9_fill" fill-rule="evenodd" d="M 0 0C 0.301907 0.0263782 0.606137 0.0463892 0.909592 0.069129C 0.606137 0.0463892 0.301907 0.0272878 0 0"/>
<path id="path10_fill" fill-rule="evenodd" d="M 0 0C 0.603092 0.0955072 1.20901 0.181009 1.81918 0.254686C 1.21043 0.180099 0.603799 0.0964168 0 0"/>
<path id="path11_fill" fill-rule="evenodd" d="M 0 0C 0.296527 0.0127343 0.593054 0.0254686 0.890491 0.0345645C 0.593054 0.024559 0.296527 0.0127343 0 0"/>
<path id="path12_fill" fill-rule="evenodd" d="M 16.3727 1.75577C 16.3727 1.75577 15.1328 0 8.20906 0C 1.28529 0 0 1.81918 0 1.81918"/>
<path id="path13_stroke" d="M 16.3727 1.75577C 17.8022 0.746318 17.8009 0.744475 17.7996 0.742628C 17.7991 0.742003 17.7978 0.74015 17.7969 0.738903C 17.796 0.737629 17.7933 0.733892 17.7915 0.731351C 17.7896 0.728706 17.784 0.721107 17.7802 0.715846C 17.776 0.710173 17.7642 0.694496 17.7556 0.683283C 17.7457 0.670457 17.7193 0.637325 17.6986 0.612355C 17.6723 0.581197 17.6077 0.508929 17.5509 0.450492C 17.4698 0.369361 17.2904 0.208735 17.1058 0.0703107C 16.8102 -0.1438 16.2292 -0.481768 15.4995 -0.761536C 14.0694 -1.29559 11.8062 -1.75 8.20906 -1.75L 8.20906 1.75C 11.5356 1.75 13.3543 2.17347 14.2751 2.5173C 14.7208 2.67648 14.8825 2.77745 15.0357 2.89255C 15.0755 2.91873 15.0747 2.92505 15.0609 2.91016C 15.0703 2.92059 15.0107 2.85431 15.0155 2.85975C 15.0254 2.87186 14.9773 2.812 14.9822 2.81818C 14.9882 2.82607 14.9603 2.78916 14.9633 2.79315C 14.9665 2.79756 14.9518 2.77733 14.9534 2.77955C 14.9551 2.78188 14.9475 2.77131 14.9483 2.77248C 14.9474 2.77128 14.9462 2.76947 14.9457 2.76887C 14.9444 2.76705 14.9431 2.76522 16.3727 1.75577ZM 8.20906 -1.75C 4.60551 -1.75 2.32658 -1.27815 0.881896 -0.724528C 0.146703 -0.435477 -0.438504 -0.0880394 -0.737213 0.132112C -0.922296 0.273034 -1.10083 0.434937 -1.18214 0.51718C -1.23851 0.57568 -1.3021 0.647277 -1.32823 0.678391C -1.34857 0.70304 -1.37432 0.735484 -1.38408 0.748129C -1.39245 0.759089 -1.40387 0.774334 -1.40797 0.779875C -1.41172 0.784987 -1.41708 0.792348 -1.41894 0.794916C -1.42071 0.797376 -1.4233 0.800989 -1.42418 0.802222C -1.42504 0.803428 -1.42631 0.805217 -1.42674 0.805821C -1.42801 0.807604 -1.42927 0.809382 0 1.81918C 1.42927 2.82899 1.42802 2.83075 1.42677 2.83251C 1.42636 2.83308 1.42512 2.83483 1.4243 2.83598C 1.4251 2.83486 1.4178 2.84503 1.41941 2.84279C 1.42095 2.84066 1.40678 2.86009 1.40988 2.85586C 1.41269 2.85206 1.38615 2.88732 1.39188 2.8798C 1.39635 2.87404 1.35124 2.93044 1.36048 2.91912C 1.3644 2.91465 1.31193 2.97361 1.31964 2.96485C 1.30362 2.9821 1.31164 2.96739 1.35523 2.93776C 1.51388 2.81682 1.68273 2.70946 2.13433 2.54371C 3.06324 2.18774 4.88883 1.75 8.20906 1.75L 8.20906 -1.75Z"/>
<path id="path14_fill" fill-rule="evenodd" d="M 0 0C 0.234675 0.0409317 0.46844 0.0864113 0.704024 0.125524C 0.46844 0.0864113 0.234675 0.0409317 0 0"/>
<path id="path15_fill" fill-rule="evenodd" d="M 0 0C 0.602767 0.131891 1.20972 0.251957 1.81918 0.367475C 1.21056 0.252867 0.603604 0.130981 0 0"/>
<path id="path16_fill" fill-rule="evenodd" d="M 0 0C 0.602434 0.152812 1.20843 0.292889 1.81918 0.413865C 1.20962 0.292889 0.603028 0.152812 0 0"/>
<path id="path17_fill" fill-rule="evenodd" d="M 0.38021 0.0782249C 0.255595 0.0536659 0.1328 0.0254686 0.00909592 0C 0.00636715 0.00272878 0.00272878 0.00454796 0 0.00727674C 0.125524 0.0336549 0.253776 0.0527564 0.38021 0.0782249"/>
<path id="path18_fill" fill-rule="evenodd" d="M 78.2249 25.0948C 77.1113 25.8381 76.2937 26.7322 75.6982 27.6808C 76.1987 28.5041 76.6104 29.5186 76.8811 30.7653C 78.2561 37.0959 75.1663 38.1152 74.533 38.255C 74.3354 38.2988 74.1387 38.3201 73.946 38.3201C 72.7034 38.3201 71.6096 37.4476 71.325 36.139C 71 34.6414 70.8325 31.3794 72.0588 28.1741C 71.3083 27.5781 70.4917 27.3574 69.8567 27.2848C 70.0369 28.4727 70.1399 29.6809 70.1399 30.91C 70.1399 44.1273 59.3948 55.209 44.9194 58.2139C 42.9546 56.5075 41.0261 56.4995 37.0322 56.4995C 33.041 56.4995 31.1946 56.4995 29.1489 58.2108C 17.5239 55.7974 8.30786 48.1772 5.12891 38.4201L 5.12891 38.4285L 0.789795 38.4285C 0.354004 38.4285 0 35.1824 0 31.1785C 0 27.1742 0.354004 23.9286 0.789795 23.9286L 4.95483 23.9286C 6.56714 18.5705 9.99341 13.8304 14.6438 10.2034L 14.6345 10.2079C 14.6345 10.2079 16.6609 3.9755 14.0288 0.683024C 14.0288 0.683024 22.6868 -2.30907 26.5701 4.23167L 26.542 4.24583C 29.8396 3.31056 33.3643 2.79646 37.0322 2.79646C 52.5842 2.79646 65.626 11.9046 69.178 24.1804C 70.2065 24.1799 71.9351 24.3635 73.5315 25.4107C 74.293 24.3436 75.2744 23.3504 76.531 22.512L 78.2249 25.0948ZM 10.4402 50.9372C 9.59961 52.0759 9.09595 53.4823 9.09595 55.0106C 9.09595 58.7888 12.1367 61.8523 15.8879 61.8523C 18.446 61.8523 20.6719 60.426 21.8303 58.3208C 17.4956 56.5385 13.616 54.0233 10.4402 50.9372ZM 52.7563 58.3714C 53.9346 60.4496 56.1377 61.8523 58.6677 61.8523C 62.4358 61.8523 65.4907 58.7478 65.4907 54.919C 65.4907 53.4359 65.0283 52.0645 64.2483 50.9372C 61.0537 54.0366 57.1504 56.579 52.7563 58.3714Z"/>
</defs>
</svg>
