<svg width="144" height="144" viewBox="0 0 144 144" version="1.1" xmlns="http://www.w3.org/2000/svg" xmlns:xlink="http://www.w3.org/1999/xlink" xmlns:figma="http://www.figma.com/figma/ns">
<title>post_completion</title>
<desc>Created using Figma</desc>
<g id="Canvas" transform="translate(-3403 211)" figma:type="canvas">
<mask id="mask0_alpha" mask-type="alpha">
<path d="M 3403 -211L 3547 -211L 3547 -67L 3403 -67L 3403 -211Z" fill="#FFFFFF"/>
</mask>
<g id="post_completion" style="mix-blend-mode:normal;" mask="url(#mask0_alpha)" figma:type="frame">
<g id="Fill 48" style="mix-blend-mode:normal;" figma:type="vector">
<use xlink:href="#path0_fill" transform="translate(3426 -153)" fill="#FFF5D6" fill-opacity="0.2" style="mix-blend-mode:normal;"/>
</g>
<g id="Fill 49" style="mix-blend-mode:normal;" figma:type="vector">
<use xlink:href="#path1_fill" transform="translate(3445 -153)" fill="#FFF5D6" fill-opacity="0.2" style="mix-blend-mode:normal;"/>
</g>
<g id="Fill 50" style="mix-blend-mode:normal;" figma:type="vector">
<use xlink:href="#path2_fill" transform="translate(3505 -153)" fill="#FFF5D6" style="mix-blend-mode:normal;"/>
</g>
<g id="Fill 51" style="mix-blend-mode:normal;" figma:type="vector">
<use xlink:href="#path1_fill" transform="translate(3485 -153)" fill="#FFF5D6" fill-opacity="0.2" style="mix-blend-mode:normal;"/>
</g>
<g id="Fill 52" style="mix-blend-mode:normal;" figma:type="vector">
<use xlink:href="#path1_fill" transform="translate(3465 -153)" fill="#FFF5D6" fill-opacity="0.2" style="mix-blend-mode:normal;"/>
</g>
</g>
</g>
<defs>
<path id="path0_fill" fill-rule="evenodd" d="M 4 0C 1.79086 0 0 1.79086 0 4L 0 25C 0 27.2091 1.79086 29 4 29L 15.9512 29L 21 0L 4 0Z"/>
<path id="path1_fill" fill-rule="evenodd" d="M 5.03005 0L 0 29L 16.9699 29L 22 0L 5.03005 0Z"/>
<path id="path2_fill" fill-rule="evenodd" d="M 5.04877 0L 0 29L 17 29C 19.2091 29 21 27.2091 21 25L 21 4C 21 1.79086 19.2091 0 17 0L 5.04877 0Z"/>
</defs>
</svg>
