<svg width="144" height="144" viewBox="0 0 144 144" version="1.1" xmlns="http://www.w3.org/2000/svg" xmlns:xlink="http://www.w3.org/1999/xlink" xmlns:figma="http://www.figma.com/figma/ns">
<title>salience</title>
<desc>Created using Figma</desc>
<g id="Canvas" transform="translate(-4237 -22)" figma:type="canvas">
<mask id="mask0_alpha" mask-type="alpha">
<path d="M 4237 22L 4381 22L 4381 166L 4237 166L 4237 22Z" fill="#FFFFFF"/>
</mask>
<g id="salience" style="mix-blend-mode:normal;" mask="url(#mask0_alpha)" figma:type="frame">
<g id="Group" style="mix-blend-mode:normal;" figma:type="frame">
<g id="Group 157" style="mix-blend-mode:normal;" opacity="0.2" figma:type="frame">
<g id="Fill 155" style="mix-blend-mode:normal;" figma:type="vector">
<use xlink:href="#path0_fill" transform="translate(4269.79 74.1817)" fill="#FFF5D6" style="mix-blend-mode:normal;"/>
</g>
</g>
<g id="Fill 158" style="mix-blend-mode:normal;" opacity="0.2" figma:type="vector">
<use xlink:href="#path1_fill" transform="translate(4288.78 74)" fill="#FFF5D6" style="mix-blend-mode:normal;"/>
</g>
<g id="Fill 160" style="mix-blend-mode:normal;" opacity="0.2" figma:type="vector">
<use xlink:href="#path2_fill" transform="translate(4306.78 74)" fill="#FFF5D6" style="mix-blend-mode:normal;"/>
</g>
<g id="Fill 162" style="mix-blend-mode:normal;" opacity="0.2" figma:type="vector">
<use xlink:href="#path3_fill" transform="translate(4324.78 74)" fill="#FFF5D6" style="mix-blend-mode:normal;"/>
</g>
<g id="Group 166" style="mix-blend-mode:normal;" opacity="0.2" figma:type="frame">
<g id="Fill 164" style="mix-blend-mode:normal;" figma:type="vector">
<use xlink:href="#path4_fill" transform="translate(4266.84 80.1157)" fill="#FFF5D6" style="mix-blend-mode:normal;"/>
</g>
</g>
<g id="Fill 167" style="mix-blend-mode:normal;" opacity="0.2" figma:type="vector">
<use xlink:href="#path5_fill" transform="translate(4287.78 80)" fill="#FFF5D6" style="mix-blend-mode:normal;"/>
</g>
<g id="Fill 169" style="mix-blend-mode:normal;" opacity="0.2" figma:type="vector">
<use xlink:href="#path6_fill" transform="translate(4307.78 80)" fill="#FFF5D6" style="mix-blend-mode:normal;"/>
</g>
<g id="Group 173" style="mix-blend-mode:normal;" opacity="0.2" figma:type="frame">
<g id="Fill 171" style="mix-blend-mode:normal;" figma:type="vector">
<use xlink:href="#path7_fill" transform="translate(4328.8 80.1157)" fill="#FFF5D6" style="mix-blend-mode:normal;"/>
</g>
</g>
<g id="Group 176" style="mix-blend-mode:normal;" opacity="0.2" figma:type="frame">
<g id="Fill 174" style="mix-blend-mode:normal;" figma:type="vector">
<use xlink:href="#path8_fill" transform="translate(4261.79 88.027)" fill="#FFF5D6" style="mix-blend-mode:normal;"/>
</g>
</g>
<g id="Group 179" style="mix-blend-mode:normal;" opacity="0.2" figma:type="frame">
<g id="Fill 177" style="mix-blend-mode:normal;" figma:type="vector">
<use xlink:href="#path9_fill" transform="translate(4334.78 87.6013)" fill="#FFF5D6" style="mix-blend-mode:normal;"/>
</g>
</g>
<g id="Fill 180" style="mix-blend-mode:normal;" opacity="0.2" figma:type="vector">
<use xlink:href="#path10_fill" transform="translate(4284.78 100)" fill="#FFF5D6" style="mix-blend-mode:normal;"/>
</g>
<g id="Group 184" style="mix-blend-mode:normal;" opacity="0.2" figma:type="frame">
<g id="Fill 182" style="mix-blend-mode:normal;" figma:type="vector">
<use xlink:href="#path11_fill" transform="translate(4342.86 100.153)" fill="#FFF5D6" style="mix-blend-mode:normal;"/>
</g>
</g>
<g id="Group 187" style="mix-blend-mode:normal;" opacity="0.2" figma:type="frame">
<g id="Fill 185" style="mix-blend-mode:normal;" figma:type="vector">
<use xlink:href="#path12_fill" transform="translate(4255 100.153)" fill="#FFF5D6" style="mix-blend-mode:normal;"/>
</g>
</g>
<g id="Fill 199" style="mix-blend-mode:normal;" opacity="0.2" figma:type="vector">
<use xlink:href="#path13_fill" transform="translate(4286.78 88)" fill="#FFF5D6" style="mix-blend-mode:normal;"/>
</g>
<g id="Fill 201" style="mix-blend-mode:normal;" opacity="0.2" figma:type="vector">
<use xlink:href="#path14_fill" transform="translate(4313.78 100)" fill="#FFF5D6" style="mix-blend-mode:normal;"/>
</g>
<g id="Subtract" style="mix-blend-mode:normal;" figma:type="vector-operation">
<use xlink:href="#path15_fill" transform="translate(4310.78 82)" fill="#FFF5D6" style="mix-blend-mode:normal;"/>
</g>
</g>
</g>
</g>
<defs>
<path id="path0_fill" fill-rule="evenodd" d="M 6.66545 0C 7.44305 0 8.16633 0.0477895 8.81062 0.134737C 9.45753 0.221684 10.0272 0.348421 10.4926 0.506105C 10.9615 0.665053 11.326 0.855579 11.5575 1.06926C 11.7912 1.28505 11.8896 1.52484 11.8217 1.77916C 11.753 2.03684 11.5207 2.28505 11.1569 2.51326C 10.7895 2.74379 10.2888 2.95347 9.68924 3.13095C 9.08509 3.31011 8.38233 3.456 7.61804 3.55726C 6.85025 3.65916 6.02378 3.71558 5.17767 3.71558C 4.332 3.71558 3.55091 3.65916 2.86473 3.55726C 2.18182 3.456 1.59578 3.31011 1.13476 3.13095C 0.677455 2.95347 0.344509 2.74379 0.161673 2.51326C -0.0194181 2.28505 -0.0530181 2.03684 0.0844365 1.77916C 0.220146 1.52484 0.510764 1.28505 0.917236 1.06926C 1.32 0.855579 1.83731 0.665053 2.4336 0.506105C 3.02531 0.348421 3.69644 0.221684 4.41295 0.134737C 5.12684 0.0477895 5.88829 0 6.66545 0"/>
<path id="path1_fill" fill-rule="evenodd" d="M 5.99925 0C 6.79343 0 7.55173 0.0514477 8.24542 0.145051C 8.942 0.238654 9.57574 0.375092 10.1157 0.544847C 10.6598 0.715961 11.1102 0.921072 11.4342 1.15111C 11.7613 1.38342 11.9598 1.64157 11.9946 1.91535C 12.0296 2.19276 11.8937 2.45997 11.6156 2.70565C 11.3343 2.95382 10.9085 3.17956 10.3686 3.37062C 9.82464 3.56349 9.16617 3.72055 8.42703 3.82957C 7.68454 3.93926 6.8634 4 5.99925 4C 5.13555 4 4.31463 3.93926 3.57237 3.82957C 2.83323 3.72055 2.1752 3.56349 1.63104 3.37062C 1.09133 3.17956 0.665498 2.95382 0.384505 2.70565C 0.106185 2.45997 -0.0297436 2.19276 0.00546415 1.91535C 0.0402262 1.64157 0.238771 1.38342 0.565891 1.15111C 0.889669 0.921072 1.34002 0.715961 1.88418 0.544847C 2.4241 0.375092 3.05762 0.238654 3.75398 0.145051C 4.44721 0.0514477 5.20552 0 5.99925 0"/>
<path id="path2_fill" fill-rule="evenodd" d="M 5.24606 0C 6.03354 0 6.8051 0.0514477 7.52847 0.145051C 8.25449 0.238654 8.93453 0.375092 9.53409 0.544847C 10.1383 0.715961 10.6625 0.921072 11.0706 1.15111C 11.4827 1.38342 11.7769 1.64157 11.9144 1.91535C 12.0537 2.19276 12.0197 2.45997 11.8362 2.70565C 11.6509 2.95382 11.3136 3.17956 10.8502 3.37062C 10.383 3.56349 9.78922 3.72055 9.09724 3.82957C 8.40195 3.93926 7.61049 4 6.75359 4C 5.89625 4 5.05881 3.93926 4.28083 3.82957C 3.5064 3.72055 2.7943 3.56349 2.18214 3.37062C 1.57462 3.17956 1.06724 2.95382 0.694946 2.70565C 0.326409 2.45997 0.0909605 2.19276 0.0213209 1.91535C -0.0474345 1.64157 0.0522718 1.38342 0.289047 1.15111C 0.52361 0.921072 0.893032 0.715961 1.36813 0.544847C 1.83969 0.375092 2.41692 0.238654 3.07242 0.145051C 3.72526 0.0514477 4.45814 0 5.24606 0"/>
<path id="path3_fill" fill-rule="evenodd" d="M 4.5271 0C 5.2969 0 6.06995 0.0514477 6.81081 0.145051C 7.55491 0.238654 8.26942 0.375092 8.91784 0.544847C 9.57079 0.715961 10.1585 0.921072 10.6417 1.15111C 11.1296 1.38342 11.5121 1.64157 11.7474 1.91535C 11.9856 2.19276 12.0508 2.45997 11.9621 2.70565C 11.8726 2.95382 11.6262 3.17956 11.2439 3.37062C 10.8585 3.56349 10.3363 3.72055 9.70038 3.82957C 9.06147 3.93926 8.31046 4 7.47283 4C 6.6352 4 5.79434 3.93926 4.99408 3.82957C 4.19727 3.72055 3.44367 3.56349 2.77473 3.37062C 2.11076 3.17956 1.5319 2.95382 1.0768 2.70565C 0.626233 2.45997 0.297921 2.19276 0.127717 1.91535C -0.0403265 1.64157 -0.0379506 1.38342 0.107846 1.15111C 0.252346 0.921072 0.537675 0.715961 0.938993 0.544847C 1.33729 0.375092 1.85092 0.238654 2.45679 0.145051C 3.06006 0.0514477 3.75729 0 4.5271 0"/>
<path id="path4_fill" fill-rule="evenodd" d="M 7.91739 0C 8.81895 0 9.65451 0.06125 10.3967 0.1725C 11.1423 0.284375 11.7965 0.447083 12.3289 0.649792C 12.8658 0.853958 13.2805 1.09958 13.5396 1.37542C 13.8018 1.65417 13.9056 1.96437 13.8149 2.29417C 13.7232 2.62854 13.4405 2.95104 13.005 3.24813C 12.5641 3.54875 11.9676 3.8225 11.2563 4.05479C 10.5387 4.28917 9.70628 4.48042 8.80406 4.61333C 7.89717 4.74708 6.92339 4.82125 5.93051 4.82125C 4.93806 4.82125 4.02584 4.74708 3.22895 4.61333C 2.43628 4.48042 1.76162 4.28917 1.23695 4.05479C 0.71695 3.8225 0.346061 3.54875 0.15295 3.24813C -0.0379385 2.95104 -0.0548274 2.62854 0.128728 2.29417C 0.310061 1.96437 0.669617 1.65417 1.16184 1.37542C 1.64828 1.09958 2.26562 0.853958 2.97095 0.649792C 3.67051 0.447083 4.45895 0.284375 5.29651 0.1725C 6.13028 0.06125 7.01628 0 7.91739 0"/>
<path id="path5_fill" fill-rule="evenodd" d="M 6.99921 0C 7.92023 0 8.79971 0.0635209 9.60495 0.178896C 10.4138 0.294918 11.151 0.463659 11.7803 0.673883C 12.415 0.885619 12.9424 1.14035 13.3233 1.42641C 13.7088 1.7155 13.9456 2.0372 13.9917 2.37922C 14.0387 2.726 13.8856 3.06045 13.5655 3.36855C 13.2416 3.68032 12.7474 3.96422 12.1183 4.20512C 11.4833 4.44819 10.7135 4.64653 9.84741 4.78437C 8.97701 4.92308 8.01353 5 6.99921 5C 5.98533 5 5.02208 4.92308 4.15191 4.78437C 3.28606 4.64653 2.51623 4.44819 1.88171 4.20512C 1.25263 3.96422 0.758411 3.68032 0.434453 3.36855C 0.114354 3.06045 -0.0386579 2.726 0.00833532 2.37922C 0.0546475 2.0372 0.29143 1.7155 0.676684 1.42641C 1.05762 1.14035 1.58499 0.885619 2.21952 0.673883C 2.84882 0.463659 3.58572 0.294918 4.39437 0.178896C 5.19939 0.0635209 6.07864 0 6.99921 0"/>
<path id="path6_fill" fill-rule="evenodd" d="M 5.9952 0C 6.90626 0 7.80204 0.0635209 8.64502 0.178896C 9.49182 0.294918 10.289 0.463659 10.9963 0.673883C 11.7094 0.885619 12.3335 1.14035 12.8253 1.42641C 13.323 1.7155 13.6865 2.0372 13.8699 2.37922C 14.0554 2.726 14.0384 3.06045 13.8454 3.36855C 13.6501 3.68032 13.2751 3.96422 12.7494 4.20512C 12.2189 4.44819 11.5368 4.64653 10.7354 4.78437C 9.92972 4.92308 9.00742 5 8.00402 5C 7.00017 5 6.01564 4.92308 5.09874 4.78437C 4.18656 4.64653 3.34493 4.44819 2.61945 4.20512C 1.90026 3.96422 1.29723 3.68032 0.851477 3.36855C 0.411113 3.06045 0.125325 2.726 0.0325343 2.37922C -0.0591333 2.0372 0.0457902 1.7155 0.310907 1.42641C 0.572879 1.14035 0.992123 0.885619 1.53494 0.673883C 2.07326 0.463659 2.73471 0.294918 3.48849 0.178896C 4.23891 0.0635209 5.08369 0 5.9952 0"/>
<path id="path7_fill" fill-rule="evenodd" d="M 5.34616 0C 6.28239 0 7.22878 0.06125 8.14239 0.1725C 9.06016 0.284375 9.94862 0.447083 10.7614 0.649792C 11.5813 0.853958 12.3274 1.09958 12.9505 1.37542C 13.5807 1.65417 14.0868 1.96437 14.4161 2.29417C 14.7498 2.62854 14.8705 2.95104 14.7996 3.24813C 14.7279 3.54875 14.4599 3.8225 14.0194 4.05479C 13.5749 4.28917 12.9562 4.48042 12.1899 4.61333C 11.4195 4.74708 10.5039 4.82125 9.47278 4.82125C 8.4417 4.82125 7.39885 4.74708 6.39962 4.61333C 5.4057 4.48042 4.45955 4.28917 3.61401 4.05479C 2.77585 3.8225 2.03947 3.54875 1.45285 3.24813C 0.873393 2.95104 0.441854 2.62854 0.203469 2.29417C -0.0316844 1.96437 -0.0568383 1.65417 0.0961617 1.37542C 0.247316 1.09958 0.572931 0.853958 1.04301 0.649792C 1.50916 0.447083 2.11885 0.284375 2.84532 0.1725C 3.56832 0.06125 4.40993 0 5.34616 0Z"/>
<path id="path8_fill" fill-rule="evenodd" d="M 9.81139 0C 10.8927 0 11.8907 0.086625 12.7733 0.244125C 13.6607 0.4025 14.4361 0.633062 15.063 0.9205C 15.6964 1.21078 16.1809 1.56034 16.4775 1.95322C 16.7777 2.35156 16.8855 2.79541 16.7575 3.26856C 16.6275 3.74916 16.2668 4.214 15.7212 4.64297C 15.168 5.07784 14.4262 5.47466 13.5461 5.81197C 12.6568 6.15256 11.6297 6.43103 10.5203 6.62484C 9.40431 6.81997 8.21087 6.92825 7.00019 6.92825C 5.7902 6.92825 4.68497 6.81997 3.72723 6.62484C 2.77546 6.43103 1.97416 6.15256 1.36101 5.81197C 0.754528 5.47466 0.334582 5.07784 0.134258 4.64297C -0.0635394 4.214 -0.0472286 3.74916 0.212825 3.26856C 0.468744 2.79541 0.936934 2.35156 1.56065 1.95322C 2.1761 1.56034 2.94454 1.21078 3.81361 0.9205C 4.67395 0.633062 5.63628 0.4025 6.65215 0.244125C 7.6625 0.086625 8.73051 0 9.81139 0"/>
<path id="path9_fill" fill-rule="evenodd" d="M 5.70921 0C 6.74841 0 7.80882 0.086625 8.8414 0.244125C 9.87951 0.4025 10.8942 0.633062 11.833 0.9205C 12.7812 1.21078 13.6559 1.56034 14.4004 1.95322C 15.1548 2.35156 15.7778 2.79541 16.2084 3.26856C 16.6455 3.74916 16.8427 4.214 16.8201 4.64297C 16.7972 5.07784 16.5486 5.47466 16.0973 5.81197C 15.641 6.15256 14.9797 6.43103 14.1403 6.62484C 13.2958 6.81997 12.2758 6.92825 11.1123 6.92825C 9.94883 6.92825 8.75971 6.81997 7.611 6.62484C 6.46935 6.43103 5.37384 6.15256 4.38608 5.81197C 3.40891 5.47466 2.54125 5.07784 1.84005 4.64297C 1.14835 4.214 0.620466 3.74916 0.308063 3.26856C 0.00073871 2.79541 -0.0688067 2.35156 0.0645439 1.95322C 0.196128 1.56034 0.525752 1.21078 1.02118 0.9205C 1.51153 0.633062 2.16658 0.4025 2.95786 0.244125C 3.74471 0.086625 4.67 0 5.70921 0"/>
<path id="path10_fill" fill-rule="evenodd" d="M 9.99885 0C 11.2886 0 12.5219 0.122254 13.6536 0.344573C 14.7923 0.568414 15.8347 0.894714 16.7305 1.30215C 17.6366 1.7146 18.3969 2.21209 18.9553 2.77268C 19.5228 3.3424 19.8838 3.97933 19.9765 4.66021C 20.0709 5.35393 19.8783 6.02719 19.442 6.65021C 18.9986 7.28366 18.3048 7.86339 17.41 8.35719C 16.5036 8.8573 15.3952 9.26691 14.1416 9.55232C 12.8788 9.84011 11.4766 10 9.99862 10C 8.52136 10 7.11981 9.84011 5.85724 9.55232C 4.6041 9.26691 3.49593 8.8573 2.58979 8.35719C 1.69515 7.86339 1.00139 7.28366 0.557987 6.65021C 0.121713 6.02719 -0.0708821 5.35393 0.0234598 4.66021C 0.116421 3.97933 0.477221 3.3424 1.04465 2.77268C 1.60311 2.21209 2.36314 1.7146 3.26928 1.30215C 4.16484 0.894714 5.20697 0.568414 6.34552 0.344573C 7.4767 0.122254 8.70959 0 9.99885 0"/>
<path id="path11_fill" fill-rule="evenodd" d="M 6.45343 0C 7.69243 0 8.97321 0.131532 10.2345 0.370723C 11.504 0.611553 12.7614 0.962617 13.9416 1.40098C 15.1357 1.84472 16.2565 2.37998 17.2328 2.98311C 18.2249 3.59606 19.0718 4.28134 19.6956 5.01389C 20.3311 5.76026 20.6746 6.48462 20.7451 7.15491C 20.8165 7.83645 20.6057 8.46017 20.1339 8.99145C 19.6562 9.52951 18.9135 9.97021 17.9336 10.2773C 16.9464 10.5869 15.725 10.7589 14.3054 10.7589C 12.8856 10.7589 11.413 10.5869 9.97436 10.2773C 8.54591 9.97021 7.16013 9.52951 5.89682 8.99145C 4.64986 8.46017 3.52846 7.83645 2.60534 7.15491C 1.69726 6.48462 0.983703 5.76026 0.529661 5.01389C 0.0842396 4.28134 -0.069392 3.59606 0.0280922 2.98311C 0.12425 2.37998 0.463787 1.84472 1.01023 1.40098C 1.55048 0.962617 2.29521 0.611553 3.21346 0.370723C 4.12574 0.131532 5.21443 0 6.45343 0"/>
<path id="path12_fill" fill-rule="evenodd" d="M 11.8315 0C 13.077 0 14.2197 0.131532 15.2246 0.370723C 16.2359 0.611553 17.1135 0.962617 17.8175 1.40098C 18.5295 1.84472 19.0672 2.37998 19.385 2.98311C 19.7079 3.59606 19.805 4.28134 19.6257 5.01389C 19.4432 5.76026 18.9915 6.48462 18.3246 7.15491C 17.6466 7.83645 16.7479 8.46017 15.6892 8.99145C 14.6168 9.52951 13.3852 9.97021 12.0619 10.2773C 10.729 10.5869 9.31191 10.7589 7.88458 10.7589C 6.45791 10.7589 5.16747 10.5869 4.06169 10.2773C 2.96413 9.97021 2.05569 9.52951 1.37769 8.99145C 0.708579 8.46017 0.267468 7.83645 0.0892459 7.15491C -0.0860875 6.48462 -0.00653189 5.76026 0.358579 5.01389C 0.716801 4.28134 1.3168 3.59606 2.08969 2.98311C 2.85013 2.37998 3.78058 1.84472 4.81858 1.40098C 5.84413 0.962617 6.97947 0.611553 8.16725 0.370723C 9.34747 0.131532 10.5864 0 11.8315 0"/>
<path id="path13_fill" fill-rule="evenodd" d="M 7.99901 0C 9.04292 0 10.0405 0.0875221 10.9544 0.246653C 11.8732 0.406668 12.7122 0.639619 13.4304 0.930033C 14.1558 1.22332 14.7608 1.5765 15.201 1.97345C 15.647 2.37592 15.9251 2.82436 15.987 3.30241C 16.0498 3.78798 15.8834 4.25764 15.5246 4.69105C 15.1607 5.13043 14.5998 5.53135 13.8819 5.87216C 13.1565 6.21628 12.2738 6.49763 11.2787 6.69345C 10.2773 6.8906 9.16778 7 7.99879 7C 6.83068 7 5.72135 6.8906 4.72046 6.69345C 3.72557 6.49763 2.84289 6.21628 2.11768 5.87216C 1.4 5.53135 0.839126 5.13043 0.47541 4.69105C 0.116351 4.25764 -0.0497606 3.78798 0.0130026 3.30241C 0.0746568 2.82436 0.352766 2.37592 0.798984 1.97345C 1.23921 1.5765 1.844 1.22332 2.56922 0.930033C 3.28733 0.639619 4.1261 0.406668 5.0447 0.246653C 5.95843 0.0875221 6.95554 0 7.99901 0"/>
<path id="path14_fill" fill-rule="evenodd" d="M 7.99735 0C 9.26047 0 10.5173 0.122254 11.7146 0.344573C 12.9195 0.568414 14.0713 0.894714 15.1117 1.30215C 16.1647 1.7146 17.1086 2.21209 17.8801 2.77268C 18.6641 3.3424 19.2728 3.97933 19.6362 4.66021C 20.0066 5.35393 20.0873 6.02719 19.9095 6.65021C 19.7287 7.28366 19.2812 7.86339 18.6024 8.35719C 17.9146 8.8573 16.993 9.26691 15.8795 9.55232C 14.7578 9.84011 13.4486 10 12.0013 10C 10.5534 10 9.11574 9.84011 7.76357 9.55232C 6.42109 9.26691 5.17171 8.8573 4.08375 8.35719C 3.00977 7.86339 2.0981 7.28366 1.41029 6.65021C 0.73375 6.02719 0.275436 5.35393 0.0903516 4.66021C -0.0915764 3.97933 0.00693977 3.3424 0.3345 2.77268C 0.656876 2.21209 1.20243 1.7146 1.92474 1.30215C 2.63892 0.894714 3.52917 0.568414 4.55514 0.344573C 5.57457 0.122254 6.73377 0 7.99735 0Z"/>
<path id="path15_fill" fill-rule="evenodd" d="M 6.66175 0C 7.69056 0 8.70716 0.0875244 9.66859 0.246651C 10.6354 0.40667 11.5514 0.639618 12.3702 0.930031C 13.1974 1.22332 13.9288 1.5765 14.5148 1.97345C 15.1085 2.37592 15.5538 2.82436 15.7975 3.30241C 15.8986 3.5008 15.9611 3.69653 15.9865 3.88821L 16.0001 3.88929L 16.0001 4.17726C 15.9469 4.26479 15.8639 4.35019 15.755 4.46185L 15.6437 4.57719C 15.2999 4.94691 14.8483 5.20979 14.5465 5.38547L 14.4508 5.44146C 13.9069 5.7645 13.2189 6.01757 12.3468 6.20473C 11.462 6.39684 10.463 6.50067 9.33753 6.5C 8.20911 6.50057 7.11878 6.39547 6.07825 6.20184C 5.04603 6.01102 4.11732 5.7438 3.29554 5.40902C 2.48743 5.08145 1.84827 4.71941 1.35706 4.30716C 1.30726 4.26507 1.25452 4.22269 1.2013 4.17953L 1.18616 4.16744C 0.726692 3.79537 0.192513 3.36285 0.0416336 2.56331C 0.09095 2.35783 0.184212 2.16068 0.317024 1.97345C 0.599251 1.5765 1.06068 1.22332 1.66322 0.930031C 2.2599 0.639618 2.99818 0.40667 3.8429 0.246651C 4.68275 0.0875244 5.63245 0 6.66175 0ZM 0.000617981 4.46373L 0.00257111 9.23436L 0.0103836 9.23504C -0.0115891 9.41853 0.00110626 9.60802 0.0504227 9.80241C 0.174446 10.288 0.517708 10.7576 1.03675 11.1911C 1.56361 11.6304 2.26966 12.0313 3.10706 12.3722C 3.95374 12.7163 4.93128 12.9976 5.98695 13.1935C 7.04945 13.3906 8.18519 13.5 9.33753 13.5C 10.4889 13.5 11.5411 13.3906 12.4528 13.1935C 13.3585 12.9976 14.1212 12.7163 14.7047 12.3722C 15.2819 12.0313 15.6818 11.6304 15.8722 11.1911C 15.9547 11.0009 15.9982 10.8037 16.0001 10.6013L 16.0001 5.60384C 15.6261 5.91074 15.2423 6.13638 15.0148 6.26976L 14.9591 6.30272C 14.3356 6.66785 13.4982 6.97772 12.5582 7.18216C 11.6198 7.38435 10.5148 7.49933 9.33753 7.5C 8.16126 7.49942 6.97962 7.38573 5.89564 7.18507C 4.81654 6.98426 3.79017 6.68877 2.91859 6.33533C 2.0514 5.98131 1.27845 5.54139 0.716438 5.07492L 0.565071 4.95265C 0.405403 4.82587 0.20472 4.66641 0.000617981 4.46373Z"/>
</defs>
</svg>
