<svg width="144" height="144" viewBox="0 0 144 144" version="1.1" xmlns="http://www.w3.org/2000/svg" xmlns:xlink="http://www.w3.org/1999/xlink" xmlns:figma="http://www.figma.com/figma/ns">
<title>Scarcity</title>
<desc>Created using Figma</desc>
<g id="Canvas" transform="translate(-4515 211)" figma:type="canvas">
<mask id="mask0_alpha" mask-type="alpha">
<path d="M 4515 -211L 4659 -211L 4659 -67L 4515 -67L 4515 -211Z" fill="#FFFFFF"/>
</mask>
<g id="Scarcity" style="mix-blend-mode:normal;" mask="url(#mask0_alpha)" figma:type="frame">
<g id="Group 16" style="mix-blend-mode:normal;" figma:type="frame">
<g id="Combined Shape" style="mix-blend-mode:normal;isolation:isolate;" opacity="0.2" figma:type="vector-operation">
<use xlink:href="#path0_fill" transform="translate(4538.21 -176.5)" fill="#FFF5D6" style="mix-blend-mode:normal;"/>
</g>
<g id="Fill 425" style="mix-blend-mode:normal;" figma:type="vector">
<use xlink:href="#path1_fill" transform="translate(4602 -187)" fill="#FFF5D6" style="mix-blend-mode:normal;"/>
</g>
<g id="Fill 426" style="mix-blend-mode:normal;" figma:type="vector">
<use xlink:href="#path2_fill" transform="translate(4608 -180)" fill="#FFF5D6" style="mix-blend-mode:normal;"/>
</g>
</g>
</g>
</g>
<defs>
<path id="path0_fill" fill-rule="evenodd" d="M 48.8223 2.05052L 37.6035 16L 60.272 16L 48.8223 2.05052ZM 75.7993 17L 94.9053 17L 87.1948 2.8304L 75.7993 17ZM 80.4883 0L 68.4658 14.9496L 56.1953 0L 80.4883 0ZM 2.68359 17L 10.4214 2.78036L 22.0928 17L 2.68359 17ZM 29.4658 14.9496L 41.4883 0L 17.1953 0L 29.4658 14.9496ZM 0 24L 27.3638 24L 43.5161 85.0902L 0 24ZM 97.5889 24L 55.1152 83.6268L 71.2051 24L 97.5889 24ZM 64.2246 23L 34.3403 23L 49.1299 78.938L 64.2246 23Z"/>
<path id="path1_fill" fill-rule="evenodd" d="M 16 0L 19.3301 13.0659L 32 16.5L 19.3301 19.9341L 16 33L 12.6699 19.9341L 0 16.5L 12.6699 13.0659L 16 0Z"/>
<path id="path2_fill" fill-rule="evenodd" d="M 20 0L 13.2875 10L 20 20L 10 13.2875L 0 20L 6.71245 10L 0 0L 10 6.71245L 20 0Z"/>
</defs>
</svg>
