<svg width="144" height="144" viewBox="0 0 144 144" version="1.1" xmlns="http://www.w3.org/2000/svg" xmlns:xlink="http://www.w3.org/1999/xlink" xmlns:figma="http://www.figma.com/figma/ns">
<title>status_quo</title>
<desc>Created using Figma</desc>
<g id="Canvas" transform="translate(-4515 693)" figma:type="canvas">
<mask id="mask0_alpha" mask-type="alpha">
<path d="M 4515 -693L 4659 -693L 4659 -549L 4515 -549L 4515 -693Z" fill="#FFFFFF"/>
</mask>
<g id="status_quo" style="mix-blend-mode:normal;" mask="url(#mask0_alpha)" figma:type="frame">
<g id="Group 6" style="mix-blend-mode:normal;" figma:type="frame">
<g id="Stroke 429" style="mix-blend-mode:normal;" figma:type="vector">
<use xlink:href="#path0_stroke" transform="translate(4600.25 -637.92)" fill="#FFF5D6" style="mix-blend-mode:normal;"/>
</g>
<g id="Stroke 431" style="mix-blend-mode:normal;" figma:type="vector">
<use xlink:href="#path1_stroke" transform="translate(4549.61 -634.912)" fill="#FFF5D6" style="mix-blend-mode:normal;"/>
</g>
<g id="Stroke 433" style="mix-blend-mode:normal;" figma:type="vector">
<use xlink:href="#path2_stroke" transform="translate(4558.68 -664.24)" fill="#FFF5D6" style="mix-blend-mode:normal;"/>
</g>
<g id="Union" style="mix-blend-mode:normal;" figma:type="vector-operation">
<use xlink:href="#path3_fill" transform="translate(4535.31 -668.532)" fill="#FFF5D6" style="mix-blend-mode:normal;"/>
</g>
</g>
</g>
</g>
<defs>
<path id="path0_stroke" d="M 0.454718 56.8436C 19.5285 52.3904 33.748 35.4033 33.748 15.0972L 29.748 15.0972C 29.748 33.481 16.8715 48.9032 -0.454718 52.9484L 0.454718 56.8436ZM 33.748 15.0972C 33.738 9.56422 32.6299 4.09812 30.6972 -0.744264L 26.9845 0.744264C 28.7978 5.2451 29.7581 9.96425 29.748 15.0972L 33.748 15.0972Z"/>
<path id="path1_stroke" d="M -0.206104 -0.575047C -1.35208 3.25935 -1.99425 7.4673 -2 11.6793L 2 11.6793C 1.99425 7.7703 2.55008 4.13867 3.62499 0.575047L -0.206104 -0.575047ZM -2 11.6793C -2 33.1286 13.8508 50.8706 34.4842 53.8672L 35.0591 49.9088C 16.3605 47.1931 2 31.1098 2 11.6793L -2 11.6793Z"/>
<path id="path2_stroke" d="M 63.4493 11.7046C 55.6154 3.27497 44.4944 -2 32.1534 -2L 32.1534 2C 43.3269 2 53.4033 6.77053 60.5192 14.4276L 63.4493 11.7046ZM 32.1534 -2C 18.4703 -2 6.29079 4.48405 -1.57647 14.5613L 1.57647 17.0227C 8.72712 7.86345 19.7679 2 32.1534 2L 32.1534 -2Z"/>
<path id="path3_fill" fill-rule="evenodd" d="M 86.7954 0.498291L 86.7617 0L 86.2632 0.0330811L 82.9951 0.249878L 82.4951 0.282959L 82.5293 0.782593L 83.5806 16.2986L 67.9814 16.2107L 67.481 16.2079L 67.4785 16.7084L 67.4629 19.9744L 67.4609 20.474L 67.9604 20.4767L 87.6138 20.584L 88.1519 20.5869L 88.1157 20.0503L 86.7954 0.498291ZM 17.2202 30.3679L 16.9531 29.8904L 16.502 30.1993L 0.405273 41.2088L 0 41.4859L 0.269531 41.8961L 2.06787 44.6324L 2.34717 45.0582L 2.76807 44.7704L 15.5308 36.0367L 23.1465 49.656L 23.3945 50.1001L 23.8345 49.8441L 26.6396 48.2106L 27.0645 47.9633L 26.8247 47.5344L 17.2202 30.3679ZM 71.2451 68.5331L 70.8115 68.2781L 70.5591 68.7128L 60.7275 85.6331L 60.459 86.0953L 60.938 86.3324L 78.4023 94.98L 78.8525 95.2031L 79.0737 94.7516L 80.5068 91.8206L 80.7256 91.3735L 80.2793 91.1528L 66.4175 84.293L 74.2241 70.8633L 74.4741 70.4334L 74.0454 70.1812L 71.2451 68.5331Z"/>
</defs>
</svg>
