<svg width="144" height="144" viewBox="0 0 144 144" version="1.1" xmlns="http://www.w3.org/2000/svg" xmlns:xlink="http://www.w3.org/1999/xlink" xmlns:figma="http://www.figma.com/figma/ns">
<title>undo</title>
<desc>Created using Figma</desc>
<g id="Canvas" transform="translate(-4515 460)" figma:type="canvas">
<mask id="mask0_alpha" mask-type="alpha">
<path d="M 4515 -460L 4659 -460L 4659 -316L 4515 -316L 4515 -460Z" fill="#FFFFFF"/>
</mask>
<g id="undo" style="mix-blend-mode:normal;" mask="url(#mask0_alpha)" figma:type="frame">
<g id="Combined Shape" style="mix-blend-mode:normal;" figma:type="vector-operation">
<use xlink:href="#path0_fill" transform="translate(4539.35 -420.05)" fill="#FFF5D6" style="mix-blend-mode:normal;"/>
</g>
<g id="Combined Shape" style="mix-blend-mode:normal;isolation:isolate;" opacity="0.2" figma:type="vector-operation">
<use xlink:href="#path1_fill" transform="translate(4539.35 -423.869)" fill="#FFF5D6" style="mix-blend-mode:normal;"/>
</g>
</g>
</g>
<defs>
<path id="path0_fill" fill-rule="evenodd" d="M 26.5322 0L 25.54 0.920776L 24.9185 1.49765L 10.4834 14.8927L 13.9614 14.8927L 26.5322 3.2276L 26.5322 0ZM 22.9697 42.051L 0.0195312 20.7507L 0.00390625 20.7648L 0.00390625 20.7365L 0 20.7325L 0.00390625 20.7286L 0.00390625 17.4988L 1.83643 19.0772L 1.76465 19.143L 22.9697 38.8234L 24.918 36.735L 26.5322 38.2325L 22.9697 42.051ZM 26.5322 38.2325L 24.9185 36.7348L 26.5322 35.0047L 26.5322 38.2325ZM 70.2437 23.3341L 13.9517 23.3341L 10.4727 20.1065L 70.2437 20.1065C 81.1431 20.1065 90.0103 28.959 90.0103 39.8394C 90.0103 40.3827 89.9883 40.9209 89.9448 41.4532C 89.1196 31.3246 80.5986 23.3341 70.2437 23.3341ZM 46.4517 68.0133L 46.4517 64.7857L 70.2437 64.7857C 83.48 64.7857 94.3452 54.4596 95.1812 41.4532C 95.2153 41.9868 95.2329 42.5249 95.2329 43.067C 95.2329 56.8225 84.0229 68.0133 70.2437 68.0133L 46.4517 68.0133Z"/>
<path id="path1_fill" fill-rule="evenodd" d="M 26.5322 38.8234L 22.9697 42.6419L 0 21.3234L 22.9697 0L 26.5322 3.81848L 10.4834 18.7112L 70.3442 18.7112C 84.0776 18.7663 95.2329 29.9357 95.2329 43.6579C 95.2329 57.4134 84.0229 68.6042 70.2437 68.6042L 46.4517 68.6042L 46.4517 63.3904L 70.2437 63.3904C 81.1431 63.3904 90.0103 54.5384 90.0103 43.6579C 90.0103 32.7775 81.1431 23.925 70.2437 23.925L 10.4727 23.925L 26.5322 38.8234Z"/>
</defs>
</svg>
