<svg width="144" height="144" viewBox="0 0 144 144" version="1.1" xmlns="http://www.w3.org/2000/svg" xmlns:xlink="http://www.w3.org/1999/xlink" xmlns:figma="http://www.figma.com/figma/ns">
<title>variable_reward</title>
<desc>Created using Figma</desc>
<g id="Canvas" transform="translate(-3959 -470)" figma:type="canvas">
<mask id="mask0_alpha" mask-type="alpha">
<path d="M 3959 470L 4103 470L 4103 614L 3959 614L 3959 470Z" fill="#FFFFFF"/>
</mask>
<g id="variable_reward" style="mix-blend-mode:normal;" mask="url(#mask0_alpha)" figma:type="frame">
<g id="Stroke 345" style="mix-blend-mode:normal;" opacity="0.2" figma:type="vector">
<use xlink:href="#path0_fill" transform="translate(4012.01 528)" fill="#FFF5D6" style="mix-blend-mode:normal;"/>
</g>
<g id="Stroke 347" style="mix-blend-mode:normal;" opacity="0.2" figma:type="vector">
<use xlink:href="#path0_fill" transform="translate(4049.3 528)" fill="#FFF5D6" style="mix-blend-mode:normal;"/>
</g>
<g id="Cherries" style="mix-blend-mode:normal;" figma:type="frame">
<g id="Subtract" style="mix-blend-mode:normal;" opacity="0.2" figma:type="vector">
<use xlink:href="#path1_fill" transform="translate(4019.08 537.566)" fill="#FFF5D6" style="mix-blend-mode:normal;"/>
</g>
<g id="Subtract" style="mix-blend-mode:normal;" figma:type="vector">
<use xlink:href="#path2_fill" transform="translate(4022.87 547.029)" fill="#FFF5D6" style="mix-blend-mode:normal;"/>
<use xlink:href="#path3_fill" transform="translate(4022.87 547.029)" fill="#FFF5D6" style="mix-blend-mode:normal;"/>
</g>
<g id="Subtract" style="mix-blend-mode:normal;" figma:type="vector">
<use xlink:href="#path4_fill" transform="translate(4026.32 542.912)" fill="#FFF5D6" style="mix-blend-mode:normal;"/>
</g>
</g>
<g id="Cherries" style="mix-blend-mode:normal;" figma:type="frame">
<g id="Subtract" style="mix-blend-mode:normal;" opacity="0.2" figma:type="vector">
<use xlink:href="#path1_fill" transform="translate(3981.78 537.566)" fill="#FFF5D6" style="mix-blend-mode:normal;"/>
</g>
<g id="Subtract" style="mix-blend-mode:normal;" figma:type="vector">
<use xlink:href="#path2_fill" transform="translate(3985.57 547.029)" fill="#FFF5D6" style="mix-blend-mode:normal;"/>
<use xlink:href="#path3_fill" transform="translate(3985.57 547.029)" fill="#FFF5D6" style="mix-blend-mode:normal;"/>
</g>
<g id="Subtract" style="mix-blend-mode:normal;" figma:type="vector">
<use xlink:href="#path4_fill" transform="translate(3989.02 542.912)" fill="#FFF5D6" style="mix-blend-mode:normal;"/>
</g>
</g>
<g id="Fill 441" style="mix-blend-mode:normal;" opacity="0.2" figma:type="vector">
<use xlink:href="#path5_fill" transform="translate(4063.12 547.216)" fill="#FFF5D6" style="mix-blend-mode:normal;"/>
</g>
<g id="Fill 442" style="mix-blend-mode:normal;" figma:type="vector">
<use xlink:href="#path6_fill" transform="translate(4069.33 545.157)" fill="#FFF5D6" style="mix-blend-mode:normal;"/>
</g>
<g id="Fill 443" style="mix-blend-mode:normal;" opacity="0.2" figma:type="vector">
<use xlink:href="#path7_fill" transform="translate(4062.42 536.922)" fill="#FFF5D6" style="mix-blend-mode:normal;"/>
</g>
</g>
</g>
<defs>
<path id="path0_fill" fill-rule="evenodd" d="M 0 34C 0 34.5523 0.447715 35 1 35L 1 35C 1.55228 35 2 34.5523 2 34L 2 1C 2 0.447715 1.55228 0 1 0L 1 0C 0.447715 0 0 0.447715 0 1L 0 34Z"/>
<path id="path1_fill" d="M 16.4963 0.00134277L 16.4949 0L 14.8889 1.11804L 14.8941 1.13416C 14.9099 1.18549 14.9192 1.21759 14.929 1.30872C 14.9605 1.54211 14.9675 1.7785 14.8464 2.19135C 14.679 2.80908 14.2241 3.74323 13.0325 4.90125C 12.9932 4.86377 12.9568 4.83057 12.9263 4.8028C 12.8977 4.77692 12.8745 4.75568 12.8587 4.73987C 12.5701 4.45099 12.1536 4.05316 11.6751 3.64886C 10.7405 2.85962 9.45216 1.94159 8.25343 1.74274C 7.16603 1.56354 6.26563 1.55096 5.48097 1.76538C 4.6963 1.99133 3.96021 2.46667 3.18897 3.17719C 2.47877 3.83374 2.07643 3.96893 1.8152 3.97101C 1.52784 3.97333 1.27613 3.83081 0.771738 3.54529C 0.554697 3.42242 0.280283 3.47833 0.128672 3.67639C -0.265615 4.19098 0.343271 4.58325 0.655527 4.78442C 0.711924 4.82074 0.758799 4.85089 0.788096 4.87433C 1.16529 5.17487 1.73121 5.57635 2.39649 5.91962C 3.51905 6.49628 5.02271 6.95905 6.62745 6.58264C 7.26539 5.25983 8.62574 4.34607 10.1943 4.34607C 11.8643 4.34607 13.2981 5.38135 13.8757 6.84332C 14.9024 5.94189 15.6069 5.08948 16.0794 4.30664C 16.1546 5.36505 16.0479 6.76752 15.5271 8.56879C 15.4697 8.57837 15.4153 8.5882 15.364 8.5979C 17.0471 9.04779 18.2918 10.5774 18.2918 12.3951C 18.2918 12.7272 18.2503 13.0496 18.1721 13.3577C 19.5632 14.7982 21.1052 15.3663 22.3547 15.5566C 23.0542 15.6613 23.6819 15.6494 24.1023 15.6111C 24.3191 15.5909 24.5015 15.5629 24.6184 15.5415C 24.6799 15.5302 24.7317 15.5193 24.7634 15.5123L 24.8047 15.5027L 24.8171 15.4997L 24.8213 15.4987L 24.8235 15.498L 24.707 14.5141C 23.9209 14.5002 23.4993 14.3745 23.249 14.2178C 22.9775 14.0637 22.8726 13.8684 22.7293 13.5086C 22.6646 13.35 22.6043 13.1718 22.5383 12.9764C 22.2957 12.2585 21.9746 11.3093 21.0698 10.2556C 20.0422 9.08569 18.7395 8.64233 17.615 8.51062C 18.261 5.96893 18.1821 4.05365 17.8462 2.66962C 17.6299 1.80267 17.2979 1.11365 17.0523 0.71637C 16.9265 0.515991 16.6326 0.163757 16.5222 0.0315552L 16.4993 0.00415039L 16.4963 0.00134277Z"/>
<path id="path2_fill" d="M 2.95312 0C 1.32227 0 0 1.31818 0 2.93115C 0 4.54425 1.32227 5.86273 2.95312 5.86273C 4.58423 5.86273 5.90649 4.54425 5.90649 2.93115C 5.90649 1.31818 4.58423 0 2.95312 0Z"/>
<path id="path3_fill" d="M 10.5503 0C 8.91943 0 7.59717 1.31842 7.59717 2.93134C 7.59717 4.54431 8.91943 5.86273 10.5503 5.86273C 12.1814 5.86273 13.5037 4.54431 13.5037 2.93134C 13.5037 1.31842 12.1814 0 10.5503 0Z"/>
<path id="path4_fill" d="M 0 2.9314C 0 1.31848 1.32227 0 2.95337 0C 4.58423 0 5.90649 1.31848 5.90649 2.9314C 5.90649 3.05878 5.89844 3.18433 5.88232 3.30756C 4.67944 3.6947 3.72607 4.64081 3.33569 5.83832C 3.31201 5.84137 3.28833 5.84412 3.26465 5.84662C 2.80273 4.41852 1.54028 3.34637 0.00805664 3.15002C 0.00268555 3.07782 0 3.00488 0 2.9314Z"/>
<path id="path5_fill" fill-rule="evenodd" d="M 0 6.93749C 0.766526 8.74294 4.91633 8.65375 9.2691 6.73799C 13.6215 4.82224 16.5288 1.80545 15.7623 0L 13.7216 0.989136C 14.2234 2.1706 12.0294 4.27272 8.8217 5.68435C 5.61402 7.09637 2.60697 7.28313 2.1056 6.10166L 0 6.93749Z"/>
<path id="path6_fill" fill-rule="evenodd" d="M 6.62223 2.0702C 7.37871 3.80926 6.57323 5.82862 4.82308 6.5803C 3.07294 7.33199 1.04071 6.53161 0.284239 4.79255C -0.472235 3.05349 0.333249 1.03412 2.08339 0.28244C 3.83353 -0.469245 5.86576 0.331139 6.62223 2.0702"/>
<path id="path7_fill" fill-rule="evenodd" d="M 1.39154 10.2312C 1.22358 9.53188 0.838457 7.98601 0.838457 7.98601C 0.513482 6.90775 0.206474 6.14946 0.206474 6.14946C -0.37981 4.82846 0.321699 3.19622 1.81377 2.03083C 1.59387 1.35511 2.07899 0.546221 2.94845 0.180204C 3.81753 -0.185812 4.75496 0.02421 5.10962 0.642861C 7.00322 0.382997 8.70465 1.00317 9.29094 2.32456C 9.29094 2.32456 9.6495 3.0661 10.2358 4.03935C 10.2358 4.03935 11.1279 5.40069 11.4291 5.82264C 12.4786 7.22354 12.8196 8.40948 14.0085 8.6195C 15.312 8.70321 16.2502 9.10841 16.5755 9.84197L 14.5374 10.7871C 14.3417 10.3461 13.7629 10.1056 12.9403 10.0554L 12.9403 10.0554C 12.6204 10.036 12.2638 10.0455 11.8782 10.0836C 11.8755 10.0839 11.8728 10.0839 11.87 10.0843C 11.7786 10.0935 11.6857 10.1041 11.5912 10.1163C 11.5845 10.1174 11.5779 10.1182 11.5708 10.119C 11.2763 10.1578 10.9674 10.2118 10.6471 10.281C 10.6342 10.2841 10.6213 10.2871 10.6084 10.2898C 10.519 10.3092 10.4287 10.3301 10.3381 10.3522C 10.3143 10.3579 10.2905 10.3636 10.2666 10.3697C 10.1834 10.3902 10.0991 10.4119 10.0143 10.4344C 9.98971 10.4408 9.96511 10.4473 9.94011 10.4541C 9.84246 10.4804 9.74403 10.5082 9.64521 10.5375C 9.63583 10.5401 9.62646 10.5424 9.61708 10.5455C 9.50655 10.5782 9.39523 10.6124 9.28352 10.6482C 9.26242 10.6547 9.24133 10.6619 9.22024 10.6687C 9.13275 10.6969 9.04486 10.7262 8.95659 10.7562C 8.92065 10.7688 8.88394 10.7817 8.84761 10.7943C 8.77262 10.8205 8.69762 10.8476 8.62224 10.875C 8.58318 10.8894 8.54373 10.9039 8.50428 10.9187C 8.42694 10.9472 8.3496 10.9773 8.27227 11.0074C 8.23711 11.0211 8.20196 11.0344 8.16641 11.0484C 8.0547 11.093 7.94221 11.1386 7.83011 11.1858C 7.71801 11.233 7.60786 11.2813 7.4985 11.3296C 7.46334 11.3452 7.42897 11.3616 7.39382 11.3772C 7.31921 11.411 7.245 11.4449 7.17196 11.4795C 7.13329 11.4974 7.0954 11.5157 7.05712 11.5339C 6.98643 11.5678 6.91651 11.6017 6.84698 11.6363C 6.81144 11.6538 6.7755 11.6717 6.74035 11.6895C 6.66262 11.7284 6.58607 11.7683 6.5099 11.8079C 6.48568 11.8208 6.46068 11.8334 6.43647 11.8463C 6.33413 11.9007 6.23297 11.9555 6.13376 12.011C 6.13337 12.0114 6.13298 12.0114 6.13219 12.0118C 6.03533 12.0662 5.94041 12.121 5.84667 12.1758C 5.8248 12.1887 5.8037 12.2017 5.78183 12.2146C 5.70801 12.2584 5.63497 12.3029 5.56349 12.3474C 5.54122 12.3611 5.51935 12.3748 5.49748 12.3885C 5.42365 12.4345 5.35139 12.4809 5.28031 12.5277C 5.26429 12.538 5.24789 12.5487 5.23187 12.5593C 4.96392 12.7366 4.71433 12.9162 4.48584 13.0958C 4.48076 13.1 4.47607 13.1038 4.47099 13.108C 4.39951 13.1643 4.32999 13.221 4.26241 13.2776C 4.25656 13.2822 4.2507 13.2872 4.24523 13.2921C 3.95541 13.5364 3.70543 13.7795 3.50114 14.0169L 3.50114 14.0169C 2.96173 14.6424 2.73792 15.2261 2.93595 15.672L 0.832989 16.4706C 0.507623 15.737 0.847441 14.7938 1.67785 13.8115C 2.33678 12.8218 1.68527 11.7592 1.35482 10.0508"/>
</defs>
</svg>
