<svg width="144" height="144" viewBox="0 0 144 144" version="1.1" xmlns="http://www.w3.org/2000/svg" xmlns:xlink="http://www.w3.org/1999/xlink" xmlns:figma="http://www.figma.com/figma/ns">
<title>willpower</title>
<desc>Created using Figma</desc>
<g id="Canvas" transform="translate(-3959 -237)" figma:type="canvas">
<mask id="mask0_alpha" mask-type="alpha">
<path d="M 3959 237L 4103 237L 4103 381L 3959 381L 3959 237Z" fill="#FFFFFF"/>
</mask>
<g id="willpower" style="mix-blend-mode:normal;" mask="url(#mask0_alpha)" figma:type="frame">
<g id="Group 23" style="mix-blend-mode:normal;" figma:type="frame">
<g id="Fill 319" style="mix-blend-mode:normal;" figma:type="vector">
<use xlink:href="#path0_fill" transform="translate(4007 302.986)" fill="#FFF5D6" style="mix-blend-mode:normal;"/>
</g>
<g id="Group" style="mix-blend-mode:normal;" opacity="0.2" figma:type="frame">
<g id="Fill 321" style="mix-blend-mode:normal;" figma:type="vector">
<use xlink:href="#path1_fill" transform="translate(4052 299.804)" fill="#FFF5D6" style="mix-blend-mode:normal;"/>
</g>
<g id="Fill 322" style="mix-blend-mode:normal;" figma:type="vector">
<use xlink:href="#path2_fill" transform="translate(4064.2 312.533)" fill="#FFF5D6" style="mix-blend-mode:normal;"/>
</g>
</g>
<g id="Group" style="mix-blend-mode:normal;" opacity="0.2" figma:type="frame">
<g id="Fill 323" style="mix-blend-mode:normal;" figma:type="vector">
<use xlink:href="#path3_fill" transform="translate(3983 299.804)" fill="#FFF5D6" style="mix-blend-mode:normal;"/>
</g>
<g id="Fill 324" style="mix-blend-mode:normal;" figma:type="vector">
<use xlink:href="#path4_fill" transform="translate(3983.53 312.003)" fill="#FFF5D6" style="mix-blend-mode:normal;"/>
</g>
</g>
</g>
</g>
</g>
<defs>
<path id="path0_fill" fill-rule="evenodd" d="M 0 2C 0 3.10457 0.89543 4 2 4L 46 4C 47.1046 4 48 3.10457 48 2L 48 2C 48 0.89543 47.1046 0 46 0L 2 0C 0.89543 0 0 0.895431 0 2L 0 2Z"/>
<path id="path1_fill" fill-rule="evenodd" d="M 6.56218 24.5918C 5.76184 25.3617 4.4875 25.3321 3.72373 24.5259L 1.36505 22.0362C 0.609477 21.2387 0.638662 19.981 1.43042 19.2194L 19.9575 1.39714C 20.7578 0.627252 22.0322 0.656824 22.7959 1.46301L 25.1543 3.95238C 25.9099 4.74991 25.8807 6.00758 25.089 6.76922L 6.56218 24.5918Z"/>
<path id="path2_fill" fill-rule="evenodd" d="M 4.89251 12.4393C 4.0963 13.1885 2.8461 13.1595 2.08547 12.3742L 1.4119 11.6789C 0.635469 10.8773 0.665193 9.59544 1.47794 8.83074L 9.42793 1.35073C 10.2241 0.601587 11.4743 0.630576 12.235 1.41582L 12.9085 2.11118C 13.685 2.91272 13.6552 4.19462 12.8425 4.95932L 4.89251 12.4393Z"/>
<path id="path3_fill" fill-rule="evenodd" d="M 19.9572 24.5918C 20.7575 25.3617 22.0318 25.3321 22.7956 24.5259L 25.1543 22.0362C 25.9099 21.2387 25.8807 19.981 25.0889 19.2194L 6.56183 1.39714C 5.76149 0.627252 4.48717 0.656824 3.7234 1.46301L 1.36502 3.95238C 0.609461 4.74991 0.638636 6.00758 1.43037 6.76922L 19.9572 24.5918Z"/>
<path id="path4_fill" fill-rule="evenodd" d="M 9.42793 12.4393C 10.2241 13.1885 11.4743 13.1595 12.235 12.3742L 12.9085 11.6789C 13.685 10.8773 13.6552 9.59544 12.8425 8.83074L 4.89251 1.35073C 4.0963 0.601587 2.8461 0.630576 2.08547 1.41582L 1.4119 2.11118C 0.635469 2.91272 0.665193 4.19462 1.47794 4.95932L 9.42793 12.4393Z"/>
</defs>
</svg>
