<svg width="144" height="144" viewBox="0 0 144 144" version="1.1" xmlns="http://www.w3.org/2000/svg" xmlns:xlink="http://www.w3.org/1999/xlink" xmlns:figma="http://www.figma.com/figma/ns">
<title>fundamental_attribution</title>
<desc>Created using Figma</desc>
<g id="Canvas" transform="translate(-4237 -237)" figma:type="canvas">
<mask id="mask0_alpha" mask-type="alpha">
<path d="M 4237 237L 4381 237L 4381 381L 4237 381L 4237 237Z" fill="#FFFFFF"/>
</mask>
<g id="fundamental_attribution" style="mix-blend-mode:normal;" mask="url(#mask0_alpha)" figma:type="frame">
<g id="Group 24" style="mix-blend-mode:normal;" figma:type="frame">
<g id="Fill 326" style="mix-blend-mode:normal;" opacity="0.2" figma:type="vector">
<use xlink:href="#path0_fill" transform="translate(4247 272)" fill="#FFF5D6" style="mix-blend-mode:normal;"/>
</g>
<g id="Subtract" style="mix-blend-mode:normal;" figma:type="vector-operation">
<use xlink:href="#path1_fill" transform="translate(4283 259)" fill="#FFF5D6" style="mix-blend-mode:normal;"/>
</g>
</g>
</g>
</g>
<defs>
<path id="path0_fill" fill-rule="evenodd" d="M 33 64L 0 59.3483L 0 0L 33 0L 33 64Z"/>
<path id="path1_fill" fill-rule="evenodd" d="M 56.1392 15.0241L 89.7969 15.0241C 94.3271 15.0241 98 18.6975 98 23.2289C 98 27.7604 94.3271 31.4338 89.7969 31.4338L 64.5522 31.4338C 66.7183 33.2715 68.0967 36.0093 68.0967 39.0724C 68.0967 42.8045 66.0513 46.0543 63.0249 47.7771C 63.5933 49.0345 63.918 50.4262 63.918 51.8965C 63.918 56.0929 61.3354 59.681 57.6753 61.1716C 57.936 62.065 58.083 63.0064 58.083 63.9841C 58.083 69.5156 53.5996 74 48.0684 74L 18.1729 74C 12.9404 74 5.39795 72.5802 0 66.4113L 0 17.757C 5.30469 17.0388 10.229 14.2827 13.9019 12.2273C 14.5396 11.8704 15.1396 11.5346 15.6973 11.2343C 21.0586 8.34768 37.7021 0.793851 37.7021 0.793851C 41.7954 -1.14853 46.6875 0.596067 48.6294 4.69024C 50.3853 8.39227 49.1196 12.7405 45.8364 14.9766L 56.1289 15.0527L 56.1392 15.0241Z"/>
</defs>
</svg>
