<svg width="18" height="18" viewBox="0 0 18 18" version="1.1" xmlns="http://www.w3.org/2000/svg" xmlns:xlink="http://www.w3.org/1999/xlink" xmlns:figma="http://www.figma.com/figma/ns">
<title>icon_edit</title>
<desc>Created using Figma</desc>
<g id="Canvas" transform="translate(-8266 -3528)" figma:type="canvas">
<g id="icon_edit" style="mix-blend-mode:normal;" opacity="0.54" figma:type="frame">
<g id="Subtract" style="mix-blend-mode:normal;" figma:type="vector-operation">
<use xlink:href="#path0_fill" transform="translate(8266 3530)" fill="#FFFFFF" style="mix-blend-mode:normal;"/>
</g>
<g id="Union" style="mix-blend-mode:normal;" figma:type="vector">
<use xlink:href="#path1_fill" transform="translate(8274 3528)" fill="#FFFFFF" style="mix-blend-mode:normal;"/>
</g>
</g>
</g>
<defs>
<path id="path0_fill" fill-rule="evenodd" d="M 8 1L 2 1C 1.44727 1 1 1.44775 1 2L 1 14C 1 14.5522 1.44727 15 2 15L 14 15C 14.5527 15 15 14.5522 15 14L 15 8L 16 8L 16 14C 16 15.1045 15.1045 16 14 16L 2 16C 0.895508 16 0 15.1045 0 14L 0 2C 0 0.895508 0.895508 0 2 0L 8 0L 8 1Z"/>
<path id="path1_fill" d="M 9.29289 2.70711C 9.68342 2.31658 9.68342 1.68342 9.29289 1.29289L 8.70711 0.707107C 8.31658 0.316583 7.68342 0.316583 7.29289 0.707107L 0 8L 0 10L 2 10L 9.29289 2.70711Z"/>
</defs>
</svg>
