<svg width="144" height="144" viewBox="0 0 144 144" version="1.1" xmlns="http://www.w3.org/2000/svg" xmlns:xlink="http://www.w3.org/1999/xlink" xmlns:figma="http://www.figma.com/figma/ns">
<title>chunking</title>
<desc>Created using Figma</desc>
<g id="Canvas" transform="translate(-3681 460)" figma:type="canvas">
<mask id="mask0_alpha" mask-type="alpha">
<path d="M 3681 -460L 3825 -460L 3825 -316L 3681 -316L 3681 -460Z" fill="#FFFFFF"/>
</mask>
<g id="chunking" style="mix-blend-mode:normal;" mask="url(#mask0_alpha)" figma:type="frame">
<g id="Fill 11" style="mix-blend-mode:normal;" figma:type="vector">
<use xlink:href="#path0_fill" transform="translate(3705 -407)" fill="#FFF5D6" fill-opacity="0.2" style="mix-blend-mode:normal;"/>
</g>
<g id="Fill 43" style="mix-blend-mode:normal;" figma:type="vector">
<use xlink:href="#path1_fill" transform="translate(3705 -388)" fill="#FFF5D6" style="mix-blend-mode:normal;"/>
</g>
<g id="Fill 44" style="mix-blend-mode:normal;" figma:type="vector">
<use xlink:href="#path2_fill" transform="translate(3724.49 -388)" fill="#FFF5D6" style="mix-blend-mode:normal;"/>
</g>
<g id="Fill 45" style="mix-blend-mode:normal;" figma:type="vector">
<use xlink:href="#path3_fill" transform="translate(3782.23 -388)" fill="#FFF5D6" style="mix-blend-mode:normal;"/>
</g>
<g id="Fill 46" style="mix-blend-mode:normal;" figma:type="vector">
<use xlink:href="#path2_fill" transform="translate(3762.74 -388)" fill="#FFF5D6" style="mix-blend-mode:normal;"/>
</g>
<g id="Fill 47" style="mix-blend-mode:normal;" figma:type="vector">
<use xlink:href="#path2_fill" transform="translate(3743.98 -388)" fill="#FFF5D6" style="mix-blend-mode:normal;"/>
</g>
</g>
</g>
<defs>
<path id="path0_fill" fill-rule="evenodd" d="M 0 16L 96 16L 96 0L 0 0L 0 16Z"/>
<path id="path1_fill" fill-rule="evenodd" d="M 0 0L 0 16L 16.6906 16L 18.7669 0L 0 0Z"/>
<path id="path2_fill" fill-rule="evenodd" d="M 2.1153 0L 0 16L 16.6516 16L 18.7669 0L 2.1153 0Z"/>
<path id="path3_fill" fill-rule="evenodd" d="M 2.07629 0L 0 16L 18.7669 16L 18.7669 0L 2.07629 0Z"/>
</defs>
</svg>
