<svg width="144" height="144" viewBox="0 0 144 144" version="1.1" xmlns="http://www.w3.org/2000/svg" xmlns:xlink="http://www.w3.org/1999/xlink" xmlns:figma="http://www.figma.com/figma/ns">
<title>Commitment</title>
<desc>Created using Figma</desc>
<g id="Canvas" transform="translate(-4237 693)" figma:type="canvas">
<mask id="mask0_alpha" mask-type="alpha">
<path d="M 4237 -693L 4381 -693L 4381 -549L 4237 -549L 4237 -693Z" fill="#FFFFFF"/>
</mask>
<g id="Commitment" style="mix-blend-mode:normal;" mask="url(#mask0_alpha)" figma:type="frame">
<g id="Combined Shape" style="mix-blend-mode:normal;" figma:type="vector-operation">
<use xlink:href="#path0_fill" transform="translate(4287 -669)" fill="#FFF5D6" style="mix-blend-mode:normal;"/>
</g>
</g>
</g>
<defs>
<path id="path0_fill" fill-rule="evenodd" d="M 10.2295 20.4592C 10.7983 20.4592 11.356 20.4127 11.8994 20.3235L 21.0767 24.867L 21.0767 89.7275L 7.48584 89.7275L 7.48584 96L 40.9395 96L 40.9395 89.7275L 27.3491 89.7275L 27.3491 27.9724L 38.957 33.7193L 43.4746 25.731L 20.3696 8.87042C 19.7051 3.86255 15.418 0 10.2295 0C 4.58057 0 0 4.57892 0 10.2296C 0 15.8787 4.58057 20.4592 10.2295 20.4592Z"/>
</defs>
</svg>
