<svg width="144" height="144" viewBox="0 0 144 144" version="1.1" xmlns="http://www.w3.org/2000/svg" xmlns:xlink="http://www.w3.org/1999/xlink" xmlns:figma="http://www.figma.com/figma/ns">
<title>familiarity</title>
<desc>Created using Figma</desc>
<g id="Canvas" transform="translate(-3959 -685)" figma:type="canvas">
<mask id="mask0_alpha" mask-type="alpha">
<path d="M 3959 685L 4103 685L 4103 829L 3959 829L 3959 685Z" fill="#FFFFFF"/>
</mask>
<g id="familiarity" style="mix-blend-mode:normal;" mask="url(#mask0_alpha)" figma:type="frame">
<g id="Group" style="mix-blend-mode:normal;" figma:type="frame">
<g id="Union" style="mix-blend-mode:normal;" opacity="0.2" figma:type="vector-operation">
<use xlink:href="#path0_fill" transform="translate(3988 732.372)" fill="#FFF5D6" style="mix-blend-mode:normal;"/>
</g>
<g id="Subtract" style="mix-blend-mode:normal;" figma:type="vector-operation">
<use xlink:href="#path1_fill" transform="translate(3997.7 717)" fill="#FFF5D6" style="mix-blend-mode:normal;"/>
</g>
</g>
</g>
</g>
<defs>
<path id="path0_fill" fill-rule="evenodd" d="M 42.1816 20.018L 39.936 7.09481C 39.4001 5.04025 40.0466 2.76748 41.7825 1.31607C 44.1787 -0.6879 47.7439 -0.367283 49.7454 2.03213C 50.4023 2.81979 50.8093 3.73349 50.9746 4.67654L 50.9922 4.67349L 51.9756 10.314C 51.9756 10.314 53.7268 20.5021 61.9844 25.3305L 66.7705 26.6145L 57.1421 62.5945L 12.9768 50.7462L 12.918 50.7597L 3.05566 45.1978C 1.24048 44.2558 0 42.3574 0 40.169C 0 38.4242 0.78833 36.8639 2.02783 35.8255C 0.858643 34.7884 0.121582 33.2738 0.121582 31.5868C 0.121582 29.4369 1.31885 27.5669 3.08203 26.6085L 2.82031 26.4573L 2.82642 26.4468C 1.13696 25.468 0 23.6388 0 21.5439C 0 19.2047 1.41699 17.197 3.43848 16.3343L 4.17139 15.9167L 2.8208 15.136L 2.82666 15.1259C 1.13696 14.1471 0 12.3178 0 10.2227C 0 7.75192 1.58105 5.65091 3.7854 4.87844L 8.27441 2.26022C 9.14429 1.71334 10.1736 1.39706 11.2766 1.39706C 14.3989 1.39706 16.9302 3.93136 16.9302 7.05758C 16.9302 8.05612 16.6721 8.99429 16.2188 9.80874L 26.6897 15.862L 42.1816 20.018ZM 58.9058 67.1632L 80.3953 69.6283L 90 32.6519L 69.2705 27.2653L 58.9058 67.1632Z"/>
<path id="path1_fill" fill-rule="evenodd" d="M 4 0L 28.7659 0C 30.9751 0 32.7659 1.79083 32.7659 4L 32.7659 16.1993C 32.531 16.3431 32.304 16.5058 32.0864 16.6877C 30.3506 18.1392 29.7041 20.4119 30.24 22.4665L 32.7659 37.0026L 32.7659 57.4447C 32.7659 59.6538 30.9751 61.4447 28.7659 61.4447L 4 61.4447C 2.52417 61.4447 1.23486 60.6454 0.541748 59.4561L 4.17651 57.4055C 5.99268 56.4637 7.23413 54.5648 7.23413 52.3756C 7.23413 50.6317 6.44653 49.0721 5.20801 48.0337C 6.35864 46.9975 7.08203 45.4953 7.08203 43.8239C 7.08203 41.6619 5.87183 39.7831 4.09229 38.8297L 4.20508 38.7654C 6.00586 37.8187 7.23413 35.9282 7.23413 33.7504C 7.23413 31.063 5.36377 28.813 2.85522 28.2343L 4.25854 27.4157C 6.03003 26.4599 7.23413 24.5854 7.23413 22.4293C 7.23413 19.303 4.70288 16.7687 1.58057 16.7687C 1.03198 16.7687 0.501709 16.847 0 16.9929L 0 4C 0 1.79083 1.79077 0 4 0Z"/>
</defs>
</svg>
