<svg width="144" height="144" viewBox="0 0 144 144" version="1.1" xmlns="http://www.w3.org/2000/svg" xmlns:xlink="http://www.w3.org/1999/xlink" xmlns:figma="http://www.figma.com/figma/ns">
<title>Incentive</title>
<desc>Created using Figma</desc>
<g id="Canvas" transform="translate(-3681 -22)" figma:type="canvas">
<mask id="mask0_alpha" mask-type="alpha">
<path d="M 3681 22L 3825 22L 3825 166L 3681 166L 3681 22Z" fill="#FFFFFF"/>
</mask>
<g id="Incentive" style="mix-blend-mode:normal;" mask="url(#mask0_alpha)" figma:type="frame">
<g id="Group" style="mix-blend-mode:normal;" figma:type="frame">
<g id="Carrot" style="mix-blend-mode:normal;" figma:type="frame">
<g id="Vector" style="mix-blend-mode:normal;" figma:type="vector">
<use xlink:href="#path0_fill" transform="translate(3718 58)" fill="#FFF5D6" style="mix-blend-mode:normal;"/>
</g>
<g id="Vector" style="mix-blend-mode:normal;" figma:type="vector">
<mask id="mask1_outline_ins">
<use xlink:href="#path1_fill" fill="white" transform="translate(3732.45 67.8895)"/>
</mask>
<g mask="url(#mask1_outline_ins)">
<use xlink:href="#path2_stroke_2x" transform="translate(3732.45 67.8895)" fill="#FFF5D6" style="mix-blend-mode:normal;"/>
</g>
</g>
</g>
</g>
</g>
</g>
<defs>
<path id="path0_fill" d="M 21.1375 1.87775C 20.9412 2.09682 16.5566 7.10416 22.4136 15.3663L 21.1375 18.6667C 21.0394 18.6041 10.9614 11.3604 3.40295 17.776L 1.43971 15.6792C 6.11876 11.7046 11.943 12.0176 16.753 13.6137C 8.93273 6.41565 0.0981619 4.13105 0 4.09976L 0.752574 1.37702C 1.17794 1.4709 8.99817 3.50513 16.7202 9.7643C 16.3603 8.07433 16.393 6.63472 16.5566 5.44548C 17.0474 2.03423 18.9125 0.0938875 18.978 0L 20.025 0.938875L 21.1375 1.87775Z"/>
<path id="path1_fill" d="M 41.1402 27.1829C 48.5404 37.5776 55.6221 47.5221 55.6988 47.6323C 56.4514 48.9154 57.2367 51.4191 55.5025 53.0778C 54.8154 53.7663 53.8665 54.1105 52.8194 54.1105C 51.347 54.1105 50.0382 53.4533 49.9073 53.3594C 49.4165 53.0465 10.5117 27.9785 3.18223 22.7834C 1.18628 21.3751 0.106494 19.5599 0.00833196 17.4318C -0.253433 12.2054 5.73444 6.82249 6.4543 6.19658C 7.10871 5.50807 12.5076 0 17.8738 0C 20.197 0 22.2584 1.06406 23.7962 3.0357C 24.5815 4.06846 25.8249 5.72714 27.3628 7.82396C 30.5545 12.3126 35.9264 19.8595 41.1402 27.1829Z"/>
<path id="path2_stroke_2x" d="M 41.1402 27.1829L 41.5785 28.6174L 43.5638 28.0109L 42.3645 26.3164L 41.1402 27.1829ZM 35.7658 33.521C 36.8572 31.6097 37.8105 30.5728 38.6799 29.9313C 39.5749 29.2503 40.4295 28.9682 41.5785 28.6174L 40.7019 25.7484C 39.4949 26.1175 38.1726 26.5982 36.8988 27.5173C 35.5995 28.4759 34.3923 29.8763 33.1606 32.0334L 35.7658 33.521ZM 42.3645 26.3164C 40.9273 24.2857 37.0608 18.7546 35.6805 16.8371L 33.2458 18.5898C 34.614 20.4904 38.4736 26.0116 39.9158 28.0494L 42.3645 26.3164ZM 22.5352 32.9555C 23.1309 27.9802 26.7381 24.6199 29.082 23.4534L 27.7454 20.7676C 24.7309 22.2678 20.3004 26.3856 19.5564 32.5989L 22.5352 32.9555ZM 15.4869 18.2799C 19.3747 11.9556 24.5297 9.95008 27.6704 9.29209L 27.0552 6.35584C 23.3245 7.13745 17.3545 9.51335 12.9312 16.7088L 15.4869 18.2799ZM 55.6988 47.6323L 58.2866 46.1145L 58.2272 46.0132L 58.16 45.9168L 55.6988 47.6323ZM 41.1402 27.1829L 38.6962 28.9228L 41.1402 27.1829ZM 27.3628 7.82396L 29.8077 6.08544L 29.7949 6.06749L 29.7819 6.04972L 27.3628 7.82396ZM 23.7962 3.0357L 26.1843 1.21987L 26.1731 1.20517L 26.1617 1.19061L 23.7962 3.0357ZM 6.4543 6.19658L 8.42276 8.46046L 8.53045 8.36682L 8.62878 8.26337L 6.4543 6.19658ZM 0.00833196 17.4318L 3.00517 17.2936L 3.00458 17.2817L 0.00833196 17.4318ZM 3.18223 22.7834L 4.91705 20.3358L 4.91179 20.3321L 3.18223 22.7834ZM 49.9073 53.3594L 51.6559 50.9217L 51.5893 50.874L 51.5202 50.8299L 49.9073 53.3594ZM 55.5025 53.0778L 53.4289 50.9098L 53.4037 50.9339L 53.3791 50.9585L 55.5025 53.0778ZM 58.16 45.9168C 58.0745 45.7943 50.9842 35.8376 43.5841 25.443L 38.6962 28.9228C 46.0966 39.3176 53.3058 49.4455 53.2377 49.3477L 58.16 45.9168ZM 43.5841 25.443C 38.3704 18.1197 32.999 10.5735 29.8077 6.08544L 24.9179 9.56248C 28.1101 14.0517 33.4824 21.5993 38.6962 28.9228L 43.5841 25.443ZM 29.7819 6.04972C 28.2347 3.94028 26.9758 2.26082 26.1843 1.21987L 21.4082 4.85153C 22.1873 5.8761 23.4151 7.51399 24.9437 9.5982L 29.7819 6.04972ZM 26.1617 1.19061C 24.1119 -1.43747 21.2094 -3 17.8738 -3L 17.8738 3C 19.1846 3 20.4049 3.56558 21.4307 4.88078L 26.1617 1.19061ZM 17.8738 -3C 14.2578 -3 10.9387 -1.19183 8.68346 0.377718C 6.35635 2.01358 4.62122 3.77069 4.27982 4.12978L 8.62878 8.26337C 8.94178 7.93395 10.2333 6.59278 12.1108 5.30248C 14.0601 3.94587 16.1236 3 17.8738 3L 17.8738 -3ZM 4.48584 3.93269C 4.10923 4.26026 2.20472 5.98593 0.461146 8.29175C -1.19314 10.5027 -3.17342 13.8781 -2.98791 17.5819L 3.00458 17.2817C 2.92831 15.7591 3.81109 13.8298 5.26527 11.8862C 6.63015 10.0375 8.07951 8.75881 8.42276 8.46046L 4.48584 3.93269ZM -2.98848 17.57C -2.84082 20.7712 -1.17045 23.3838 1.45267 25.2346L 4.91179 20.3321C 3.543 19.3663 3.05381 18.3486 3.00515 17.2936L -2.98848 17.57ZM 1.44742 25.2309C 8.83138 30.4638 47.7976 55.5721 48.2944 55.8889L 51.5202 50.8299C 51.5761 50.8655 50.8093 50.3725 49.6852 49.6476C 48.5605 48.9223 46.973 47.8979 45.0583 46.6607C 41.2283 44.186 36.0934 40.8629 30.7439 37.3867C 20.0443 30.4339 8.53614 22.9017 4.91705 20.3358L 1.44742 25.2309ZM 48.1587 55.7971C 48.454 56.0089 48.8026 56.1716 48.966 56.2461C 49.1832 56.3445 49.5522 56.4945 49.9108 56.616C 50.5674 56.8318 51.7359 57.0903 52.8194 57.1105L 52.8194 51.1105C 52.5058 51.1105 52.143 51.0356 51.8098 50.9244C 51.6407 50.8698 51.5659 50.8379 51.4549 50.7867C 51.4147 50.7687 51.3911 50.7553 51.4074 50.7642C 51.4099 50.7655 51.4267 50.7743 51.4542 50.7904C 51.4659 50.7972 51.5489 50.8449 51.6559 50.9217L 48.1587 55.7971ZM 52.8194 57.1105C 54.5248 57.1105 56.2853 56.5403 57.626 55.197L 53.3791 50.9585C 53.3455 50.9922 53.2081 51.1105 52.8194 51.1105L 52.8194 57.1105ZM 57.5761 55.2457C 59.2502 53.6446 59.6466 51.6339 59.525 49.9925C 59.3807 48.537 58.7658 46.9471 58.2866 46.1145L 53.1111 49.15C 53.3227 49.5108 53.5103 50.0157 53.5414 50.4359C 53.5554 50.6243 53.5331 50.7323 53.5173 50.7809C 53.5071 50.8126 53.4923 50.8492 53.4289 50.9098L 57.5761 55.2457Z"/>
</defs>
</svg>
