<svg width="144" height="144" viewBox="0 0 144 144" version="1.1" xmlns="http://www.w3.org/2000/svg" xmlns:xlink="http://www.w3.org/1999/xlink" xmlns:figma="http://www.figma.com/figma/ns">
<title>Messenger</title>
<desc>Created using Figma</desc>
<g id="Canvas" transform="translate(-3959 460)" figma:type="canvas">
<mask id="mask0_alpha" mask-type="alpha">
<path d="M 3959 -460L 4103 -460L 4103 -316L 3959 -316L 3959 -460Z" fill="#FFFFFF"/>
</mask>
<g id="Messenger" style="mix-blend-mode:normal;" mask="url(#mask0_alpha)" figma:type="frame">
<g id="Subtract" style="mix-blend-mode:normal;" figma:type="vector-operation">
<use xlink:href="#path0_fill" transform="translate(3994 -435.15)" fill="#FFF5D6" style="mix-blend-mode:normal;"/>
</g>
</g>
</g>
<defs>
<path id="path0_fill" fill-rule="evenodd" d="M 1.61088 92.3806C 3.78276 94.9363 7.61625 95.1505 11.0391 95.1505L 62.8724 95.1505C 66.2955 95.1505 70.1292 94.9363 72.3008 92.3806C 73.7808 90.6392 74.2439 88.0112 73.6775 84.5695C 72.8604 79.6008 72.5843 78.014 72.4515 77.2518C 72.4109 77.019 72.3826 76.8558 72.3553 76.6924C 72.2918 76.3093 72.2347 75.925 72.0442 74.6398C 71.6758 72.1567 70.5545 64.5995 60.6548 61.4523C 51.7369 58.6175 48.1028 57.2375 47.7312 51.4811L 47.4102 46.9821C 48.1434 46.435 51.1233 43.8802 51.8648 38.0439C 51.8663 38.0313 51.9944 36.7789 53.0813 35.8479C 54.4703 34.6578 55.3335 32.6347 55.3335 30.5686C 55.3335 30.3873 55.335 30.2063 55.3365 30.025C 55.3516 28.1393 55.3667 26.1911 53.72 24.9698C 53.9183 24.1703 54.5318 21.332 54.3042 17.6219C 54.0572 13.5909 53.0179 9.98724 51.2986 7.19974C 48.3521 2.4223 43.5264 0 36.9559 0C 30.3855 0 25.5596 2.4223 22.6133 7.19974C 20.8938 9.98724 19.8543 13.5913 19.6075 17.6219C 19.3804 21.332 19.9937 24.1703 20.1914 24.9698C 18.5452 26.1914 18.5603 28.1396 18.5755 30.0253L 18.5765 30.1457C 18.5774 30.2867 18.5784 30.4278 18.5784 30.5686C 18.5784 32.6344 19.4412 34.6574 20.8306 35.8482C 21.9175 36.7792 22.0459 38.0313 22.0469 38.0429L 22.0486 38.0612L 22.052 38.0792C 23.2212 43.8114 25.8653 46.4099 26.5027 46.9657L 26.1802 51.4834C 25.8086 57.2375 22.1751 58.6175 13.2569 61.4523C 3.35673 64.5998 2.23564 72.1567 1.86772 74.6398C 1.67704 75.925 1.62016 76.3093 1.55644 76.6924C 1.52909 76.8558 1.50077 77.019 1.46025 77.2518C 1.32743 78.014 1.05131 79.6008 0.233929 84.5695C -0.332478 88.0112 0.130901 90.6392 1.61088 92.3806ZM 32.6966 16.479L 29 16.479C 29.1607 12.3096 31.9285 9.15045 37.1072 9.15045C 41.8216 9.15045 45 12.0341 45 15.9648C 45 18.8117 43.6072 20.8137 41.25 22.2647C 38.9466 23.6606 38.2857 24.6341 38.2857 26.526L 38.2857 27.6464L 34.5894 27.6464L 34.5716 26.177C 34.4822 23.5872 35.5716 21.9341 38.0179 20.428C 40.1785 19.0872 40.9466 18.0219 40.9466 16.13C 40.9466 14.0545 39.3572 12.53 36.9107 12.53C 34.4466 12.53 32.8572 14.0545 32.6966 16.479ZM 38.8216 33.7811C 38.8216 35.1219 37.8035 36.1505 36.4644 36.1505C 35.1607 36.1505 34.125 35.1219 34.125 33.7811C 34.125 32.4402 35.1607 31.4117 36.4644 31.4117C 37.8035 31.4117 38.8216 32.4402 38.8216 33.7811Z"/>
</defs>
</svg>
