<svg width="144" height="144" viewBox="0 0 144 144" version="1.1" xmlns="http://www.w3.org/2000/svg" xmlns:xlink="http://www.w3.org/1999/xlink" xmlns:figma="http://www.figma.com/figma/ns">
<title>trigger</title>
<desc>Created using Figma</desc>
<g id="Canvas" transform="translate(-4237 460)" figma:type="canvas">
<mask id="mask0_alpha" mask-type="alpha">
<path d="M 4237 -460L 4381 -460L 4381 -316L 4237 -316L 4237 -460Z" fill="#FFFFFF"/>
</mask>
<g id="trigger" style="mix-blend-mode:normal;" mask="url(#mask0_alpha)" figma:type="frame">
<g id="Group" style="mix-blend-mode:normal;" figma:type="frame">
<g id="Group 10" style="mix-blend-mode:normal;" figma:type="frame">
<g id="Combined Shape" style="mix-blend-mode:normal;" figma:type="vector-operation">
<use xlink:href="#path0_fill" transform="translate(4267 -392.615)" fill="#FFF5D6" style="mix-blend-mode:normal;"/>
</g>
<g id="Fill 56" style="mix-blend-mode:normal;" figma:type="vector">
<use xlink:href="#path1_fill" transform="translate(4267 -436)" fill="#FFF5D6" fill-opacity="0.2" style="mix-blend-mode:normal;"/>
</g>
</g>
</g>
</g>
</g>
<defs>
<path id="path0_fill" fill-rule="evenodd" d="M 0.00976562 0C 0.500977 23.0245 19.3188 41.5385 42.4614 41.5385C 65.6035 41.5385 84.4219 23.0245 84.9131 0L 84.9229 0L 84.9229 10.5582C 84.9229 33.7857 65.9121 52.6154 42.4614 52.6154C 19.0103 52.6154 0 33.7857 0 10.5582L 0 10.5455L 0 0L 0.00976562 0Z"/>
<path id="path1_fill" fill-rule="evenodd" d="M 84.9231 42.4615C 84.9231 19.0107 65.9122 0 42.4613 0C 19.0104 0 0 19.0107 0 42.4615C 0 65.9123 19.0104 84.9231 42.4613 84.9231C 65.9122 84.9231 84.9231 65.9123 84.9231 42.4615Z"/>
</defs>
</svg>
